M48
;GenerationSoftware,Autodesk,EAGLE,9.5.1*%
;CreationDate,2021-08-15T02:14:33Z*%
FMAT,2
ICI,OFF
METRIC,TZ,000.000
T6C0.600
T5C1.016
T4C1.300
T3C1.400
T2C2.000
T1C3.000
%
G90
M71
T1
X3365Y67818
X89090Y67818
X89090Y3302
X3365Y3302
T2
X50990Y67818
X22415Y67818
X12890Y67818
X31940Y67818
X12890Y3302
X22415Y3302
X31940Y3302
X41466Y3302
X50990Y3302
X60515Y3302
X70041Y3302
X79566Y3302
X79566Y67818
X70041Y67818
X60515Y67818
X41466Y67818
T3
X51816Y35052
X51816Y31242
X51816Y23622
X51816Y19812
T4
X91948Y21844
X91948Y56276
X91948Y25344
X91948Y52776
X91948Y49276
X91948Y45776
X91948Y42276
X91948Y28844
X91948Y18344
X91948Y14844
X91948Y37310
X91948Y33810
T5
X27940Y18796
X30480Y18796
X33020Y18796
X35560Y18796
X38100Y18796
X5842Y60706
X10922Y60706
X78359Y43180
X51689Y43180
X78359Y58420
X51689Y58420
T6
X88138Y23876
X22352Y45212
X40640Y40640
X28956Y45720
X31496Y43180
X47752Y13970
X51054Y12954
X32639Y29464
X44450Y25654
X38862Y25654
X28702Y25908
X22098Y39370
X43434Y17526
X40894Y12700
X37084Y8382
X70866Y14732
X67564Y14732
X64008Y6604
X54610Y6604
X73914Y6604
X83058Y6604
X8382Y6604
X48006Y21336
X32512Y27178
X20574Y39370
X22098Y30734
X49530Y22606
X42418Y24384
X22479Y56134
X32004Y8382
X58674Y11938
X49276Y11938
X36322Y46482
X43053Y46736
X45720Y36576
X27051Y41148
X16764Y39370
X46736Y22352
X78740Y12192
X69596Y12192
X12954Y8382
X31496Y14478
X22352Y8382
X37656Y36020
X38862Y27178
X36068Y23495
X23241Y21463
X28575Y29718
X40132Y54864
X40640Y44450
M30