M48
;GenerationSoftware,Autodesk,EAGLE,9.5.1*%
;CreationDate,2021-08-17T12:56:13Z*%
FMAT,2
ICI,OFF
METRIC,TZ,000.000
T8C0.600
T7C0.800
T6C0.813
T5C1.000
T4C1.016
T3C1.300
T2C3.200
T1C5.000
%
G90
M71
T1
X69850Y3810
X36830Y3810
X36830Y36830
X69850Y36830
T2
X69840Y36820
X69840Y3820
X36840Y3820
X36840Y36820
T3
X9510Y5080
X13010Y5080
X16510Y5080
X20010Y5080
X23510Y5080
X23510Y35560
X20010Y35560
X16510Y35560
X13010Y35560
X9510Y35560
T4
X29972Y30226
X29972Y25146
X29972Y27686
X29972Y32766
X29972Y35306
T5
X2830Y18490
X7330Y18490
X7330Y11990
X2830Y11990
T6
X6350Y25400
X3810Y25400
T7
X37340Y20320
X34840Y20320
X32240Y20320
X29840Y20320
T8
X17526Y14224
X9144Y21336
X21844Y23368
X19558Y20066
X21844Y24892
X12954Y27686
X33528Y9144
X26416Y37846
X21844Y13970
X22860Y20320
X13208Y15494
X19050Y22606
M30