G04 EAGLE Gerber RS-274X export*
G75*
%MOMM*%
%FSLAX34Y34*%
%LPD*%
%INBottom Copper*%
%IPPOS*%
%AMOC8*
5,1,8,0,0,1.08239X$1,22.5*%
G01*
%ADD10P,2.273019X8X22.500000*%
%ADD11P,2.749271X8X22.500000*%
%ADD12C,1.524000*%
%ADD13R,3.000000X3.000000*%
%ADD14R,1.950000X1.950000*%
%ADD15C,1.006400*%
%ADD16C,0.406400*%
%ADD17C,1.270000*%
%ADD18C,1.016000*%

G36*
X873287Y10162D02*
X873287Y10162D01*
X873296Y10161D01*
X873487Y10182D01*
X873678Y10201D01*
X873687Y10203D01*
X873696Y10204D01*
X873878Y10262D01*
X874063Y10319D01*
X874071Y10323D01*
X874080Y10326D01*
X874248Y10419D01*
X874417Y10511D01*
X874424Y10516D01*
X874432Y10521D01*
X874579Y10645D01*
X874727Y10768D01*
X874732Y10775D01*
X874739Y10781D01*
X874858Y10932D01*
X874979Y11082D01*
X874983Y11090D01*
X874989Y11097D01*
X875076Y11270D01*
X875164Y11439D01*
X875167Y11448D01*
X875171Y11456D01*
X875223Y11642D01*
X875276Y11826D01*
X875277Y11835D01*
X875279Y11844D01*
X875293Y12037D01*
X875309Y12228D01*
X875308Y12236D01*
X875308Y12245D01*
X875284Y12438D01*
X875262Y12627D01*
X875259Y12636D01*
X875258Y12645D01*
X875197Y12828D01*
X875137Y13010D01*
X875133Y13018D01*
X875130Y13026D01*
X875034Y13193D01*
X874939Y13361D01*
X874933Y13368D01*
X874929Y13375D01*
X874714Y13628D01*
X870771Y17571D01*
X867459Y23308D01*
X865744Y29708D01*
X865744Y36332D01*
X867459Y42732D01*
X870771Y48469D01*
X875456Y53154D01*
X881193Y56466D01*
X887593Y58181D01*
X894217Y58181D01*
X900617Y56466D01*
X906354Y53154D01*
X911039Y48469D01*
X914351Y42732D01*
X916066Y36332D01*
X916066Y29708D01*
X914351Y23308D01*
X911039Y17571D01*
X907096Y13628D01*
X907090Y13621D01*
X907083Y13616D01*
X906963Y13466D01*
X906841Y13317D01*
X906837Y13309D01*
X906831Y13302D01*
X906743Y13132D01*
X906652Y12961D01*
X906650Y12952D01*
X906646Y12945D01*
X906592Y12759D01*
X906537Y12575D01*
X906537Y12566D01*
X906534Y12558D01*
X906519Y12366D01*
X906501Y12174D01*
X906502Y12165D01*
X906501Y12156D01*
X906523Y11967D01*
X906544Y11774D01*
X906547Y11765D01*
X906548Y11757D01*
X906608Y11575D01*
X906666Y11390D01*
X906670Y11382D01*
X906673Y11374D01*
X906768Y11205D01*
X906861Y11038D01*
X906867Y11031D01*
X906871Y11023D01*
X906997Y10877D01*
X907121Y10731D01*
X907128Y10725D01*
X907134Y10718D01*
X907286Y10601D01*
X907437Y10481D01*
X907445Y10477D01*
X907452Y10472D01*
X907624Y10386D01*
X907796Y10299D01*
X907805Y10296D01*
X907813Y10292D01*
X907999Y10242D01*
X908184Y10191D01*
X908193Y10190D01*
X908202Y10188D01*
X908532Y10161D01*
X922020Y10161D01*
X922076Y10166D01*
X922153Y10165D01*
X924871Y10343D01*
X924905Y10349D01*
X924938Y10349D01*
X925264Y10408D01*
X930516Y11815D01*
X930610Y11851D01*
X930706Y11876D01*
X930818Y11929D01*
X930893Y11958D01*
X930939Y11987D01*
X931006Y12018D01*
X935715Y14737D01*
X935796Y14795D01*
X935883Y14845D01*
X935977Y14925D01*
X936042Y14972D01*
X936079Y15012D01*
X936136Y15060D01*
X939980Y18904D01*
X940044Y18982D01*
X940114Y19052D01*
X940185Y19154D01*
X940235Y19216D01*
X940261Y19264D01*
X940303Y19325D01*
X943022Y24034D01*
X943063Y24125D01*
X943113Y24211D01*
X943155Y24328D01*
X943187Y24401D01*
X943200Y24454D01*
X943225Y24524D01*
X944632Y29776D01*
X944637Y29809D01*
X944648Y29840D01*
X944697Y30169D01*
X944875Y32887D01*
X944873Y32944D01*
X944879Y33020D01*
X944879Y114576D01*
X944878Y114585D01*
X944879Y114594D01*
X944858Y114788D01*
X944839Y114977D01*
X944837Y114986D01*
X944836Y114995D01*
X944777Y115179D01*
X944721Y115362D01*
X944717Y115370D01*
X944714Y115378D01*
X944621Y115547D01*
X944529Y115716D01*
X944524Y115723D01*
X944519Y115731D01*
X944395Y115878D01*
X944272Y116025D01*
X944265Y116031D01*
X944259Y116038D01*
X944107Y116157D01*
X943958Y116278D01*
X943950Y116282D01*
X943943Y116287D01*
X943770Y116375D01*
X943601Y116463D01*
X943592Y116466D01*
X943584Y116470D01*
X943398Y116522D01*
X943214Y116575D01*
X943205Y116575D01*
X943196Y116578D01*
X943003Y116592D01*
X942812Y116607D01*
X942804Y116606D01*
X942795Y116607D01*
X942602Y116583D01*
X942413Y116561D01*
X942404Y116558D01*
X942395Y116557D01*
X942213Y116495D01*
X942030Y116436D01*
X942022Y116431D01*
X942014Y116428D01*
X941847Y116332D01*
X941679Y116238D01*
X941672Y116232D01*
X941665Y116227D01*
X941412Y116013D01*
X903189Y77790D01*
X901364Y77034D01*
X901363Y77034D01*
X900575Y76707D01*
X833625Y76707D01*
X833621Y76707D01*
X833616Y76707D01*
X833422Y76687D01*
X833225Y76667D01*
X833220Y76666D01*
X833216Y76666D01*
X833028Y76607D01*
X832840Y76549D01*
X832836Y76547D01*
X832831Y76546D01*
X832657Y76450D01*
X832486Y76357D01*
X832482Y76355D01*
X832478Y76352D01*
X832325Y76224D01*
X832176Y76100D01*
X832174Y76096D01*
X832170Y76093D01*
X832045Y75937D01*
X831924Y75786D01*
X831922Y75782D01*
X831919Y75779D01*
X831827Y75598D01*
X831738Y75429D01*
X831737Y75424D01*
X831735Y75420D01*
X831681Y75228D01*
X831627Y75042D01*
X831627Y75037D01*
X831626Y75033D01*
X831611Y74840D01*
X831594Y74640D01*
X831595Y74636D01*
X831594Y74632D01*
X831618Y74438D01*
X831641Y74241D01*
X831643Y74236D01*
X831643Y74232D01*
X831704Y74047D01*
X831766Y73858D01*
X831768Y73854D01*
X831770Y73850D01*
X831866Y73681D01*
X831964Y73507D01*
X831967Y73504D01*
X831969Y73500D01*
X832097Y73353D01*
X832227Y73203D01*
X832231Y73200D01*
X832234Y73196D01*
X832391Y73075D01*
X832545Y72956D01*
X832549Y72954D01*
X832553Y72951D01*
X832848Y72799D01*
X834609Y72070D01*
X836610Y70069D01*
X837693Y67455D01*
X837693Y64625D01*
X836610Y62011D01*
X834609Y60010D01*
X831995Y58927D01*
X82405Y58927D01*
X79791Y60010D01*
X77790Y62011D01*
X76707Y64625D01*
X76707Y67455D01*
X77790Y70069D01*
X79791Y72070D01*
X82405Y73153D01*
X367795Y73153D01*
X367799Y73153D01*
X367804Y73153D01*
X367998Y73173D01*
X368195Y73193D01*
X368200Y73194D01*
X368204Y73194D01*
X368392Y73253D01*
X368580Y73311D01*
X368584Y73313D01*
X368589Y73314D01*
X368763Y73410D01*
X368934Y73503D01*
X368938Y73505D01*
X368942Y73508D01*
X369095Y73636D01*
X369244Y73760D01*
X369246Y73764D01*
X369250Y73767D01*
X369375Y73923D01*
X369496Y74074D01*
X369498Y74078D01*
X369501Y74081D01*
X369593Y74262D01*
X369682Y74431D01*
X369683Y74436D01*
X369685Y74440D01*
X369739Y74630D01*
X369793Y74818D01*
X369793Y74823D01*
X369794Y74827D01*
X369809Y75020D01*
X369826Y75220D01*
X369825Y75224D01*
X369826Y75228D01*
X369802Y75420D01*
X369779Y75619D01*
X369777Y75624D01*
X369777Y75628D01*
X369716Y75813D01*
X369654Y76002D01*
X369652Y76006D01*
X369650Y76010D01*
X369554Y76179D01*
X369456Y76353D01*
X369453Y76356D01*
X369451Y76360D01*
X369323Y76507D01*
X369193Y76657D01*
X369189Y76660D01*
X369186Y76664D01*
X369030Y76784D01*
X368875Y76904D01*
X368871Y76906D01*
X368867Y76909D01*
X368572Y77061D01*
X366811Y77790D01*
X364810Y79791D01*
X363727Y82405D01*
X363727Y85235D01*
X364810Y87849D01*
X366811Y89850D01*
X369425Y90933D01*
X895372Y90933D01*
X895399Y90935D01*
X895426Y90933D01*
X895600Y90955D01*
X895773Y90973D01*
X895799Y90980D01*
X895825Y90984D01*
X895991Y91039D01*
X896158Y91091D01*
X896182Y91104D01*
X896207Y91112D01*
X896359Y91199D01*
X896512Y91283D01*
X896532Y91300D01*
X896556Y91313D01*
X896809Y91528D01*
X932092Y126811D01*
X932109Y126832D01*
X932130Y126849D01*
X932237Y126987D01*
X932347Y127123D01*
X932360Y127146D01*
X932376Y127168D01*
X932454Y127324D01*
X932536Y127478D01*
X932544Y127504D01*
X932556Y127528D01*
X932601Y127697D01*
X932651Y127864D01*
X932653Y127891D01*
X932660Y127917D01*
X932687Y128248D01*
X932687Y134339D01*
X932679Y134421D01*
X932681Y134503D01*
X932659Y134620D01*
X932647Y134739D01*
X932623Y134818D01*
X932609Y134899D01*
X932564Y135010D01*
X932529Y135124D01*
X932490Y135197D01*
X932460Y135273D01*
X932394Y135373D01*
X932337Y135478D01*
X932285Y135541D01*
X932240Y135610D01*
X932156Y135696D01*
X932080Y135788D01*
X932016Y135839D01*
X931958Y135898D01*
X931859Y135965D01*
X931766Y136040D01*
X931693Y136078D01*
X931625Y136124D01*
X931515Y136170D01*
X931409Y136225D01*
X931330Y136248D01*
X931254Y136280D01*
X931137Y136304D01*
X931022Y136337D01*
X930940Y136344D01*
X930859Y136360D01*
X930740Y136360D01*
X930620Y136370D01*
X930539Y136360D01*
X930457Y136360D01*
X930307Y136333D01*
X930221Y136323D01*
X930182Y136310D01*
X930130Y136301D01*
X929565Y136149D01*
X922729Y136149D01*
X922729Y147222D01*
X922727Y147240D01*
X922729Y147257D01*
X922708Y147440D01*
X922689Y147622D01*
X922684Y147639D01*
X922682Y147657D01*
X922625Y147832D01*
X922571Y148007D01*
X922563Y148023D01*
X922557Y148040D01*
X922467Y148200D01*
X922379Y148361D01*
X922368Y148375D01*
X922359Y148391D01*
X922314Y148443D01*
X922399Y148548D01*
X922407Y148564D01*
X922418Y148578D01*
X922500Y148743D01*
X922585Y148906D01*
X922590Y148923D01*
X922598Y148939D01*
X922645Y149117D01*
X922696Y149292D01*
X922698Y149310D01*
X922702Y149327D01*
X922729Y149658D01*
X922729Y160731D01*
X929565Y160731D01*
X930130Y160579D01*
X930211Y160566D01*
X930290Y160543D01*
X930410Y160533D01*
X930528Y160514D01*
X930610Y160517D01*
X930692Y160510D01*
X930810Y160524D01*
X930930Y160528D01*
X931010Y160548D01*
X931091Y160557D01*
X931205Y160594D01*
X931322Y160622D01*
X931396Y160656D01*
X931474Y160682D01*
X931579Y160741D01*
X931687Y160791D01*
X931753Y160839D01*
X931825Y160880D01*
X931915Y160958D01*
X932012Y161029D01*
X932067Y161089D01*
X932130Y161143D01*
X932203Y161237D01*
X932284Y161326D01*
X932326Y161396D01*
X932376Y161461D01*
X932430Y161568D01*
X932491Y161671D01*
X932519Y161748D01*
X932556Y161822D01*
X932587Y161937D01*
X932627Y162050D01*
X932639Y162131D01*
X932660Y162210D01*
X932673Y162363D01*
X932685Y162448D01*
X932683Y162489D01*
X932687Y162541D01*
X932687Y169339D01*
X932679Y169421D01*
X932681Y169503D01*
X932659Y169621D01*
X932647Y169739D01*
X932623Y169818D01*
X932609Y169899D01*
X932564Y170010D01*
X932529Y170124D01*
X932490Y170197D01*
X932460Y170273D01*
X932394Y170373D01*
X932337Y170478D01*
X932285Y170541D01*
X932240Y170610D01*
X932156Y170696D01*
X932080Y170788D01*
X932016Y170839D01*
X931958Y170898D01*
X931859Y170965D01*
X931766Y171040D01*
X931693Y171078D01*
X931625Y171124D01*
X931515Y171170D01*
X931409Y171226D01*
X931330Y171248D01*
X931254Y171280D01*
X931137Y171304D01*
X931022Y171337D01*
X930940Y171344D01*
X930859Y171360D01*
X930740Y171360D01*
X930620Y171370D01*
X930539Y171360D01*
X930457Y171360D01*
X930306Y171333D01*
X930221Y171323D01*
X930182Y171310D01*
X930130Y171301D01*
X929564Y171149D01*
X922729Y171149D01*
X922729Y182222D01*
X922727Y182240D01*
X922729Y182257D01*
X922708Y182440D01*
X922689Y182622D01*
X922684Y182639D01*
X922682Y182657D01*
X922625Y182832D01*
X922571Y183007D01*
X922563Y183023D01*
X922557Y183040D01*
X922467Y183200D01*
X922379Y183361D01*
X922368Y183375D01*
X922359Y183391D01*
X922314Y183443D01*
X922399Y183548D01*
X922407Y183564D01*
X922418Y183578D01*
X922500Y183743D01*
X922585Y183906D01*
X922590Y183923D01*
X922598Y183939D01*
X922645Y184117D01*
X922696Y184292D01*
X922698Y184310D01*
X922702Y184327D01*
X922729Y184658D01*
X922729Y195731D01*
X929565Y195731D01*
X930130Y195579D01*
X930211Y195566D01*
X930290Y195543D01*
X930410Y195533D01*
X930528Y195514D01*
X930610Y195517D01*
X930692Y195510D01*
X930810Y195524D01*
X930930Y195528D01*
X931010Y195548D01*
X931091Y195557D01*
X931205Y195594D01*
X931322Y195622D01*
X931396Y195656D01*
X931474Y195682D01*
X931579Y195741D01*
X931687Y195791D01*
X931753Y195839D01*
X931825Y195880D01*
X931915Y195958D01*
X932012Y196029D01*
X932067Y196089D01*
X932130Y196143D01*
X932203Y196237D01*
X932284Y196326D01*
X932326Y196396D01*
X932376Y196461D01*
X932430Y196568D01*
X932491Y196671D01*
X932519Y196748D01*
X932556Y196822D01*
X932587Y196937D01*
X932627Y197050D01*
X932639Y197131D01*
X932660Y197210D01*
X932673Y197363D01*
X932685Y197448D01*
X932683Y197489D01*
X932687Y197541D01*
X932687Y204626D01*
X932685Y204644D01*
X932687Y204662D01*
X932666Y204844D01*
X932647Y205027D01*
X932642Y205044D01*
X932640Y205061D01*
X932583Y205236D01*
X932529Y205412D01*
X932521Y205427D01*
X932515Y205444D01*
X932425Y205604D01*
X932337Y205766D01*
X932326Y205779D01*
X932317Y205795D01*
X932197Y205934D01*
X932080Y206075D01*
X932066Y206086D01*
X932054Y206100D01*
X931909Y206212D01*
X931766Y206327D01*
X931750Y206335D01*
X931736Y206346D01*
X931571Y206428D01*
X931409Y206513D01*
X931392Y206518D01*
X931376Y206526D01*
X931197Y206573D01*
X931022Y206624D01*
X931004Y206626D01*
X930987Y206630D01*
X930656Y206657D01*
X908888Y206657D01*
X907697Y207848D01*
X907697Y229032D01*
X908888Y230223D01*
X930656Y230223D01*
X930674Y230225D01*
X930692Y230223D01*
X930874Y230244D01*
X931057Y230263D01*
X931074Y230268D01*
X931091Y230270D01*
X931266Y230327D01*
X931442Y230381D01*
X931457Y230389D01*
X931474Y230395D01*
X931634Y230485D01*
X931796Y230573D01*
X931809Y230584D01*
X931825Y230593D01*
X931964Y230713D01*
X932105Y230830D01*
X932116Y230844D01*
X932130Y230856D01*
X932242Y231001D01*
X932357Y231144D01*
X932365Y231160D01*
X932376Y231174D01*
X932458Y231339D01*
X932543Y231501D01*
X932548Y231518D01*
X932556Y231534D01*
X932603Y231713D01*
X932654Y231888D01*
X932656Y231906D01*
X932660Y231923D01*
X932687Y232254D01*
X932687Y239626D01*
X932685Y239644D01*
X932687Y239662D01*
X932666Y239844D01*
X932647Y240027D01*
X932642Y240044D01*
X932640Y240061D01*
X932583Y240236D01*
X932529Y240412D01*
X932521Y240427D01*
X932515Y240444D01*
X932425Y240604D01*
X932337Y240766D01*
X932326Y240779D01*
X932317Y240795D01*
X932197Y240934D01*
X932080Y241075D01*
X932066Y241086D01*
X932054Y241100D01*
X931909Y241212D01*
X931766Y241327D01*
X931750Y241335D01*
X931736Y241346D01*
X931571Y241428D01*
X931409Y241513D01*
X931392Y241518D01*
X931376Y241526D01*
X931197Y241573D01*
X931022Y241624D01*
X931004Y241626D01*
X930987Y241630D01*
X930656Y241657D01*
X908888Y241657D01*
X907697Y242848D01*
X907697Y264032D01*
X908888Y265223D01*
X927734Y265223D01*
X927743Y265224D01*
X927752Y265223D01*
X927946Y265244D01*
X928135Y265263D01*
X928144Y265265D01*
X928153Y265266D01*
X928337Y265325D01*
X928520Y265381D01*
X928528Y265385D01*
X928536Y265388D01*
X928705Y265481D01*
X928874Y265573D01*
X928881Y265578D01*
X928889Y265583D01*
X929036Y265707D01*
X929183Y265830D01*
X929189Y265837D01*
X929196Y265843D01*
X929314Y265993D01*
X929436Y266144D01*
X929440Y266152D01*
X929445Y266159D01*
X929533Y266332D01*
X929621Y266501D01*
X929624Y266510D01*
X929628Y266518D01*
X929680Y266704D01*
X929733Y266888D01*
X929733Y266897D01*
X929736Y266906D01*
X929750Y267099D01*
X929765Y267290D01*
X929764Y267298D01*
X929765Y267307D01*
X929741Y267500D01*
X929719Y267689D01*
X929716Y267698D01*
X929715Y267707D01*
X929654Y267886D01*
X929594Y268072D01*
X929589Y268080D01*
X929586Y268088D01*
X929490Y268255D01*
X929396Y268423D01*
X929390Y268430D01*
X929385Y268437D01*
X929171Y268690D01*
X921799Y276062D01*
X921778Y276079D01*
X921761Y276100D01*
X921623Y276207D01*
X921487Y276317D01*
X921464Y276330D01*
X921442Y276346D01*
X921286Y276424D01*
X921132Y276506D01*
X921106Y276514D01*
X921082Y276526D01*
X920913Y276571D01*
X920746Y276621D01*
X920719Y276623D01*
X920693Y276630D01*
X920362Y276657D01*
X908888Y276657D01*
X907697Y277848D01*
X907697Y299032D01*
X908888Y300223D01*
X930072Y300223D01*
X931263Y299032D01*
X931263Y287558D01*
X931265Y287531D01*
X931263Y287504D01*
X931285Y287330D01*
X931303Y287157D01*
X931310Y287131D01*
X931314Y287105D01*
X931369Y286939D01*
X931421Y286772D01*
X931434Y286748D01*
X931442Y286723D01*
X931529Y286571D01*
X931613Y286418D01*
X931630Y286398D01*
X931643Y286374D01*
X931858Y286121D01*
X941412Y276567D01*
X941419Y276562D01*
X941424Y276555D01*
X941574Y276434D01*
X941723Y276312D01*
X941731Y276308D01*
X941738Y276302D01*
X941909Y276213D01*
X942079Y276124D01*
X942087Y276121D01*
X942095Y276117D01*
X942281Y276064D01*
X942465Y276009D01*
X942474Y276008D01*
X942482Y276005D01*
X942674Y275990D01*
X942866Y275972D01*
X942875Y275973D01*
X942884Y275973D01*
X943073Y275995D01*
X943266Y276016D01*
X943275Y276018D01*
X943283Y276019D01*
X943465Y276079D01*
X943650Y276137D01*
X943658Y276142D01*
X943666Y276144D01*
X943835Y276239D01*
X944002Y276332D01*
X944009Y276338D01*
X944017Y276342D01*
X944163Y276468D01*
X944309Y276593D01*
X944315Y276600D01*
X944322Y276605D01*
X944439Y276757D01*
X944559Y276908D01*
X944563Y276916D01*
X944568Y276923D01*
X944654Y277096D01*
X944741Y277267D01*
X944744Y277276D01*
X944748Y277284D01*
X944798Y277470D01*
X944849Y277655D01*
X944850Y277664D01*
X944852Y277673D01*
X944879Y278004D01*
X944879Y583003D01*
X944879Y583008D01*
X944879Y583009D01*
X944877Y583021D01*
X944860Y583199D01*
X944841Y583395D01*
X944840Y583399D01*
X944839Y583404D01*
X944782Y583591D01*
X944725Y583780D01*
X944723Y583784D01*
X944721Y583789D01*
X944629Y583960D01*
X944535Y584135D01*
X944532Y584139D01*
X944529Y584143D01*
X944405Y584292D01*
X944279Y584445D01*
X944275Y584449D01*
X944272Y584452D01*
X944119Y584575D01*
X943966Y584699D01*
X943962Y584702D01*
X943958Y584705D01*
X943785Y584794D01*
X943610Y584886D01*
X943605Y584888D01*
X943601Y584890D01*
X943413Y584944D01*
X943223Y585000D01*
X943218Y585000D01*
X943214Y585001D01*
X943180Y585004D01*
X942893Y585034D01*
X889045Y586231D01*
X889025Y586229D01*
X889000Y586231D01*
X886460Y586231D01*
X886433Y586229D01*
X886407Y586231D01*
X886233Y586209D01*
X886059Y586191D01*
X886034Y586184D01*
X886007Y586180D01*
X885842Y586125D01*
X885674Y586073D01*
X885651Y586060D01*
X885626Y586052D01*
X885474Y585965D01*
X885320Y585881D01*
X885300Y585864D01*
X885277Y585851D01*
X885024Y585636D01*
X857084Y557696D01*
X857067Y557676D01*
X857047Y557658D01*
X856939Y557520D01*
X856829Y557385D01*
X856816Y557361D01*
X856800Y557340D01*
X856722Y557183D01*
X856640Y557029D01*
X856632Y557004D01*
X856620Y556980D01*
X856575Y556810D01*
X856525Y556643D01*
X856523Y556617D01*
X856516Y556591D01*
X856489Y556260D01*
X856489Y268731D01*
X471931Y268731D01*
X471931Y699008D01*
X471929Y699026D01*
X471931Y699044D01*
X471910Y699225D01*
X471891Y699409D01*
X471886Y699426D01*
X471884Y699443D01*
X471827Y699618D01*
X471773Y699794D01*
X471765Y699809D01*
X471759Y699826D01*
X471669Y699986D01*
X471581Y700148D01*
X471570Y700161D01*
X471561Y700177D01*
X471441Y700316D01*
X471324Y700457D01*
X471310Y700468D01*
X471298Y700482D01*
X471153Y700594D01*
X471010Y700709D01*
X470994Y700717D01*
X470980Y700728D01*
X470815Y700810D01*
X470653Y700895D01*
X470636Y700900D01*
X470620Y700908D01*
X470441Y700955D01*
X470266Y701006D01*
X470248Y701008D01*
X470231Y701012D01*
X469900Y701039D01*
X51282Y701039D01*
X51273Y701038D01*
X51264Y701039D01*
X51073Y701018D01*
X50882Y700999D01*
X50873Y700997D01*
X50864Y700996D01*
X50682Y700938D01*
X50497Y700881D01*
X50489Y700877D01*
X50480Y700874D01*
X50312Y700781D01*
X50143Y700689D01*
X50136Y700684D01*
X50128Y700679D01*
X49981Y700555D01*
X49833Y700432D01*
X49828Y700425D01*
X49821Y700419D01*
X49702Y700268D01*
X49581Y700118D01*
X49577Y700110D01*
X49571Y700103D01*
X49484Y699930D01*
X49396Y699761D01*
X49393Y699752D01*
X49389Y699744D01*
X49337Y699558D01*
X49284Y699374D01*
X49283Y699365D01*
X49281Y699356D01*
X49267Y699163D01*
X49251Y698972D01*
X49252Y698964D01*
X49252Y698955D01*
X49276Y698762D01*
X49298Y698573D01*
X49301Y698564D01*
X49302Y698555D01*
X49363Y698372D01*
X49423Y698190D01*
X49427Y698182D01*
X49430Y698174D01*
X49527Y698006D01*
X49621Y697839D01*
X49627Y697832D01*
X49631Y697825D01*
X49846Y697572D01*
X53789Y693629D01*
X57101Y687892D01*
X58816Y681492D01*
X58816Y674868D01*
X57101Y668468D01*
X53789Y662731D01*
X49104Y658046D01*
X43367Y654734D01*
X36967Y653019D01*
X30343Y653019D01*
X23943Y654734D01*
X18206Y658046D01*
X13628Y662624D01*
X13621Y662630D01*
X13616Y662637D01*
X13466Y662757D01*
X13317Y662879D01*
X13309Y662883D01*
X13302Y662889D01*
X13132Y662977D01*
X12961Y663068D01*
X12952Y663070D01*
X12945Y663074D01*
X12760Y663128D01*
X12575Y663183D01*
X12566Y663183D01*
X12558Y663186D01*
X12366Y663201D01*
X12174Y663219D01*
X12165Y663218D01*
X12156Y663219D01*
X11967Y663197D01*
X11774Y663176D01*
X11765Y663173D01*
X11757Y663172D01*
X11575Y663112D01*
X11390Y663054D01*
X11382Y663050D01*
X11374Y663047D01*
X11205Y662952D01*
X11038Y662859D01*
X11031Y662853D01*
X11023Y662849D01*
X10877Y662723D01*
X10731Y662599D01*
X10725Y662592D01*
X10718Y662586D01*
X10601Y662434D01*
X10481Y662283D01*
X10477Y662275D01*
X10472Y662268D01*
X10386Y662096D01*
X10299Y661924D01*
X10296Y661915D01*
X10292Y661907D01*
X10242Y661721D01*
X10191Y661536D01*
X10190Y661527D01*
X10188Y661518D01*
X10161Y661188D01*
X10161Y50012D01*
X10162Y50003D01*
X10161Y49994D01*
X10182Y49803D01*
X10201Y49612D01*
X10203Y49603D01*
X10204Y49594D01*
X10262Y49412D01*
X10319Y49227D01*
X10323Y49219D01*
X10326Y49210D01*
X10419Y49042D01*
X10511Y48873D01*
X10516Y48866D01*
X10521Y48858D01*
X10645Y48711D01*
X10768Y48563D01*
X10775Y48558D01*
X10781Y48551D01*
X10932Y48432D01*
X11082Y48311D01*
X11090Y48307D01*
X11097Y48301D01*
X11270Y48214D01*
X11439Y48126D01*
X11448Y48123D01*
X11456Y48119D01*
X11642Y48067D01*
X11826Y48014D01*
X11835Y48013D01*
X11844Y48011D01*
X12037Y47997D01*
X12228Y47981D01*
X12236Y47982D01*
X12245Y47982D01*
X12438Y48006D01*
X12627Y48028D01*
X12636Y48031D01*
X12645Y48032D01*
X12828Y48093D01*
X13010Y48153D01*
X13018Y48157D01*
X13026Y48160D01*
X13193Y48256D01*
X13361Y48351D01*
X13368Y48357D01*
X13375Y48361D01*
X13628Y48576D01*
X18206Y53154D01*
X23943Y56466D01*
X30343Y58181D01*
X36967Y58181D01*
X43367Y56466D01*
X49104Y53154D01*
X53789Y48469D01*
X57101Y42732D01*
X58816Y36332D01*
X58816Y29708D01*
X57101Y23308D01*
X53789Y17571D01*
X49846Y13628D01*
X49840Y13621D01*
X49833Y13616D01*
X49713Y13466D01*
X49591Y13317D01*
X49587Y13309D01*
X49581Y13302D01*
X49493Y13132D01*
X49402Y12961D01*
X49400Y12952D01*
X49396Y12945D01*
X49342Y12759D01*
X49287Y12575D01*
X49287Y12566D01*
X49284Y12558D01*
X49269Y12366D01*
X49251Y12174D01*
X49252Y12165D01*
X49251Y12156D01*
X49273Y11967D01*
X49294Y11774D01*
X49297Y11765D01*
X49298Y11757D01*
X49358Y11575D01*
X49416Y11390D01*
X49420Y11382D01*
X49423Y11374D01*
X49518Y11205D01*
X49611Y11038D01*
X49617Y11031D01*
X49621Y11023D01*
X49747Y10877D01*
X49871Y10731D01*
X49878Y10725D01*
X49884Y10718D01*
X50036Y10601D01*
X50187Y10481D01*
X50195Y10477D01*
X50202Y10472D01*
X50374Y10386D01*
X50546Y10299D01*
X50555Y10296D01*
X50563Y10292D01*
X50749Y10242D01*
X50934Y10191D01*
X50943Y10190D01*
X50952Y10188D01*
X51282Y10161D01*
X873278Y10161D01*
X873287Y10162D01*
G37*
%LPC*%
G36*
X285615Y252015D02*
X285615Y252015D01*
X283018Y253091D01*
X281031Y255078D01*
X279955Y257675D01*
X279955Y259555D01*
X279953Y259582D01*
X279955Y259608D01*
X279933Y259782D01*
X279915Y259956D01*
X279908Y259981D01*
X279904Y260008D01*
X279849Y260173D01*
X279797Y260340D01*
X279784Y260364D01*
X279776Y260389D01*
X279689Y260541D01*
X279605Y260695D01*
X279588Y260715D01*
X279575Y260738D01*
X279360Y260991D01*
X231512Y308839D01*
X231505Y308845D01*
X231500Y308852D01*
X231350Y308972D01*
X231201Y309094D01*
X231193Y309099D01*
X231186Y309104D01*
X231015Y309193D01*
X230845Y309283D01*
X230837Y309286D01*
X230829Y309290D01*
X230643Y309343D01*
X230459Y309398D01*
X230450Y309399D01*
X230442Y309401D01*
X230250Y309417D01*
X230058Y309434D01*
X230049Y309433D01*
X230040Y309434D01*
X229851Y309412D01*
X229658Y309391D01*
X229649Y309388D01*
X229641Y309387D01*
X229459Y309328D01*
X229274Y309269D01*
X229266Y309265D01*
X229258Y309262D01*
X229089Y309167D01*
X228922Y309074D01*
X228915Y309069D01*
X228907Y309064D01*
X228761Y308938D01*
X228615Y308814D01*
X228609Y308807D01*
X228602Y308801D01*
X228485Y308650D01*
X228365Y308498D01*
X228361Y308490D01*
X228356Y308483D01*
X228270Y308311D01*
X228183Y308139D01*
X228180Y308131D01*
X228176Y308123D01*
X228126Y307936D01*
X228075Y307751D01*
X228074Y307742D01*
X228072Y307734D01*
X228045Y307403D01*
X228045Y305935D01*
X226969Y303338D01*
X224982Y301351D01*
X222385Y300275D01*
X219575Y300275D01*
X216978Y301351D01*
X214991Y303338D01*
X213915Y305935D01*
X213915Y308745D01*
X214991Y311342D01*
X216320Y312671D01*
X216337Y312692D01*
X216358Y312710D01*
X216465Y312847D01*
X216575Y312983D01*
X216588Y313007D01*
X216604Y313028D01*
X216682Y313185D01*
X216764Y313339D01*
X216772Y313364D01*
X216784Y313388D01*
X216829Y313558D01*
X216879Y313724D01*
X216881Y313751D01*
X216888Y313777D01*
X216915Y314108D01*
X216915Y375935D01*
X216913Y375962D01*
X216915Y375988D01*
X216893Y376162D01*
X216875Y376336D01*
X216868Y376361D01*
X216864Y376388D01*
X216809Y376553D01*
X216757Y376720D01*
X216744Y376744D01*
X216736Y376769D01*
X216649Y376921D01*
X216565Y377075D01*
X216548Y377095D01*
X216535Y377118D01*
X216320Y377371D01*
X207651Y386040D01*
X207631Y386057D01*
X207613Y386078D01*
X207475Y386185D01*
X207340Y386295D01*
X207316Y386308D01*
X207295Y386324D01*
X207138Y386402D01*
X206984Y386484D01*
X206959Y386492D01*
X206934Y386504D01*
X206765Y386549D01*
X206598Y386599D01*
X206572Y386601D01*
X206546Y386608D01*
X206215Y386635D01*
X204335Y386635D01*
X201738Y387711D01*
X199751Y389698D01*
X198675Y392295D01*
X198675Y395105D01*
X199751Y397702D01*
X201738Y399689D01*
X204335Y400765D01*
X207145Y400765D01*
X209742Y399689D01*
X211924Y397507D01*
X211937Y397496D01*
X211949Y397482D01*
X212093Y397369D01*
X212235Y397252D01*
X212251Y397244D01*
X212265Y397233D01*
X212429Y397149D01*
X212591Y397064D01*
X212608Y397059D01*
X212624Y397050D01*
X212801Y397001D01*
X212977Y396949D01*
X212995Y396947D01*
X213012Y396942D01*
X213195Y396929D01*
X213378Y396912D01*
X213396Y396914D01*
X213413Y396913D01*
X213595Y396936D01*
X213778Y396956D01*
X213795Y396961D01*
X213813Y396963D01*
X213986Y397022D01*
X214162Y397077D01*
X214178Y397086D01*
X214194Y397092D01*
X214354Y397184D01*
X214514Y397272D01*
X214528Y397284D01*
X214543Y397293D01*
X214796Y397507D01*
X216978Y399689D01*
X219575Y400765D01*
X222385Y400765D01*
X224982Y399689D01*
X226969Y397702D01*
X228045Y395105D01*
X228045Y393225D01*
X228047Y393198D01*
X228045Y393172D01*
X228067Y392998D01*
X228085Y392824D01*
X228092Y392799D01*
X228096Y392772D01*
X228151Y392607D01*
X228203Y392440D01*
X228216Y392416D01*
X228224Y392391D01*
X228311Y392239D01*
X228395Y392085D01*
X228412Y392065D01*
X228425Y392042D01*
X228640Y391789D01*
X232046Y388382D01*
X232665Y386889D01*
X232665Y320025D01*
X232667Y319998D01*
X232665Y319972D01*
X232687Y319798D01*
X232705Y319624D01*
X232712Y319599D01*
X232716Y319572D01*
X232771Y319407D01*
X232823Y319240D01*
X232836Y319216D01*
X232844Y319191D01*
X232931Y319039D01*
X233015Y318885D01*
X233032Y318865D01*
X233045Y318842D01*
X233260Y318589D01*
X285109Y266740D01*
X285129Y266723D01*
X285147Y266702D01*
X285285Y266595D01*
X285420Y266485D01*
X285444Y266472D01*
X285465Y266456D01*
X285622Y266378D01*
X285776Y266296D01*
X285801Y266288D01*
X285826Y266276D01*
X285995Y266231D01*
X286162Y266181D01*
X286188Y266179D01*
X286214Y266172D01*
X286545Y266145D01*
X288425Y266145D01*
X291022Y265069D01*
X293009Y263082D01*
X294085Y260485D01*
X294085Y257675D01*
X293009Y255078D01*
X291022Y253091D01*
X288425Y252015D01*
X285615Y252015D01*
G37*
%LPD*%
%LPC*%
G36*
X478655Y206295D02*
X478655Y206295D01*
X476058Y207371D01*
X474729Y208700D01*
X474708Y208717D01*
X474690Y208738D01*
X474552Y208845D01*
X474417Y208955D01*
X474394Y208968D01*
X474372Y208984D01*
X474216Y209062D01*
X474061Y209144D01*
X474036Y209152D01*
X474012Y209164D01*
X473843Y209209D01*
X473676Y209259D01*
X473649Y209261D01*
X473623Y209268D01*
X473292Y209295D01*
X403051Y209295D01*
X401558Y209914D01*
X344351Y267120D01*
X344331Y267137D01*
X344313Y267158D01*
X344175Y267265D01*
X344040Y267375D01*
X344016Y267388D01*
X343995Y267404D01*
X343838Y267482D01*
X343684Y267564D01*
X343659Y267572D01*
X343634Y267584D01*
X343465Y267629D01*
X343298Y267679D01*
X343272Y267681D01*
X343246Y267688D01*
X342915Y267715D01*
X331888Y267715D01*
X331861Y267713D01*
X331834Y267715D01*
X331660Y267693D01*
X331487Y267675D01*
X331462Y267668D01*
X331435Y267664D01*
X331269Y267609D01*
X331102Y267557D01*
X331079Y267544D01*
X331053Y267536D01*
X330902Y267449D01*
X330748Y267365D01*
X330728Y267348D01*
X330704Y267335D01*
X330451Y267120D01*
X329122Y265791D01*
X326525Y264715D01*
X323715Y264715D01*
X321118Y265791D01*
X319131Y267778D01*
X318055Y270375D01*
X318055Y273185D01*
X319131Y275782D01*
X321118Y277769D01*
X323715Y278845D01*
X326525Y278845D01*
X329122Y277769D01*
X330451Y276440D01*
X330472Y276423D01*
X330490Y276402D01*
X330627Y276295D01*
X330763Y276185D01*
X330787Y276172D01*
X330808Y276156D01*
X330965Y276078D01*
X331119Y275996D01*
X331144Y275988D01*
X331168Y275976D01*
X331338Y275931D01*
X331504Y275881D01*
X331531Y275879D01*
X331557Y275872D01*
X331888Y275845D01*
X346249Y275845D01*
X347742Y275226D01*
X404949Y218020D01*
X404969Y218003D01*
X404987Y217982D01*
X405125Y217875D01*
X405260Y217765D01*
X405284Y217752D01*
X405305Y217736D01*
X405462Y217658D01*
X405616Y217576D01*
X405641Y217568D01*
X405666Y217556D01*
X405835Y217511D01*
X406002Y217461D01*
X406028Y217459D01*
X406054Y217452D01*
X406385Y217425D01*
X473292Y217425D01*
X473319Y217427D01*
X473346Y217425D01*
X473520Y217447D01*
X473693Y217465D01*
X473718Y217472D01*
X473745Y217476D01*
X473911Y217532D01*
X474078Y217583D01*
X474101Y217596D01*
X474127Y217604D01*
X474278Y217691D01*
X474432Y217775D01*
X474452Y217792D01*
X474476Y217805D01*
X474729Y218020D01*
X476058Y219349D01*
X478655Y220425D01*
X481465Y220425D01*
X484062Y219349D01*
X486049Y217362D01*
X487125Y214765D01*
X487125Y211955D01*
X486049Y209358D01*
X484062Y207371D01*
X481465Y206295D01*
X478655Y206295D01*
G37*
%LPD*%
%LPC*%
G36*
X493895Y218995D02*
X493895Y218995D01*
X491298Y220071D01*
X489311Y222058D01*
X488235Y224655D01*
X488235Y226535D01*
X488233Y226562D01*
X488235Y226588D01*
X488213Y226762D01*
X488195Y226936D01*
X488188Y226961D01*
X488184Y226988D01*
X488129Y227153D01*
X488077Y227320D01*
X488064Y227344D01*
X488056Y227369D01*
X487969Y227521D01*
X487885Y227675D01*
X487868Y227695D01*
X487855Y227718D01*
X487640Y227971D01*
X476431Y239180D01*
X476411Y239197D01*
X476393Y239218D01*
X476255Y239325D01*
X476120Y239435D01*
X476096Y239448D01*
X476075Y239464D01*
X475918Y239542D01*
X475764Y239624D01*
X475739Y239632D01*
X475714Y239644D01*
X475545Y239689D01*
X475378Y239739D01*
X475352Y239741D01*
X475326Y239748D01*
X474995Y239775D01*
X430948Y239775D01*
X430921Y239773D01*
X430894Y239775D01*
X430720Y239753D01*
X430547Y239735D01*
X430522Y239728D01*
X430495Y239724D01*
X430329Y239669D01*
X430162Y239617D01*
X430139Y239604D01*
X430113Y239596D01*
X429962Y239509D01*
X429808Y239425D01*
X429788Y239408D01*
X429764Y239395D01*
X429511Y239180D01*
X428182Y237851D01*
X425585Y236775D01*
X422775Y236775D01*
X420178Y237851D01*
X418191Y239838D01*
X417115Y242435D01*
X417115Y245245D01*
X418191Y247842D01*
X419357Y249008D01*
X419362Y249015D01*
X419369Y249020D01*
X419490Y249171D01*
X419612Y249319D01*
X419616Y249327D01*
X419622Y249334D01*
X419710Y249504D01*
X419800Y249675D01*
X419803Y249684D01*
X419807Y249691D01*
X419860Y249875D01*
X419915Y250061D01*
X419916Y250070D01*
X419918Y250078D01*
X419934Y250269D01*
X419952Y250462D01*
X419951Y250471D01*
X419951Y250480D01*
X419929Y250669D01*
X419908Y250862D01*
X419905Y250871D01*
X419904Y250879D01*
X419845Y251061D01*
X419787Y251246D01*
X419782Y251254D01*
X419780Y251262D01*
X419685Y251429D01*
X419592Y251598D01*
X419586Y251605D01*
X419582Y251613D01*
X419457Y251758D01*
X419331Y251905D01*
X419324Y251911D01*
X419319Y251918D01*
X419168Y252034D01*
X419015Y252155D01*
X419007Y252159D01*
X419000Y252164D01*
X418830Y252249D01*
X418657Y252337D01*
X418648Y252340D01*
X418640Y252344D01*
X418454Y252393D01*
X418269Y252445D01*
X418260Y252446D01*
X418251Y252448D01*
X417920Y252475D01*
X395388Y252475D01*
X395361Y252473D01*
X395334Y252475D01*
X395160Y252453D01*
X394987Y252435D01*
X394962Y252428D01*
X394935Y252424D01*
X394769Y252369D01*
X394602Y252317D01*
X394579Y252304D01*
X394553Y252296D01*
X394402Y252209D01*
X394248Y252125D01*
X394228Y252108D01*
X394204Y252095D01*
X393951Y251880D01*
X392622Y250551D01*
X390025Y249475D01*
X387215Y249475D01*
X384618Y250551D01*
X382631Y252538D01*
X381555Y255135D01*
X381555Y257945D01*
X382631Y260542D01*
X384618Y262529D01*
X387215Y263605D01*
X390025Y263605D01*
X392622Y262529D01*
X393951Y261200D01*
X393972Y261183D01*
X393990Y261162D01*
X394127Y261055D01*
X394263Y260945D01*
X394287Y260932D01*
X394308Y260916D01*
X394465Y260838D01*
X394619Y260756D01*
X394644Y260748D01*
X394668Y260736D01*
X394838Y260691D01*
X395004Y260641D01*
X395031Y260639D01*
X395057Y260632D01*
X395388Y260605D01*
X437732Y260605D01*
X437759Y260607D01*
X437786Y260605D01*
X437960Y260627D01*
X438133Y260645D01*
X438158Y260652D01*
X438185Y260656D01*
X438351Y260711D01*
X438518Y260763D01*
X438541Y260776D01*
X438567Y260784D01*
X438718Y260871D01*
X438872Y260955D01*
X438892Y260972D01*
X438916Y260985D01*
X439169Y261200D01*
X440498Y262529D01*
X443095Y263605D01*
X445905Y263605D01*
X448502Y262529D01*
X450489Y260542D01*
X451565Y257945D01*
X451565Y255135D01*
X450489Y252538D01*
X449323Y251372D01*
X449318Y251365D01*
X449311Y251360D01*
X449190Y251209D01*
X449068Y251061D01*
X449064Y251053D01*
X449058Y251046D01*
X448969Y250874D01*
X448880Y250705D01*
X448877Y250696D01*
X448873Y250689D01*
X448820Y250504D01*
X448765Y250319D01*
X448764Y250310D01*
X448762Y250302D01*
X448746Y250111D01*
X448728Y249918D01*
X448729Y249909D01*
X448729Y249900D01*
X448751Y249711D01*
X448772Y249518D01*
X448775Y249509D01*
X448776Y249501D01*
X448835Y249319D01*
X448893Y249134D01*
X448898Y249126D01*
X448900Y249118D01*
X448995Y248951D01*
X449088Y248782D01*
X449094Y248775D01*
X449098Y248767D01*
X449223Y248622D01*
X449349Y248475D01*
X449356Y248469D01*
X449361Y248462D01*
X449512Y248346D01*
X449665Y248225D01*
X449673Y248221D01*
X449680Y248216D01*
X449850Y248131D01*
X450023Y248043D01*
X450032Y248040D01*
X450040Y248036D01*
X450226Y247987D01*
X450411Y247935D01*
X450420Y247934D01*
X450429Y247932D01*
X450760Y247905D01*
X478329Y247905D01*
X479822Y247286D01*
X493389Y233720D01*
X493409Y233703D01*
X493427Y233682D01*
X493565Y233575D01*
X493700Y233465D01*
X493724Y233452D01*
X493745Y233436D01*
X493902Y233358D01*
X494056Y233276D01*
X494081Y233268D01*
X494106Y233256D01*
X494275Y233211D01*
X494442Y233161D01*
X494468Y233159D01*
X494494Y233152D01*
X494825Y233125D01*
X496705Y233125D01*
X499302Y232049D01*
X501338Y230013D01*
X501401Y229895D01*
X501404Y229891D01*
X501407Y229887D01*
X501531Y229738D01*
X501658Y229585D01*
X501661Y229582D01*
X501664Y229578D01*
X501815Y229457D01*
X501819Y229453D01*
X501814Y229378D01*
X501800Y229181D01*
X501800Y229177D01*
X501800Y229172D01*
X501825Y228983D01*
X501850Y228782D01*
X501852Y228777D01*
X501852Y228773D01*
X501954Y228457D01*
X502365Y227465D01*
X502365Y224655D01*
X501289Y222058D01*
X499302Y220071D01*
X496705Y218995D01*
X493895Y218995D01*
G37*
%LPD*%
%LPC*%
G36*
X302880Y170687D02*
X302880Y170687D01*
X299332Y172157D01*
X296617Y174872D01*
X295147Y178420D01*
X295147Y197500D01*
X296617Y201048D01*
X299332Y203763D01*
X299481Y203825D01*
X299501Y203835D01*
X299522Y203842D01*
X299678Y203931D01*
X299836Y204015D01*
X299853Y204029D01*
X299873Y204040D01*
X300008Y204157D01*
X300147Y204272D01*
X300161Y204289D01*
X300178Y204303D01*
X300287Y204445D01*
X300400Y204584D01*
X300411Y204604D01*
X300424Y204622D01*
X300504Y204782D01*
X300587Y204941D01*
X300594Y204962D01*
X300604Y204982D01*
X300650Y205155D01*
X300700Y205327D01*
X300702Y205349D01*
X300708Y205371D01*
X300735Y205702D01*
X300735Y273859D01*
X301354Y275352D01*
X318730Y292729D01*
X318747Y292749D01*
X318768Y292767D01*
X318875Y292905D01*
X318985Y293040D01*
X318998Y293064D01*
X319014Y293085D01*
X319092Y293242D01*
X319174Y293396D01*
X319182Y293421D01*
X319194Y293446D01*
X319239Y293614D01*
X319289Y293782D01*
X319291Y293808D01*
X319298Y293834D01*
X319325Y294165D01*
X319325Y296045D01*
X320401Y298642D01*
X322388Y300629D01*
X324985Y301705D01*
X327795Y301705D01*
X330392Y300629D01*
X332379Y298642D01*
X333455Y296045D01*
X333455Y293235D01*
X332379Y290638D01*
X330392Y288651D01*
X327795Y287575D01*
X325915Y287575D01*
X325888Y287573D01*
X325862Y287575D01*
X325688Y287553D01*
X325514Y287535D01*
X325489Y287528D01*
X325462Y287524D01*
X325297Y287469D01*
X325130Y287417D01*
X325106Y287404D01*
X325081Y287396D01*
X324929Y287309D01*
X324775Y287225D01*
X324755Y287208D01*
X324732Y287195D01*
X324479Y286980D01*
X309460Y271961D01*
X309443Y271941D01*
X309422Y271923D01*
X309315Y271785D01*
X309205Y271650D01*
X309192Y271626D01*
X309176Y271605D01*
X309098Y271448D01*
X309016Y271294D01*
X309008Y271269D01*
X308996Y271244D01*
X308951Y271075D01*
X308901Y270908D01*
X308899Y270882D01*
X308892Y270856D01*
X308865Y270525D01*
X308865Y205702D01*
X308867Y205679D01*
X308865Y205657D01*
X308887Y205480D01*
X308905Y205301D01*
X308911Y205280D01*
X308914Y205257D01*
X308970Y205088D01*
X309023Y204916D01*
X309033Y204896D01*
X309040Y204875D01*
X309129Y204720D01*
X309215Y204562D01*
X309229Y204545D01*
X309240Y204526D01*
X309357Y204391D01*
X309472Y204253D01*
X309490Y204239D01*
X309504Y204222D01*
X309646Y204113D01*
X309786Y204000D01*
X309806Y203990D01*
X309824Y203977D01*
X310119Y203825D01*
X310268Y203763D01*
X312983Y201048D01*
X314453Y197500D01*
X314453Y178420D01*
X312983Y174872D01*
X310268Y172157D01*
X306720Y170687D01*
X302880Y170687D01*
G37*
%LPD*%
%LPC*%
G36*
X879975Y231695D02*
X879975Y231695D01*
X877378Y232771D01*
X875391Y234758D01*
X874315Y237355D01*
X874315Y240165D01*
X875391Y242762D01*
X876720Y244091D01*
X876737Y244112D01*
X876758Y244130D01*
X876865Y244267D01*
X876975Y244403D01*
X876988Y244427D01*
X877004Y244448D01*
X877082Y244605D01*
X877164Y244759D01*
X877172Y244784D01*
X877184Y244808D01*
X877229Y244978D01*
X877279Y245144D01*
X877281Y245171D01*
X877288Y245197D01*
X877315Y245528D01*
X877315Y300809D01*
X877934Y302302D01*
X879363Y303732D01*
X907102Y331471D01*
X907119Y331491D01*
X907140Y331509D01*
X907247Y331647D01*
X907357Y331782D01*
X907370Y331806D01*
X907386Y331827D01*
X907464Y331984D01*
X907546Y332138D01*
X907554Y332163D01*
X907566Y332188D01*
X907611Y332357D01*
X907661Y332524D01*
X907663Y332550D01*
X907670Y332576D01*
X907697Y332907D01*
X907697Y348692D01*
X908888Y349883D01*
X930072Y349883D01*
X931263Y348692D01*
X931263Y327508D01*
X930072Y326317D01*
X914287Y326317D01*
X914260Y326315D01*
X914234Y326317D01*
X914060Y326295D01*
X913886Y326277D01*
X913861Y326270D01*
X913834Y326266D01*
X913669Y326211D01*
X913501Y326159D01*
X913478Y326146D01*
X913453Y326138D01*
X913301Y326051D01*
X913147Y325967D01*
X913127Y325950D01*
X913104Y325937D01*
X912851Y325722D01*
X886040Y298911D01*
X886023Y298891D01*
X886002Y298873D01*
X885895Y298735D01*
X885785Y298600D01*
X885772Y298576D01*
X885756Y298555D01*
X885678Y298398D01*
X885596Y298244D01*
X885588Y298219D01*
X885576Y298194D01*
X885531Y298025D01*
X885481Y297858D01*
X885479Y297832D01*
X885472Y297806D01*
X885445Y297475D01*
X885445Y245528D01*
X885447Y245501D01*
X885445Y245474D01*
X885467Y245300D01*
X885485Y245127D01*
X885492Y245102D01*
X885496Y245075D01*
X885551Y244909D01*
X885603Y244742D01*
X885616Y244719D01*
X885624Y244693D01*
X885711Y244542D01*
X885795Y244388D01*
X885812Y244368D01*
X885825Y244344D01*
X886040Y244091D01*
X887369Y242762D01*
X888445Y240165D01*
X888445Y237355D01*
X887369Y234758D01*
X885382Y232771D01*
X882785Y231695D01*
X879975Y231695D01*
G37*
%LPD*%
%LPC*%
G36*
X589313Y15987D02*
X589313Y15987D01*
X588122Y17178D01*
X588122Y48862D01*
X589313Y50053D01*
X620997Y50053D01*
X622188Y48862D01*
X622188Y17178D01*
X620997Y15987D01*
X589313Y15987D01*
G37*
%LPD*%
%LPC*%
G36*
X684563Y15987D02*
X684563Y15987D01*
X683372Y17178D01*
X683372Y48862D01*
X684563Y50053D01*
X716247Y50053D01*
X717438Y48862D01*
X717438Y17178D01*
X716247Y15987D01*
X684563Y15987D01*
G37*
%LPD*%
%LPC*%
G36*
X779813Y15987D02*
X779813Y15987D01*
X778622Y17178D01*
X778622Y48862D01*
X779813Y50053D01*
X811497Y50053D01*
X812688Y48862D01*
X812688Y17178D01*
X811497Y15987D01*
X779813Y15987D01*
G37*
%LPD*%
%LPC*%
G36*
X113063Y661147D02*
X113063Y661147D01*
X111872Y662338D01*
X111872Y694022D01*
X113063Y695213D01*
X144747Y695213D01*
X145938Y694022D01*
X145938Y662338D01*
X144747Y661147D01*
X113063Y661147D01*
G37*
%LPD*%
%LPC*%
G36*
X303563Y661147D02*
X303563Y661147D01*
X302372Y662338D01*
X302372Y694022D01*
X303563Y695213D01*
X335247Y695213D01*
X336438Y694022D01*
X336438Y662338D01*
X335247Y661147D01*
X303563Y661147D01*
G37*
%LPD*%
%LPC*%
G36*
X398813Y661147D02*
X398813Y661147D01*
X397622Y662338D01*
X397622Y694022D01*
X398813Y695213D01*
X430497Y695213D01*
X431688Y694022D01*
X431688Y662338D01*
X430497Y661147D01*
X398813Y661147D01*
G37*
%LPD*%
%LPC*%
G36*
X494063Y15987D02*
X494063Y15987D01*
X492872Y17178D01*
X492872Y48862D01*
X494063Y50053D01*
X525747Y50053D01*
X526938Y48862D01*
X526938Y17178D01*
X525747Y15987D01*
X494063Y15987D01*
G37*
%LPD*%
%LPC*%
G36*
X303563Y15987D02*
X303563Y15987D01*
X302372Y17178D01*
X302372Y48862D01*
X303563Y50053D01*
X335247Y50053D01*
X336438Y48862D01*
X336438Y17178D01*
X335247Y15987D01*
X303563Y15987D01*
G37*
%LPD*%
%LPC*%
G36*
X113063Y15987D02*
X113063Y15987D01*
X111872Y17178D01*
X111872Y48862D01*
X113063Y50053D01*
X144747Y50053D01*
X145938Y48862D01*
X145938Y17178D01*
X144747Y15987D01*
X113063Y15987D01*
G37*
%LPD*%
%LPC*%
G36*
X208313Y15987D02*
X208313Y15987D01*
X207122Y17178D01*
X207122Y48862D01*
X208313Y50053D01*
X239997Y50053D01*
X241188Y48862D01*
X241188Y17178D01*
X239997Y15987D01*
X208313Y15987D01*
G37*
%LPD*%
%LPC*%
G36*
X407535Y119935D02*
X407535Y119935D01*
X404938Y121011D01*
X402951Y122998D01*
X401875Y125595D01*
X401875Y128405D01*
X402951Y131002D01*
X404938Y132989D01*
X407535Y134065D01*
X409415Y134065D01*
X409442Y134067D01*
X409468Y134065D01*
X409642Y134087D01*
X409816Y134105D01*
X409841Y134112D01*
X409868Y134116D01*
X410033Y134171D01*
X410200Y134223D01*
X410224Y134236D01*
X410249Y134244D01*
X410401Y134331D01*
X410555Y134415D01*
X410575Y134432D01*
X410598Y134445D01*
X410851Y134660D01*
X429680Y153489D01*
X429697Y153509D01*
X429718Y153527D01*
X429825Y153665D01*
X429935Y153800D01*
X429948Y153824D01*
X429964Y153845D01*
X430042Y154002D01*
X430124Y154156D01*
X430132Y154181D01*
X430144Y154206D01*
X430189Y154375D01*
X430239Y154542D01*
X430241Y154568D01*
X430248Y154594D01*
X430275Y154925D01*
X430275Y168492D01*
X430273Y168519D01*
X430275Y168546D01*
X430253Y168720D01*
X430235Y168893D01*
X430228Y168918D01*
X430224Y168945D01*
X430169Y169111D01*
X430117Y169278D01*
X430104Y169301D01*
X430096Y169327D01*
X430009Y169478D01*
X429925Y169632D01*
X429908Y169652D01*
X429895Y169676D01*
X429680Y169929D01*
X428351Y171258D01*
X427275Y173855D01*
X427275Y176665D01*
X428351Y179262D01*
X430338Y181249D01*
X432935Y182325D01*
X435745Y182325D01*
X438342Y181249D01*
X440329Y179262D01*
X441405Y176665D01*
X441405Y173855D01*
X440329Y171258D01*
X439000Y169929D01*
X438983Y169908D01*
X438962Y169890D01*
X438855Y169753D01*
X438745Y169617D01*
X438732Y169593D01*
X438716Y169572D01*
X438638Y169415D01*
X438556Y169261D01*
X438548Y169236D01*
X438536Y169212D01*
X438491Y169042D01*
X438441Y168876D01*
X438439Y168849D01*
X438432Y168823D01*
X438405Y168492D01*
X438405Y151591D01*
X437786Y150098D01*
X416600Y128911D01*
X416583Y128891D01*
X416562Y128873D01*
X416455Y128735D01*
X416345Y128600D01*
X416332Y128576D01*
X416316Y128555D01*
X416238Y128398D01*
X416156Y128244D01*
X416148Y128219D01*
X416136Y128194D01*
X416091Y128025D01*
X416041Y127858D01*
X416039Y127832D01*
X416032Y127806D01*
X416005Y127475D01*
X416005Y125595D01*
X414929Y122998D01*
X412942Y121011D01*
X410345Y119935D01*
X407535Y119935D01*
G37*
%LPD*%
%LPC*%
G36*
X353680Y170687D02*
X353680Y170687D01*
X350132Y172157D01*
X347417Y174872D01*
X345947Y178420D01*
X345947Y197500D01*
X347417Y201048D01*
X350132Y203763D01*
X353680Y205233D01*
X357520Y205233D01*
X361068Y203763D01*
X363783Y201048D01*
X365253Y197500D01*
X365253Y178420D01*
X363783Y174872D01*
X361068Y172157D01*
X357520Y170687D01*
X353680Y170687D01*
G37*
%LPD*%
%LPC*%
G36*
X277480Y170687D02*
X277480Y170687D01*
X273932Y172157D01*
X271217Y174872D01*
X269747Y178420D01*
X269747Y197500D01*
X271217Y201048D01*
X273932Y203763D01*
X277480Y205233D01*
X281320Y205233D01*
X284868Y203763D01*
X287583Y201048D01*
X289053Y197500D01*
X289053Y178420D01*
X287583Y174872D01*
X284868Y172157D01*
X281320Y170687D01*
X277480Y170687D01*
G37*
%LPD*%
%LPC*%
G36*
X328280Y170687D02*
X328280Y170687D01*
X324732Y172157D01*
X322017Y174872D01*
X320547Y178420D01*
X320547Y197500D01*
X322017Y201048D01*
X324732Y203763D01*
X328280Y205233D01*
X332120Y205233D01*
X335668Y203763D01*
X338383Y201048D01*
X339853Y197500D01*
X339853Y178420D01*
X338383Y174872D01*
X335668Y172157D01*
X332120Y170687D01*
X328280Y170687D01*
G37*
%LPD*%
%LPC*%
G36*
X56500Y589787D02*
X56500Y589787D01*
X52952Y591257D01*
X50237Y593972D01*
X48767Y597520D01*
X48767Y616600D01*
X50237Y620148D01*
X52952Y622863D01*
X56500Y624333D01*
X60340Y624333D01*
X63888Y622863D01*
X66603Y620148D01*
X68073Y616600D01*
X68073Y597520D01*
X66603Y593972D01*
X63888Y591257D01*
X60340Y589787D01*
X56500Y589787D01*
G37*
%LPD*%
%LPC*%
G36*
X107300Y589787D02*
X107300Y589787D01*
X103752Y591257D01*
X101037Y593972D01*
X99567Y597520D01*
X99567Y616600D01*
X101037Y620148D01*
X103752Y622863D01*
X107300Y624333D01*
X111140Y624333D01*
X114688Y622863D01*
X117403Y620148D01*
X118873Y616600D01*
X118873Y597520D01*
X117403Y593972D01*
X114688Y591257D01*
X111140Y589787D01*
X107300Y589787D01*
G37*
%LPD*%
%LPC*%
G36*
X908888Y550977D02*
X908888Y550977D01*
X907697Y552168D01*
X907697Y573352D01*
X908888Y574543D01*
X930072Y574543D01*
X931263Y573352D01*
X931263Y552168D01*
X930072Y550977D01*
X908888Y550977D01*
G37*
%LPD*%
%LPC*%
G36*
X908888Y515977D02*
X908888Y515977D01*
X907697Y517168D01*
X907697Y538352D01*
X908888Y539543D01*
X930072Y539543D01*
X931263Y538352D01*
X931263Y517168D01*
X930072Y515977D01*
X908888Y515977D01*
G37*
%LPD*%
%LPC*%
G36*
X908888Y480977D02*
X908888Y480977D01*
X907697Y482168D01*
X907697Y503352D01*
X908888Y504543D01*
X930072Y504543D01*
X931263Y503352D01*
X931263Y482168D01*
X930072Y480977D01*
X908888Y480977D01*
G37*
%LPD*%
%LPC*%
G36*
X512969Y185587D02*
X512969Y185587D01*
X505627Y192929D01*
X505627Y203311D01*
X512969Y210653D01*
X523351Y210653D01*
X530693Y203311D01*
X530693Y192929D01*
X523351Y185587D01*
X512969Y185587D01*
G37*
%LPD*%
%LPC*%
G36*
X404995Y399335D02*
X404995Y399335D01*
X402398Y400411D01*
X400411Y402398D01*
X399335Y404995D01*
X399335Y407805D01*
X400411Y410402D01*
X401740Y411731D01*
X401757Y411752D01*
X401778Y411770D01*
X401885Y411907D01*
X401995Y412043D01*
X402008Y412067D01*
X402024Y412088D01*
X402102Y412245D01*
X402184Y412399D01*
X402192Y412424D01*
X402204Y412448D01*
X402249Y412618D01*
X402299Y412784D01*
X402301Y412811D01*
X402308Y412837D01*
X402335Y413168D01*
X402335Y437732D01*
X402333Y437759D01*
X402335Y437786D01*
X402313Y437960D01*
X402295Y438133D01*
X402288Y438158D01*
X402284Y438185D01*
X402229Y438351D01*
X402177Y438518D01*
X402164Y438541D01*
X402156Y438567D01*
X402069Y438718D01*
X401985Y438872D01*
X401968Y438892D01*
X401955Y438916D01*
X401740Y439169D01*
X400411Y440498D01*
X399335Y443095D01*
X399335Y445905D01*
X400411Y448502D01*
X402398Y450489D01*
X404995Y451565D01*
X407805Y451565D01*
X410402Y450489D01*
X412389Y448502D01*
X413465Y445905D01*
X413465Y443095D01*
X412389Y440498D01*
X411060Y439169D01*
X411043Y439148D01*
X411022Y439130D01*
X410915Y438993D01*
X410805Y438857D01*
X410792Y438833D01*
X410776Y438812D01*
X410698Y438655D01*
X410616Y438501D01*
X410608Y438476D01*
X410596Y438452D01*
X410551Y438282D01*
X410501Y438116D01*
X410499Y438089D01*
X410492Y438063D01*
X410465Y437732D01*
X410465Y413168D01*
X410467Y413141D01*
X410465Y413114D01*
X410487Y412940D01*
X410505Y412767D01*
X410512Y412742D01*
X410516Y412715D01*
X410571Y412549D01*
X410623Y412382D01*
X410636Y412359D01*
X410644Y412333D01*
X410731Y412182D01*
X410815Y412028D01*
X410832Y412008D01*
X410845Y411984D01*
X411060Y411731D01*
X412389Y410402D01*
X413465Y407805D01*
X413465Y404995D01*
X412389Y402398D01*
X410402Y400411D01*
X407805Y399335D01*
X404995Y399335D01*
G37*
%LPD*%
%LPC*%
G36*
X509135Y122475D02*
X509135Y122475D01*
X506538Y123551D01*
X505209Y124880D01*
X505188Y124897D01*
X505170Y124918D01*
X505033Y125025D01*
X504897Y125135D01*
X504873Y125148D01*
X504852Y125164D01*
X504695Y125242D01*
X504541Y125324D01*
X504516Y125332D01*
X504492Y125344D01*
X504322Y125389D01*
X504156Y125439D01*
X504129Y125441D01*
X504103Y125448D01*
X503772Y125475D01*
X486871Y125475D01*
X485378Y126094D01*
X479431Y132040D01*
X479411Y132057D01*
X479393Y132078D01*
X479255Y132185D01*
X479120Y132295D01*
X479096Y132308D01*
X479075Y132324D01*
X478918Y132402D01*
X478764Y132484D01*
X478739Y132492D01*
X478714Y132504D01*
X478545Y132549D01*
X478378Y132599D01*
X478352Y132601D01*
X478326Y132608D01*
X477995Y132635D01*
X476115Y132635D01*
X473518Y133711D01*
X471531Y135698D01*
X470455Y138295D01*
X470455Y141105D01*
X471531Y143702D01*
X473518Y145689D01*
X476115Y146765D01*
X478925Y146765D01*
X481522Y145689D01*
X483509Y143702D01*
X484585Y141105D01*
X484585Y139225D01*
X484587Y139198D01*
X484585Y139172D01*
X484607Y138998D01*
X484625Y138824D01*
X484632Y138799D01*
X484636Y138772D01*
X484691Y138607D01*
X484743Y138440D01*
X484756Y138416D01*
X484764Y138391D01*
X484851Y138239D01*
X484935Y138085D01*
X484952Y138065D01*
X484965Y138042D01*
X485180Y137789D01*
X488769Y134200D01*
X488789Y134183D01*
X488807Y134162D01*
X488945Y134055D01*
X489080Y133945D01*
X489104Y133932D01*
X489125Y133916D01*
X489282Y133838D01*
X489436Y133756D01*
X489461Y133748D01*
X489486Y133736D01*
X489655Y133691D01*
X489822Y133641D01*
X489848Y133639D01*
X489874Y133632D01*
X490205Y133605D01*
X503772Y133605D01*
X503799Y133607D01*
X503826Y133605D01*
X504000Y133627D01*
X504173Y133645D01*
X504198Y133652D01*
X504225Y133656D01*
X504391Y133711D01*
X504558Y133763D01*
X504581Y133776D01*
X504607Y133784D01*
X504758Y133871D01*
X504912Y133955D01*
X504932Y133972D01*
X504956Y133985D01*
X505209Y134200D01*
X506538Y135529D01*
X509135Y136605D01*
X511945Y136605D01*
X514542Y135529D01*
X516529Y133542D01*
X517605Y130945D01*
X517605Y128135D01*
X516529Y125538D01*
X514542Y123551D01*
X511945Y122475D01*
X509135Y122475D01*
G37*
%LPD*%
%LPC*%
G36*
X313555Y424735D02*
X313555Y424735D01*
X310958Y425811D01*
X308971Y427798D01*
X307895Y430395D01*
X307895Y432275D01*
X307893Y432302D01*
X307895Y432328D01*
X307873Y432502D01*
X307855Y432676D01*
X307848Y432701D01*
X307844Y432728D01*
X307789Y432893D01*
X307737Y433061D01*
X307724Y433084D01*
X307716Y433109D01*
X307629Y433261D01*
X307545Y433415D01*
X307528Y433435D01*
X307515Y433458D01*
X307300Y433711D01*
X291471Y449540D01*
X291451Y449557D01*
X291433Y449578D01*
X291295Y449685D01*
X291160Y449795D01*
X291136Y449808D01*
X291115Y449824D01*
X290958Y449902D01*
X290804Y449984D01*
X290779Y449992D01*
X290754Y450004D01*
X290585Y450049D01*
X290418Y450099D01*
X290392Y450101D01*
X290366Y450108D01*
X290035Y450135D01*
X288155Y450135D01*
X285558Y451211D01*
X283571Y453198D01*
X282495Y455795D01*
X282495Y458605D01*
X283571Y461202D01*
X285558Y463189D01*
X288155Y464265D01*
X290965Y464265D01*
X293562Y463189D01*
X295549Y461202D01*
X296625Y458605D01*
X296625Y456725D01*
X296627Y456698D01*
X296625Y456672D01*
X296647Y456498D01*
X296665Y456324D01*
X296672Y456299D01*
X296676Y456272D01*
X296732Y456106D01*
X296783Y455939D01*
X296796Y455916D01*
X296804Y455891D01*
X296891Y455739D01*
X296975Y455585D01*
X296992Y455565D01*
X297005Y455542D01*
X297220Y455289D01*
X313049Y439460D01*
X313069Y439443D01*
X313087Y439422D01*
X313225Y439315D01*
X313360Y439205D01*
X313384Y439192D01*
X313405Y439176D01*
X313562Y439098D01*
X313716Y439016D01*
X313741Y439008D01*
X313766Y438996D01*
X313935Y438951D01*
X314102Y438901D01*
X314128Y438899D01*
X314154Y438892D01*
X314485Y438865D01*
X316365Y438865D01*
X318962Y437789D01*
X320949Y435802D01*
X322025Y433205D01*
X322025Y430395D01*
X320949Y427798D01*
X318962Y425811D01*
X316365Y424735D01*
X313555Y424735D01*
G37*
%LPD*%
%LPC*%
G36*
X674235Y140255D02*
X674235Y140255D01*
X671638Y141331D01*
X669651Y143318D01*
X668575Y145915D01*
X668575Y148725D01*
X669651Y151322D01*
X671638Y153309D01*
X674235Y154385D01*
X677045Y154385D01*
X679642Y153309D01*
X680971Y151980D01*
X680992Y151963D01*
X681010Y151942D01*
X681147Y151835D01*
X681283Y151725D01*
X681307Y151712D01*
X681328Y151696D01*
X681485Y151618D01*
X681639Y151536D01*
X681664Y151528D01*
X681688Y151516D01*
X681858Y151471D01*
X682024Y151421D01*
X682051Y151419D01*
X682077Y151412D01*
X682408Y151385D01*
X701892Y151385D01*
X701919Y151387D01*
X701946Y151385D01*
X702120Y151407D01*
X702293Y151425D01*
X702318Y151432D01*
X702345Y151436D01*
X702511Y151491D01*
X702678Y151543D01*
X702701Y151556D01*
X702727Y151564D01*
X702878Y151651D01*
X703032Y151735D01*
X703052Y151752D01*
X703076Y151765D01*
X703329Y151980D01*
X704658Y153309D01*
X707255Y154385D01*
X710065Y154385D01*
X712662Y153309D01*
X714649Y151322D01*
X715725Y148725D01*
X715725Y145915D01*
X714649Y143318D01*
X712662Y141331D01*
X710065Y140255D01*
X707255Y140255D01*
X704658Y141331D01*
X703329Y142660D01*
X703308Y142677D01*
X703290Y142698D01*
X703153Y142805D01*
X703017Y142915D01*
X702993Y142928D01*
X702972Y142944D01*
X702815Y143022D01*
X702661Y143104D01*
X702636Y143112D01*
X702612Y143124D01*
X702442Y143169D01*
X702276Y143219D01*
X702249Y143221D01*
X702223Y143228D01*
X701892Y143255D01*
X682408Y143255D01*
X682381Y143253D01*
X682354Y143255D01*
X682180Y143233D01*
X682007Y143215D01*
X681982Y143208D01*
X681955Y143204D01*
X681789Y143149D01*
X681622Y143097D01*
X681599Y143084D01*
X681573Y143076D01*
X681422Y142989D01*
X681268Y142905D01*
X681248Y142888D01*
X681224Y142875D01*
X680971Y142660D01*
X679642Y141331D01*
X677045Y140255D01*
X674235Y140255D01*
G37*
%LPD*%
%LPC*%
G36*
X228218Y682243D02*
X228218Y682243D01*
X228218Y695721D01*
X239490Y695721D01*
X240136Y695548D01*
X240715Y695213D01*
X241188Y694740D01*
X241523Y694161D01*
X241696Y693515D01*
X241696Y682243D01*
X228218Y682243D01*
G37*
%LPD*%
%LPC*%
G36*
X418718Y37083D02*
X418718Y37083D01*
X418718Y50561D01*
X429990Y50561D01*
X430636Y50388D01*
X431215Y50053D01*
X431688Y49580D01*
X432023Y49001D01*
X432196Y48355D01*
X432196Y37083D01*
X418718Y37083D01*
G37*
%LPD*%
%LPC*%
G36*
X397114Y37083D02*
X397114Y37083D01*
X397114Y48355D01*
X397287Y49001D01*
X397622Y49580D01*
X398095Y50053D01*
X398674Y50388D01*
X399320Y50561D01*
X410592Y50561D01*
X410592Y37083D01*
X397114Y37083D01*
G37*
%LPD*%
%LPC*%
G36*
X418718Y15479D02*
X418718Y15479D01*
X418718Y28957D01*
X432196Y28957D01*
X432196Y17685D01*
X432023Y17039D01*
X431688Y16460D01*
X431215Y15987D01*
X430636Y15652D01*
X429990Y15479D01*
X418718Y15479D01*
G37*
%LPD*%
%LPC*%
G36*
X206614Y682243D02*
X206614Y682243D01*
X206614Y693515D01*
X206787Y694161D01*
X207122Y694740D01*
X207595Y695213D01*
X208174Y695548D01*
X208820Y695721D01*
X220092Y695721D01*
X220092Y682243D01*
X206614Y682243D01*
G37*
%LPD*%
%LPC*%
G36*
X228218Y660639D02*
X228218Y660639D01*
X228218Y674117D01*
X241696Y674117D01*
X241696Y662845D01*
X241523Y662199D01*
X241188Y661620D01*
X240715Y661147D01*
X240136Y660812D01*
X239490Y660639D01*
X228218Y660639D01*
G37*
%LPD*%
%LPC*%
G36*
X399320Y15479D02*
X399320Y15479D01*
X398674Y15652D01*
X398095Y15987D01*
X397622Y16460D01*
X397287Y17039D01*
X397114Y17685D01*
X397114Y28957D01*
X410592Y28957D01*
X410592Y15479D01*
X399320Y15479D01*
G37*
%LPD*%
%LPC*%
G36*
X208820Y660639D02*
X208820Y660639D01*
X208174Y660812D01*
X207595Y661147D01*
X207122Y661620D01*
X206787Y662199D01*
X206614Y662845D01*
X206614Y674117D01*
X220092Y674117D01*
X220092Y660639D01*
X208820Y660639D01*
G37*
%LPD*%
%LPC*%
G36*
X383539Y190499D02*
X383539Y190499D01*
X383539Y205439D01*
X384900Y204996D01*
X386325Y204270D01*
X387619Y203330D01*
X388750Y202199D01*
X389690Y200905D01*
X390416Y199480D01*
X390911Y197959D01*
X391161Y196380D01*
X391161Y190499D01*
X383539Y190499D01*
G37*
%LPD*%
%LPC*%
G36*
X383539Y185421D02*
X383539Y185421D01*
X391161Y185421D01*
X391161Y179540D01*
X390911Y177961D01*
X390416Y176440D01*
X389690Y175015D01*
X388750Y173721D01*
X387619Y172590D01*
X386325Y171650D01*
X384900Y170924D01*
X383539Y170481D01*
X383539Y185421D01*
G37*
%LPD*%
%LPC*%
G36*
X370839Y190499D02*
X370839Y190499D01*
X370839Y196380D01*
X371089Y197959D01*
X371584Y199480D01*
X372310Y200905D01*
X373250Y202199D01*
X374381Y203330D01*
X375675Y204270D01*
X377100Y204996D01*
X378461Y205439D01*
X378461Y190499D01*
X370839Y190499D01*
G37*
%LPD*%
%LPC*%
G36*
X377100Y170924D02*
X377100Y170924D01*
X375675Y171650D01*
X374381Y172590D01*
X373250Y173721D01*
X372310Y175015D01*
X371584Y176440D01*
X371089Y177961D01*
X370839Y179540D01*
X370839Y185421D01*
X378461Y185421D01*
X378461Y170481D01*
X377100Y170924D01*
G37*
%LPD*%
%LPC*%
G36*
X922729Y461009D02*
X922729Y461009D01*
X922729Y470051D01*
X929565Y470051D01*
X930211Y469878D01*
X930790Y469543D01*
X931263Y469070D01*
X931598Y468491D01*
X931771Y467845D01*
X931771Y461009D01*
X922729Y461009D01*
G37*
%LPD*%
%LPC*%
G36*
X922729Y426009D02*
X922729Y426009D01*
X922729Y435051D01*
X929565Y435051D01*
X930211Y434878D01*
X930790Y434543D01*
X931263Y434070D01*
X931598Y433491D01*
X931771Y432845D01*
X931771Y426009D01*
X922729Y426009D01*
G37*
%LPD*%
%LPC*%
G36*
X922729Y376349D02*
X922729Y376349D01*
X922729Y385391D01*
X929565Y385391D01*
X930211Y385218D01*
X930790Y384883D01*
X931263Y384410D01*
X931598Y383831D01*
X931771Y383185D01*
X931771Y376349D01*
X922729Y376349D01*
G37*
%LPD*%
%LPC*%
G36*
X907189Y151689D02*
X907189Y151689D01*
X907189Y158525D01*
X907362Y159171D01*
X907697Y159750D01*
X908170Y160223D01*
X908749Y160558D01*
X909395Y160731D01*
X916231Y160731D01*
X916231Y151689D01*
X907189Y151689D01*
G37*
%LPD*%
%LPC*%
G36*
X907189Y461009D02*
X907189Y461009D01*
X907189Y467845D01*
X907362Y468491D01*
X907697Y469070D01*
X908170Y469543D01*
X908749Y469878D01*
X909395Y470051D01*
X916231Y470051D01*
X916231Y461009D01*
X907189Y461009D01*
G37*
%LPD*%
%LPC*%
G36*
X907189Y186689D02*
X907189Y186689D01*
X907189Y193525D01*
X907362Y194171D01*
X907697Y194750D01*
X908170Y195223D01*
X908749Y195558D01*
X909395Y195731D01*
X916231Y195731D01*
X916231Y186689D01*
X907189Y186689D01*
G37*
%LPD*%
%LPC*%
G36*
X907189Y426009D02*
X907189Y426009D01*
X907189Y432845D01*
X907362Y433491D01*
X907697Y434070D01*
X908170Y434543D01*
X908749Y434878D01*
X909395Y435051D01*
X916231Y435051D01*
X916231Y426009D01*
X907189Y426009D01*
G37*
%LPD*%
%LPC*%
G36*
X907189Y376349D02*
X907189Y376349D01*
X907189Y383185D01*
X907362Y383831D01*
X907697Y384410D01*
X908170Y384883D01*
X908749Y385218D01*
X909395Y385391D01*
X916231Y385391D01*
X916231Y376349D01*
X907189Y376349D01*
G37*
%LPD*%
%LPC*%
G36*
X922729Y410469D02*
X922729Y410469D01*
X922729Y419511D01*
X931771Y419511D01*
X931771Y412675D01*
X931598Y412029D01*
X931263Y411450D01*
X930790Y410977D01*
X930211Y410642D01*
X929565Y410469D01*
X922729Y410469D01*
G37*
%LPD*%
%LPC*%
G36*
X922729Y360809D02*
X922729Y360809D01*
X922729Y369851D01*
X931771Y369851D01*
X931771Y363015D01*
X931598Y362369D01*
X931263Y361790D01*
X930790Y361317D01*
X930211Y360982D01*
X929565Y360809D01*
X922729Y360809D01*
G37*
%LPD*%
%LPC*%
G36*
X922729Y445469D02*
X922729Y445469D01*
X922729Y454511D01*
X931771Y454511D01*
X931771Y447675D01*
X931598Y447029D01*
X931263Y446450D01*
X930790Y445977D01*
X930211Y445642D01*
X929565Y445469D01*
X922729Y445469D01*
G37*
%LPD*%
%LPC*%
G36*
X909395Y136149D02*
X909395Y136149D01*
X908749Y136322D01*
X908170Y136657D01*
X907697Y137130D01*
X907362Y137709D01*
X907189Y138355D01*
X907189Y145191D01*
X916231Y145191D01*
X916231Y136149D01*
X909395Y136149D01*
G37*
%LPD*%
%LPC*%
G36*
X909395Y360809D02*
X909395Y360809D01*
X908749Y360982D01*
X908170Y361317D01*
X907697Y361790D01*
X907362Y362369D01*
X907189Y363015D01*
X907189Y369851D01*
X916231Y369851D01*
X916231Y360809D01*
X909395Y360809D01*
G37*
%LPD*%
%LPC*%
G36*
X909395Y445469D02*
X909395Y445469D01*
X908749Y445642D01*
X908170Y445977D01*
X907697Y446450D01*
X907362Y447029D01*
X907189Y447675D01*
X907189Y454511D01*
X916231Y454511D01*
X916231Y445469D01*
X909395Y445469D01*
G37*
%LPD*%
%LPC*%
G36*
X909395Y410469D02*
X909395Y410469D01*
X908749Y410642D01*
X908170Y410977D01*
X907697Y411450D01*
X907362Y412029D01*
X907189Y412675D01*
X907189Y419511D01*
X916231Y419511D01*
X916231Y410469D01*
X909395Y410469D01*
G37*
%LPD*%
%LPC*%
G36*
X909395Y171149D02*
X909395Y171149D01*
X908749Y171322D01*
X908170Y171657D01*
X907697Y172130D01*
X907362Y172709D01*
X907189Y173355D01*
X907189Y180191D01*
X916231Y180191D01*
X916231Y171149D01*
X909395Y171149D01*
G37*
%LPD*%
%LPC*%
G36*
X512758Y223179D02*
X512758Y223179D01*
X505267Y230671D01*
X505263Y230674D01*
X505260Y230677D01*
X505107Y230802D01*
X505101Y230806D01*
X505119Y231027D01*
X505119Y232721D01*
X514661Y232721D01*
X514661Y223179D01*
X512758Y223179D01*
G37*
%LPD*%
%LPC*%
G36*
X521659Y239719D02*
X521659Y239719D01*
X521659Y249261D01*
X523562Y249261D01*
X531201Y241622D01*
X531201Y239719D01*
X521659Y239719D01*
G37*
%LPD*%
%LPC*%
G36*
X521659Y223179D02*
X521659Y223179D01*
X521659Y232721D01*
X531201Y232721D01*
X531201Y230818D01*
X523562Y223179D01*
X521659Y223179D01*
G37*
%LPD*%
%LPC*%
G36*
X505119Y239719D02*
X505119Y239719D01*
X505119Y241622D01*
X512758Y249261D01*
X514661Y249261D01*
X514661Y239719D01*
X505119Y239719D01*
G37*
%LPD*%
%LPC*%
G36*
X414654Y33019D02*
X414654Y33019D01*
X414654Y33021D01*
X414656Y33021D01*
X414656Y33019D01*
X414654Y33019D01*
G37*
%LPD*%
%LPC*%
G36*
X224154Y678179D02*
X224154Y678179D01*
X224154Y678181D01*
X224156Y678181D01*
X224156Y678179D01*
X224154Y678179D01*
G37*
%LPD*%
D10*
X518160Y350520D03*
X518160Y312420D03*
X518160Y236220D03*
X518160Y198120D03*
D11*
X516890Y584200D03*
X783590Y584200D03*
X516890Y431800D03*
X783590Y431800D03*
D12*
X109220Y599440D02*
X109220Y614680D01*
X58420Y614680D02*
X58420Y599440D01*
X381000Y195580D02*
X381000Y180340D01*
X355600Y180340D02*
X355600Y195580D01*
X330200Y195580D02*
X330200Y180340D01*
X304800Y180340D02*
X304800Y195580D01*
X279400Y195580D02*
X279400Y180340D01*
D13*
X128905Y678180D03*
X224155Y678180D03*
X319405Y678180D03*
X414655Y678180D03*
X509905Y678180D03*
X605155Y678180D03*
X700405Y678180D03*
X795655Y678180D03*
X795655Y33020D03*
X700405Y33020D03*
X605155Y33020D03*
X509905Y33020D03*
X414655Y33020D03*
X319405Y33020D03*
X224155Y33020D03*
X128905Y33020D03*
D14*
X919480Y562760D03*
X919480Y527760D03*
X919480Y492760D03*
X919480Y457760D03*
X919480Y422760D03*
X919480Y288440D03*
X919480Y253440D03*
X919480Y218440D03*
X919480Y183440D03*
X919480Y148440D03*
X919480Y373100D03*
X919480Y338100D03*
D15*
X223520Y452120D03*
X401320Y548640D03*
X285750Y297180D03*
X232410Y214630D03*
X360680Y234950D03*
X388620Y271780D03*
X376560Y360200D03*
X223520Y83820D03*
X314960Y144780D03*
X129540Y83820D03*
X695960Y121920D03*
X787400Y121920D03*
X467360Y223520D03*
X167640Y393700D03*
X270510Y411480D03*
X457200Y365760D03*
X430530Y467360D03*
X363220Y464820D03*
X492760Y119380D03*
X586740Y119380D03*
X320040Y83820D03*
X224790Y561340D03*
D16*
X424180Y243840D02*
X477520Y243840D01*
X495300Y226060D01*
D15*
X424180Y243840D03*
X495300Y226060D03*
D17*
X518160Y350520D02*
X518160Y430530D01*
X516890Y431800D01*
X516890Y584200D01*
D16*
X220980Y378460D02*
X220980Y307340D01*
X220980Y378460D02*
X205740Y393700D01*
D15*
X220980Y307340D03*
X205740Y393700D03*
D17*
X605155Y358775D02*
X605155Y678180D01*
X605155Y358775D02*
X558800Y312420D01*
X518160Y312420D01*
X700405Y643255D02*
X700405Y678180D01*
X700405Y643255D02*
X759460Y584200D01*
X783590Y584200D01*
X783590Y431800D01*
D16*
X345440Y271780D02*
X325120Y271780D01*
X345440Y271780D02*
X403860Y213360D01*
X480060Y213360D01*
D15*
X325120Y271780D03*
X480060Y213360D03*
D18*
X546100Y66040D02*
X83820Y66040D01*
X546100Y66040D02*
X640080Y66040D01*
X739140Y66040D01*
X830580Y66040D01*
D15*
X83820Y66040D03*
X830580Y66040D03*
X739140Y66040D03*
X546100Y66040D03*
X640080Y66040D03*
D16*
X675640Y147320D02*
X708660Y147320D01*
D15*
X675640Y147320D03*
X708660Y147320D03*
D18*
X899160Y83820D02*
X370840Y83820D01*
X899160Y83820D02*
X939800Y124460D01*
D16*
X434340Y152400D02*
X408940Y127000D01*
X434340Y152400D02*
X434340Y175260D01*
D18*
X939800Y124460D02*
X939800Y268120D01*
X919480Y288440D01*
D15*
X370840Y83820D03*
X408940Y127000D03*
X434340Y175260D03*
D16*
X287020Y259080D02*
X228600Y317500D01*
X228600Y386080D01*
X220980Y393700D01*
D15*
X220980Y393700D03*
X287020Y259080D03*
D16*
X388620Y256540D02*
X444500Y256540D01*
D15*
X388620Y256540D03*
X444500Y256540D03*
D16*
X326390Y294640D02*
X304800Y273050D01*
X304800Y187960D01*
X487680Y129540D02*
X510540Y129540D01*
X487680Y129540D02*
X477520Y139700D01*
D15*
X326390Y294640D03*
X510540Y129540D03*
X477520Y139700D03*
D16*
X314960Y431800D02*
X289560Y457200D01*
D15*
X314960Y431800D03*
X289560Y457200D03*
D16*
X881380Y300000D02*
X919480Y338100D01*
X881380Y300000D02*
X881380Y238760D01*
D15*
X881380Y238760D03*
D16*
X406400Y406400D02*
X406400Y444500D01*
D15*
X406400Y444500D03*
X406400Y406400D03*
M02*
