G04 EAGLE Gerber RS-274X export*
G75*
%MOMM*%
%FSLAX34Y34*%
%LPD*%
%IN*%
%IPPOS*%
%AMOC8*
5,1,8,0,0,1.08239X$1,22.5*%
G01*
%ADD10C,0.254000*%


D10*
X0Y33020D02*
X126Y30142D01*
X502Y27286D01*
X1125Y24474D01*
X1991Y21727D01*
X3094Y19065D01*
X4424Y16510D01*
X5972Y14081D01*
X7725Y11795D01*
X9671Y9671D01*
X11795Y7725D01*
X14081Y5972D01*
X16510Y4424D01*
X19065Y3094D01*
X21727Y1991D01*
X24474Y1125D01*
X27286Y502D01*
X30142Y126D01*
X33020Y0D01*
X922020Y0D01*
X924898Y126D01*
X927754Y502D01*
X930566Y1125D01*
X933314Y1991D01*
X935975Y3094D01*
X938530Y4424D01*
X940960Y5972D01*
X943245Y7725D01*
X945369Y9671D01*
X947315Y11795D01*
X949068Y14081D01*
X950616Y16510D01*
X951946Y19065D01*
X953049Y21727D01*
X953915Y24474D01*
X954538Y27286D01*
X954914Y30142D01*
X955040Y33020D01*
X955040Y678180D01*
X954914Y681058D01*
X954538Y683914D01*
X953915Y686726D01*
X953049Y689474D01*
X951946Y692135D01*
X950616Y694690D01*
X949068Y697120D01*
X947315Y699405D01*
X945369Y701529D01*
X943245Y703475D01*
X940960Y705228D01*
X938530Y706776D01*
X935975Y708106D01*
X933314Y709209D01*
X930566Y710075D01*
X927754Y710698D01*
X924898Y711074D01*
X922020Y711200D01*
X33020Y711200D01*
X30142Y711074D01*
X27286Y710698D01*
X24474Y710075D01*
X21727Y709209D01*
X19065Y708106D01*
X16510Y706776D01*
X14081Y705228D01*
X11795Y703475D01*
X9671Y701529D01*
X7725Y699405D01*
X5972Y697120D01*
X4424Y694690D01*
X3094Y692135D01*
X1991Y689474D01*
X1125Y686726D01*
X502Y683914D01*
X126Y681058D01*
X0Y678180D01*
X0Y33020D01*
X48655Y677644D02*
X48579Y676576D01*
X48426Y675515D01*
X48198Y674468D01*
X47896Y673440D01*
X47522Y672436D01*
X47077Y671461D01*
X46563Y670521D01*
X45984Y669620D01*
X45342Y668762D01*
X44640Y667952D01*
X43883Y667195D01*
X43073Y666493D01*
X42215Y665851D01*
X41314Y665272D01*
X40374Y664758D01*
X39399Y664313D01*
X38395Y663939D01*
X37367Y663637D01*
X36320Y663409D01*
X35259Y663256D01*
X34191Y663180D01*
X33119Y663180D01*
X32051Y663256D01*
X30990Y663409D01*
X29943Y663637D01*
X28915Y663939D01*
X27911Y664313D01*
X26936Y664758D01*
X25996Y665272D01*
X25095Y665851D01*
X24237Y666493D01*
X23427Y667195D01*
X22670Y667952D01*
X21968Y668762D01*
X21326Y669620D01*
X20747Y670521D01*
X20233Y671461D01*
X19788Y672436D01*
X19414Y673440D01*
X19112Y674468D01*
X18884Y675515D01*
X18731Y676576D01*
X18655Y677644D01*
X18655Y678716D01*
X18731Y679784D01*
X18884Y680845D01*
X19112Y681892D01*
X19414Y682920D01*
X19788Y683924D01*
X20233Y684899D01*
X20747Y685839D01*
X21326Y686740D01*
X21968Y687598D01*
X22670Y688408D01*
X23427Y689165D01*
X24237Y689867D01*
X25095Y690509D01*
X25996Y691088D01*
X26936Y691602D01*
X27911Y692047D01*
X28915Y692421D01*
X29943Y692723D01*
X30990Y692951D01*
X32051Y693104D01*
X33119Y693180D01*
X34191Y693180D01*
X35259Y693104D01*
X36320Y692951D01*
X37367Y692723D01*
X38395Y692421D01*
X39399Y692047D01*
X40374Y691602D01*
X41314Y691088D01*
X42215Y690509D01*
X43073Y689867D01*
X43883Y689165D01*
X44640Y688408D01*
X45342Y687598D01*
X45984Y686740D01*
X46563Y685839D01*
X47077Y684899D01*
X47522Y683924D01*
X47896Y682920D01*
X48198Y681892D01*
X48426Y680845D01*
X48579Y679784D01*
X48655Y678716D01*
X48655Y677644D01*
X905905Y677644D02*
X905829Y676576D01*
X905676Y675515D01*
X905448Y674468D01*
X905146Y673440D01*
X904772Y672436D01*
X904327Y671461D01*
X903813Y670521D01*
X903234Y669620D01*
X902592Y668762D01*
X901890Y667952D01*
X901133Y667195D01*
X900323Y666493D01*
X899465Y665851D01*
X898564Y665272D01*
X897624Y664758D01*
X896649Y664313D01*
X895645Y663939D01*
X894617Y663637D01*
X893570Y663409D01*
X892509Y663256D01*
X891441Y663180D01*
X890369Y663180D01*
X889301Y663256D01*
X888240Y663409D01*
X887193Y663637D01*
X886165Y663939D01*
X885161Y664313D01*
X884186Y664758D01*
X883246Y665272D01*
X882345Y665851D01*
X881487Y666493D01*
X880677Y667195D01*
X879920Y667952D01*
X879218Y668762D01*
X878576Y669620D01*
X877997Y670521D01*
X877483Y671461D01*
X877038Y672436D01*
X876664Y673440D01*
X876362Y674468D01*
X876134Y675515D01*
X875981Y676576D01*
X875905Y677644D01*
X875905Y678716D01*
X875981Y679784D01*
X876134Y680845D01*
X876362Y681892D01*
X876664Y682920D01*
X877038Y683924D01*
X877483Y684899D01*
X877997Y685839D01*
X878576Y686740D01*
X879218Y687598D01*
X879920Y688408D01*
X880677Y689165D01*
X881487Y689867D01*
X882345Y690509D01*
X883246Y691088D01*
X884186Y691602D01*
X885161Y692047D01*
X886165Y692421D01*
X887193Y692723D01*
X888240Y692951D01*
X889301Y693104D01*
X890369Y693180D01*
X891441Y693180D01*
X892509Y693104D01*
X893570Y692951D01*
X894617Y692723D01*
X895645Y692421D01*
X896649Y692047D01*
X897624Y691602D01*
X898564Y691088D01*
X899465Y690509D01*
X900323Y689867D01*
X901133Y689165D01*
X901890Y688408D01*
X902592Y687598D01*
X903234Y686740D01*
X903813Y685839D01*
X904327Y684899D01*
X904772Y683924D01*
X905146Y682920D01*
X905448Y681892D01*
X905676Y680845D01*
X905829Y679784D01*
X905905Y678716D01*
X905905Y677644D01*
X875905Y33556D02*
X875981Y34624D01*
X876134Y35685D01*
X876362Y36732D01*
X876664Y37760D01*
X877038Y38764D01*
X877483Y39739D01*
X877997Y40679D01*
X878576Y41580D01*
X879218Y42438D01*
X879920Y43248D01*
X880677Y44005D01*
X881487Y44707D01*
X882345Y45349D01*
X883246Y45928D01*
X884186Y46442D01*
X885161Y46887D01*
X886165Y47261D01*
X887193Y47563D01*
X888240Y47791D01*
X889301Y47944D01*
X890369Y48020D01*
X891441Y48020D01*
X892509Y47944D01*
X893570Y47791D01*
X894617Y47563D01*
X895645Y47261D01*
X896649Y46887D01*
X897624Y46442D01*
X898564Y45928D01*
X899465Y45349D01*
X900323Y44707D01*
X901133Y44005D01*
X901890Y43248D01*
X902592Y42438D01*
X903234Y41580D01*
X903813Y40679D01*
X904327Y39739D01*
X904772Y38764D01*
X905146Y37760D01*
X905448Y36732D01*
X905676Y35685D01*
X905829Y34624D01*
X905905Y33556D01*
X905905Y32484D01*
X905829Y31416D01*
X905676Y30355D01*
X905448Y29308D01*
X905146Y28280D01*
X904772Y27276D01*
X904327Y26301D01*
X903813Y25361D01*
X903234Y24460D01*
X902592Y23602D01*
X901890Y22792D01*
X901133Y22035D01*
X900323Y21333D01*
X899465Y20691D01*
X898564Y20112D01*
X897624Y19598D01*
X896649Y19153D01*
X895645Y18779D01*
X894617Y18477D01*
X893570Y18249D01*
X892509Y18096D01*
X891441Y18020D01*
X890369Y18020D01*
X889301Y18096D01*
X888240Y18249D01*
X887193Y18477D01*
X886165Y18779D01*
X885161Y19153D01*
X884186Y19598D01*
X883246Y20112D01*
X882345Y20691D01*
X881487Y21333D01*
X880677Y22035D01*
X879920Y22792D01*
X879218Y23602D01*
X878576Y24460D01*
X877997Y25361D01*
X877483Y26301D01*
X877038Y27276D01*
X876664Y28280D01*
X876362Y29308D01*
X876134Y30355D01*
X875981Y31416D01*
X875905Y32484D01*
X875905Y33556D01*
X18655Y33556D02*
X18731Y34624D01*
X18884Y35685D01*
X19112Y36732D01*
X19414Y37760D01*
X19788Y38764D01*
X20233Y39739D01*
X20747Y40679D01*
X21326Y41580D01*
X21968Y42438D01*
X22670Y43248D01*
X23427Y44005D01*
X24237Y44707D01*
X25095Y45349D01*
X25996Y45928D01*
X26936Y46442D01*
X27911Y46887D01*
X28915Y47261D01*
X29943Y47563D01*
X30990Y47791D01*
X32051Y47944D01*
X33119Y48020D01*
X34191Y48020D01*
X35259Y47944D01*
X36320Y47791D01*
X37367Y47563D01*
X38395Y47261D01*
X39399Y46887D01*
X40374Y46442D01*
X41314Y45928D01*
X42215Y45349D01*
X43073Y44707D01*
X43883Y44005D01*
X44640Y43248D01*
X45342Y42438D01*
X45984Y41580D01*
X46563Y40679D01*
X47077Y39739D01*
X47522Y38764D01*
X47896Y37760D01*
X48198Y36732D01*
X48426Y35685D01*
X48579Y34624D01*
X48655Y33556D01*
X48655Y32484D01*
X48579Y31416D01*
X48426Y30355D01*
X48198Y29308D01*
X47896Y28280D01*
X47522Y27276D01*
X47077Y26301D01*
X46563Y25361D01*
X45984Y24460D01*
X45342Y23602D01*
X44640Y22792D01*
X43883Y22035D01*
X43073Y21333D01*
X42215Y20691D01*
X41314Y20112D01*
X40374Y19598D01*
X39399Y19153D01*
X38395Y18779D01*
X37367Y18477D01*
X36320Y18249D01*
X35259Y18096D01*
X34191Y18020D01*
X33119Y18020D01*
X32051Y18096D01*
X30990Y18249D01*
X29943Y18477D01*
X28915Y18779D01*
X27911Y19153D01*
X26936Y19598D01*
X25996Y20112D01*
X25095Y20691D01*
X24237Y21333D01*
X23427Y22035D01*
X22670Y22792D01*
X21968Y23602D01*
X21326Y24460D01*
X20747Y25361D01*
X20233Y26301D01*
X19788Y27276D01*
X19414Y28280D01*
X19112Y29308D01*
X18884Y30355D01*
X18731Y31416D01*
X18655Y32484D01*
X18655Y33556D01*
M02*
