G04 EAGLE Gerber RS-274X export*
G75*
%MOMM*%
%FSLAX34Y34*%
%LPD*%
%INSilkscreen Top*%
%IPPOS*%
%AMOC8*
5,1,8,0,0,1.08239X$1,22.5*%
G01*
%ADD10C,0.254000*%
%ADD11C,0.127000*%
%ADD12C,0.101600*%
%ADD13C,0.152400*%
%ADD14C,0.177800*%
%ADD15R,1.168400X0.812800*%
%ADD16C,0.076200*%
%ADD17C,0.203200*%
%ADD18C,0.364000*%
%ADD19R,1.250000X6.200000*%


D10*
X134620Y581660D02*
X134620Y444500D01*
X33020Y444500D01*
X33020Y581660D02*
X134620Y581660D01*
X33020Y581660D02*
X33020Y444500D01*
D11*
X31546Y114947D02*
X22225Y114947D01*
X31546Y114947D02*
X31546Y112617D01*
X22225Y103295D01*
X22225Y100965D01*
X31546Y100965D01*
X36258Y114947D02*
X45579Y114947D01*
X36258Y114947D02*
X36258Y100965D01*
X45579Y100965D01*
X40918Y107956D02*
X36258Y107956D01*
X50291Y105626D02*
X50291Y114947D01*
X50291Y105626D02*
X54951Y100965D01*
X59612Y105626D01*
X59612Y114947D01*
X64323Y110286D02*
X64323Y100965D01*
X64323Y110286D02*
X68984Y114947D01*
X73645Y110286D01*
X73645Y100965D01*
X73645Y107956D02*
X64323Y107956D01*
X92389Y114947D02*
X101710Y114947D01*
X92389Y114947D02*
X92389Y100965D01*
X101710Y100965D01*
X97050Y107956D02*
X92389Y107956D01*
X106422Y105626D02*
X106422Y114947D01*
X106422Y105626D02*
X111082Y100965D01*
X115743Y105626D01*
X115743Y114947D01*
X120454Y114947D02*
X120454Y100965D01*
X125115Y110286D02*
X120454Y114947D01*
X125115Y110286D02*
X129776Y114947D01*
X129776Y100965D01*
X141478Y114947D02*
X143809Y112617D01*
X141478Y114947D02*
X136818Y114947D01*
X134487Y112617D01*
X134487Y110286D01*
X136818Y107956D01*
X141478Y107956D01*
X143809Y105626D01*
X143809Y103295D01*
X141478Y100965D01*
X136818Y100965D01*
X134487Y103295D01*
X162553Y105626D02*
X162553Y114947D01*
X162553Y105626D02*
X167213Y100965D01*
X171874Y105626D01*
X171874Y114947D01*
X176586Y112617D02*
X178916Y114947D01*
X183577Y114947D01*
X185907Y112617D01*
X185907Y110286D01*
X183577Y107956D01*
X181246Y107956D01*
X183577Y107956D02*
X185907Y105626D01*
X185907Y103295D01*
X183577Y100965D01*
X178916Y100965D01*
X176586Y103295D01*
X190618Y103295D02*
X190618Y100965D01*
X190618Y103295D02*
X192949Y103295D01*
X192949Y100965D01*
X190618Y100965D01*
X197635Y110286D02*
X202295Y114947D01*
X202295Y100965D01*
X197635Y100965D02*
X206956Y100965D01*
X225700Y105626D02*
X230361Y100965D01*
X225700Y105626D02*
X225700Y110286D01*
X230361Y114947D01*
X237386Y114947D02*
X242046Y114947D01*
X237386Y114947D02*
X235056Y112617D01*
X235056Y103295D01*
X237386Y100965D01*
X242046Y100965D01*
X244377Y103295D01*
X244377Y112617D01*
X242046Y114947D01*
X256079Y114947D02*
X258410Y112617D01*
X256079Y114947D02*
X251419Y114947D01*
X249088Y112617D01*
X249088Y110286D01*
X251419Y107956D01*
X256079Y107956D01*
X258410Y105626D01*
X258410Y103295D01*
X256079Y100965D01*
X251419Y100965D01*
X249088Y103295D01*
X277154Y114947D02*
X286475Y114947D01*
X277154Y114947D02*
X277154Y100965D01*
X286475Y100965D01*
X281814Y107956D02*
X277154Y107956D01*
X300508Y114947D02*
X300508Y100965D01*
X293517Y100965D01*
X291187Y103295D01*
X291187Y107956D01*
X293517Y110286D01*
X300508Y110286D01*
X305219Y110286D02*
X307550Y110286D01*
X307550Y100965D01*
X309880Y100965D02*
X305219Y100965D01*
X307550Y114947D02*
X307550Y117277D01*
X316905Y112617D02*
X316905Y103295D01*
X319235Y100965D01*
X319235Y110286D02*
X314575Y110286D01*
X323930Y110286D02*
X326260Y110286D01*
X326260Y100965D01*
X323930Y100965D02*
X328590Y100965D01*
X326260Y114947D02*
X326260Y117277D01*
X335615Y100965D02*
X340276Y100965D01*
X342606Y103295D01*
X342606Y107956D01*
X340276Y110286D01*
X335615Y110286D01*
X333285Y107956D01*
X333285Y103295D01*
X335615Y100965D01*
X347318Y100965D02*
X347318Y110286D01*
X354309Y110286D01*
X356639Y107956D01*
X356639Y100965D01*
X361351Y100965D02*
X366011Y105626D01*
X366011Y110286D01*
X361351Y114947D01*
D12*
X371524Y165193D02*
X369575Y167142D01*
X365677Y167142D01*
X363728Y165193D01*
X363728Y157397D01*
X365677Y155448D01*
X369575Y155448D01*
X371524Y157397D01*
X371524Y161295D01*
X367626Y161295D01*
X375422Y155448D02*
X375422Y167142D01*
X383218Y155448D01*
X383218Y167142D01*
X387116Y167142D02*
X387116Y155448D01*
X392963Y155448D01*
X394912Y157397D01*
X394912Y165193D01*
X392963Y167142D01*
X387116Y167142D01*
D13*
X670820Y493270D02*
X700530Y493270D01*
X700530Y522730D02*
X670820Y522730D01*
D12*
X677896Y488452D02*
X677896Y476758D01*
X677896Y488452D02*
X683743Y488452D01*
X685692Y486503D01*
X685692Y482605D01*
X683743Y480656D01*
X677896Y480656D01*
X681794Y480656D02*
X685692Y476758D01*
X689590Y484554D02*
X693488Y488452D01*
X693488Y476758D01*
X689590Y476758D02*
X697386Y476758D01*
X701284Y486503D02*
X703233Y488452D01*
X707131Y488452D01*
X709080Y486503D01*
X709080Y484554D01*
X707131Y482605D01*
X709080Y480656D01*
X709080Y478707D01*
X707131Y476758D01*
X703233Y476758D01*
X701284Y478707D01*
X701284Y480656D01*
X703233Y482605D01*
X701284Y484554D01*
X701284Y486503D01*
X703233Y482605D02*
X707131Y482605D01*
X420878Y221752D02*
X420878Y210058D01*
X420878Y221752D02*
X426725Y221752D01*
X428674Y219803D01*
X428674Y215905D01*
X426725Y213956D01*
X420878Y213956D01*
X424776Y213956D02*
X428674Y210058D01*
X432572Y219803D02*
X434521Y221752D01*
X438419Y221752D01*
X440368Y219803D01*
X440368Y217854D01*
X438419Y215905D01*
X436470Y215905D01*
X438419Y215905D02*
X440368Y213956D01*
X440368Y212007D01*
X438419Y210058D01*
X434521Y210058D01*
X432572Y212007D01*
X177038Y585978D02*
X177038Y597672D01*
X182885Y597672D01*
X184834Y595723D01*
X184834Y591825D01*
X182885Y589876D01*
X177038Y589876D01*
X180936Y589876D02*
X184834Y585978D01*
X188732Y585978D02*
X196528Y585978D01*
X188732Y585978D02*
X196528Y593774D01*
X196528Y595723D01*
X194579Y597672D01*
X190681Y597672D01*
X188732Y595723D01*
X200426Y595723D02*
X200426Y587927D01*
X200426Y595723D02*
X202375Y597672D01*
X206273Y597672D01*
X208222Y595723D01*
X208222Y587927D01*
X206273Y585978D01*
X202375Y585978D01*
X200426Y587927D01*
X208222Y595723D01*
X184155Y551952D02*
X186104Y550003D01*
X184155Y551952D02*
X180257Y551952D01*
X178308Y550003D01*
X178308Y542207D01*
X180257Y540258D01*
X184155Y540258D01*
X186104Y542207D01*
X190002Y542207D02*
X191951Y540258D01*
X195849Y540258D01*
X197798Y542207D01*
X197798Y550003D01*
X195849Y551952D01*
X191951Y551952D01*
X190002Y550003D01*
X190002Y548054D01*
X191951Y546105D01*
X197798Y546105D01*
X177038Y501152D02*
X177038Y489458D01*
X177038Y501152D02*
X182885Y501152D01*
X184834Y499203D01*
X184834Y495305D01*
X182885Y493356D01*
X177038Y493356D01*
X180936Y493356D02*
X184834Y489458D01*
X188732Y499203D02*
X190681Y501152D01*
X194579Y501152D01*
X196528Y499203D01*
X196528Y497254D01*
X194579Y495305D01*
X196528Y493356D01*
X196528Y491407D01*
X194579Y489458D01*
X190681Y489458D01*
X188732Y491407D01*
X188732Y493356D01*
X190681Y495305D01*
X188732Y497254D01*
X188732Y499203D01*
X190681Y495305D02*
X194579Y495305D01*
X184155Y475752D02*
X186104Y473803D01*
X184155Y475752D02*
X180257Y475752D01*
X178308Y473803D01*
X178308Y466007D01*
X180257Y464058D01*
X184155Y464058D01*
X186104Y466007D01*
X195849Y464058D02*
X195849Y475752D01*
X190002Y469905D01*
X197798Y469905D01*
D11*
X822960Y375920D02*
X822960Y172720D01*
X556260Y172720D01*
X556260Y191770D01*
X556260Y204470D01*
X556260Y229870D01*
X556260Y242570D01*
X556260Y306070D01*
X556260Y318770D01*
X556260Y344170D01*
X556260Y356870D01*
X556260Y375920D01*
X822960Y375920D01*
X556260Y356870D02*
X518160Y356870D01*
X518160Y344170D01*
X556260Y344170D01*
X556260Y318770D02*
X518160Y318770D01*
X518160Y306070D01*
X556260Y306070D01*
X556260Y242570D02*
X518160Y242570D01*
X518160Y229870D01*
X556260Y229870D01*
X556260Y204470D02*
X518160Y204470D01*
X518160Y191770D01*
X556260Y191770D01*
D12*
X683758Y236917D02*
X685707Y238866D01*
X683758Y236917D02*
X683758Y233019D01*
X685707Y231070D01*
X693503Y231070D01*
X695452Y233019D01*
X695452Y236917D01*
X693503Y238866D01*
X695452Y242764D02*
X683758Y242764D01*
X683758Y248611D01*
X685707Y250560D01*
X689605Y250560D01*
X691554Y248611D01*
X691554Y242764D01*
X683758Y260305D02*
X685707Y262254D01*
X683758Y260305D02*
X683758Y256407D01*
X685707Y254458D01*
X693503Y254458D01*
X695452Y256407D01*
X695452Y260305D01*
X693503Y262254D01*
X687656Y266152D02*
X683758Y270050D01*
X695452Y270050D01*
X695452Y266152D02*
X695452Y273948D01*
X683758Y277846D02*
X683758Y285642D01*
X685707Y285642D01*
X693503Y277846D01*
X695452Y277846D01*
X695452Y289540D02*
X695452Y297336D01*
X695452Y289540D02*
X687656Y297336D01*
X685707Y297336D01*
X683758Y295387D01*
X683758Y291489D01*
X685707Y289540D01*
X683758Y301234D02*
X683758Y309030D01*
X685707Y309030D01*
X693503Y301234D01*
X695452Y301234D01*
X798058Y328646D02*
X807803Y328646D01*
X809752Y330595D01*
X809752Y334493D01*
X807803Y336442D01*
X798058Y336442D01*
X807803Y340340D02*
X809752Y342289D01*
X809752Y346187D01*
X807803Y348136D01*
X805854Y348136D01*
X803905Y346187D01*
X803905Y342289D01*
X801956Y340340D01*
X800007Y340340D01*
X798058Y342289D01*
X798058Y346187D01*
X800007Y348136D01*
X796109Y344238D02*
X811701Y344238D01*
X800007Y352034D02*
X798058Y353983D01*
X798058Y357881D01*
X800007Y359830D01*
X801956Y359830D01*
X803905Y357881D01*
X803905Y355932D01*
X803905Y357881D02*
X805854Y359830D01*
X807803Y359830D01*
X809752Y357881D01*
X809752Y353983D01*
X807803Y352034D01*
X408178Y580898D02*
X408178Y592592D01*
X414025Y592592D01*
X415974Y590643D01*
X415974Y586745D01*
X414025Y584796D01*
X408178Y584796D01*
X412076Y584796D02*
X415974Y580898D01*
X425719Y580898D02*
X425719Y592592D01*
X419872Y586745D01*
X427668Y586745D01*
X357378Y580898D02*
X357378Y592592D01*
X363225Y592592D01*
X365174Y590643D01*
X365174Y586745D01*
X363225Y584796D01*
X357378Y584796D01*
X361276Y584796D02*
X365174Y580898D01*
X369072Y588694D02*
X372970Y592592D01*
X372970Y580898D01*
X369072Y580898D02*
X376868Y580898D01*
X380766Y592592D02*
X388562Y592592D01*
X380766Y592592D02*
X380766Y586745D01*
X384664Y588694D01*
X386613Y588694D01*
X388562Y586745D01*
X388562Y582847D01*
X386613Y580898D01*
X382715Y580898D01*
X380766Y582847D01*
X384614Y490728D02*
X388512Y490728D01*
X386563Y490728D02*
X386563Y502422D01*
X384614Y502422D02*
X388512Y502422D01*
X398257Y502422D02*
X400206Y500473D01*
X398257Y502422D02*
X394359Y502422D01*
X392410Y500473D01*
X392410Y492677D01*
X394359Y490728D01*
X398257Y490728D01*
X400206Y492677D01*
X409951Y490728D02*
X409951Y502422D01*
X404104Y496575D01*
X411900Y496575D01*
X375636Y478292D02*
X375636Y466598D01*
X375636Y478292D02*
X381483Y478292D01*
X383432Y476343D01*
X383432Y472445D01*
X381483Y470496D01*
X375636Y470496D01*
X379534Y470496D02*
X383432Y466598D01*
X387330Y476343D02*
X389279Y478292D01*
X393177Y478292D01*
X395126Y476343D01*
X395126Y474394D01*
X393177Y472445D01*
X391228Y472445D01*
X393177Y472445D02*
X395126Y470496D01*
X395126Y468547D01*
X393177Y466598D01*
X389279Y466598D01*
X387330Y468547D01*
X399024Y478292D02*
X406820Y478292D01*
X399024Y478292D02*
X399024Y472445D01*
X402922Y474394D01*
X404871Y474394D01*
X406820Y472445D01*
X406820Y468547D01*
X404871Y466598D01*
X400973Y466598D01*
X399024Y468547D01*
X366522Y507716D02*
X354828Y507716D01*
X354828Y513563D01*
X356777Y515512D01*
X360675Y515512D01*
X362624Y513563D01*
X362624Y507716D01*
X362624Y511614D02*
X366522Y515512D01*
X356777Y519410D02*
X354828Y521359D01*
X354828Y525257D01*
X356777Y527206D01*
X358726Y527206D01*
X360675Y525257D01*
X360675Y523308D01*
X360675Y525257D02*
X362624Y527206D01*
X364573Y527206D01*
X366522Y525257D01*
X366522Y521359D01*
X364573Y519410D01*
X356777Y535002D02*
X354828Y538900D01*
X356777Y535002D02*
X360675Y531104D01*
X364573Y531104D01*
X366522Y533053D01*
X366522Y536951D01*
X364573Y538900D01*
X362624Y538900D01*
X360675Y536951D01*
X360675Y531104D01*
X366522Y454376D02*
X354828Y454376D01*
X354828Y460223D01*
X356777Y462172D01*
X360675Y462172D01*
X362624Y460223D01*
X362624Y454376D01*
X362624Y458274D02*
X366522Y462172D01*
X356777Y466070D02*
X354828Y468019D01*
X354828Y471917D01*
X356777Y473866D01*
X358726Y473866D01*
X360675Y471917D01*
X360675Y469968D01*
X360675Y471917D02*
X362624Y473866D01*
X364573Y473866D01*
X366522Y471917D01*
X366522Y468019D01*
X364573Y466070D01*
X354828Y477764D02*
X354828Y485560D01*
X356777Y485560D01*
X364573Y477764D01*
X366522Y477764D01*
X299436Y545338D02*
X299436Y557032D01*
X305283Y557032D01*
X307232Y555083D01*
X307232Y551185D01*
X305283Y549236D01*
X299436Y549236D01*
X303334Y549236D02*
X307232Y545338D01*
X311130Y555083D02*
X313079Y557032D01*
X316977Y557032D01*
X318926Y555083D01*
X318926Y553134D01*
X316977Y551185D01*
X315028Y551185D01*
X316977Y551185D02*
X318926Y549236D01*
X318926Y547287D01*
X316977Y545338D01*
X313079Y545338D01*
X311130Y547287D01*
X322824Y555083D02*
X324773Y557032D01*
X328671Y557032D01*
X330620Y555083D01*
X330620Y553134D01*
X328671Y551185D01*
X330620Y549236D01*
X330620Y547287D01*
X328671Y545338D01*
X324773Y545338D01*
X322824Y547287D01*
X322824Y549236D01*
X324773Y551185D01*
X322824Y553134D01*
X322824Y555083D01*
X324773Y551185D02*
X328671Y551185D01*
X333917Y514242D02*
X331968Y512293D01*
X331968Y508395D01*
X333917Y506446D01*
X341713Y506446D01*
X343662Y508395D01*
X343662Y512293D01*
X341713Y514242D01*
X335866Y518140D02*
X331968Y522038D01*
X343662Y522038D01*
X343662Y518140D02*
X343662Y525936D01*
X341713Y529834D02*
X343662Y531783D01*
X343662Y535681D01*
X341713Y537630D01*
X333917Y537630D01*
X331968Y535681D01*
X331968Y531783D01*
X333917Y529834D01*
X335866Y529834D01*
X337815Y531783D01*
X337815Y537630D01*
X298357Y470584D02*
X296408Y468635D01*
X296408Y464737D01*
X298357Y462788D01*
X306153Y462788D01*
X308102Y464737D01*
X308102Y468635D01*
X306153Y470584D01*
X308102Y474482D02*
X308102Y482278D01*
X308102Y474482D02*
X300306Y482278D01*
X298357Y482278D01*
X296408Y480329D01*
X296408Y476431D01*
X298357Y474482D01*
X298357Y486176D02*
X306153Y486176D01*
X298357Y486176D02*
X296408Y488125D01*
X296408Y492023D01*
X298357Y493972D01*
X306153Y493972D01*
X308102Y492023D01*
X308102Y488125D01*
X306153Y486176D01*
X298357Y493972D01*
X734558Y82266D02*
X746252Y82266D01*
X734558Y82266D02*
X734558Y88113D01*
X736507Y90062D01*
X740405Y90062D01*
X742354Y88113D01*
X742354Y82266D01*
X742354Y86164D02*
X746252Y90062D01*
X736507Y93960D02*
X734558Y95909D01*
X734558Y99807D01*
X736507Y101756D01*
X738456Y101756D01*
X740405Y99807D01*
X740405Y97858D01*
X740405Y99807D02*
X742354Y101756D01*
X744303Y101756D01*
X746252Y99807D01*
X746252Y95909D01*
X744303Y93960D01*
X746252Y111501D02*
X734558Y111501D01*
X740405Y105654D01*
X740405Y113450D01*
D11*
X679800Y110520D02*
X679800Y82520D01*
X679800Y110520D02*
X691800Y110520D01*
X691800Y82520D01*
X679800Y82520D01*
D12*
X670276Y76972D02*
X670276Y67227D01*
X672225Y65278D01*
X676123Y65278D01*
X678072Y67227D01*
X678072Y76972D01*
X681970Y67227D02*
X683919Y65278D01*
X687817Y65278D01*
X689766Y67227D01*
X689766Y69176D01*
X687817Y71125D01*
X683919Y71125D01*
X681970Y73074D01*
X681970Y75023D01*
X683919Y76972D01*
X687817Y76972D01*
X689766Y75023D01*
X685868Y78921D02*
X685868Y63329D01*
X693664Y76972D02*
X701460Y76972D01*
X701460Y75023D01*
X693664Y67227D01*
X693664Y65278D01*
X825998Y82266D02*
X837692Y82266D01*
X825998Y82266D02*
X825998Y88113D01*
X827947Y90062D01*
X831845Y90062D01*
X833794Y88113D01*
X833794Y82266D01*
X833794Y86164D02*
X837692Y90062D01*
X827947Y93960D02*
X825998Y95909D01*
X825998Y99807D01*
X827947Y101756D01*
X829896Y101756D01*
X831845Y99807D01*
X831845Y97858D01*
X831845Y99807D02*
X833794Y101756D01*
X835743Y101756D01*
X837692Y99807D01*
X837692Y95909D01*
X835743Y93960D01*
X835743Y105654D02*
X837692Y107603D01*
X837692Y111501D01*
X835743Y113450D01*
X827947Y113450D01*
X825998Y111501D01*
X825998Y107603D01*
X827947Y105654D01*
X829896Y105654D01*
X831845Y107603D01*
X831845Y113450D01*
D11*
X771240Y110520D02*
X771240Y82520D01*
X771240Y110520D02*
X783240Y110520D01*
X783240Y82520D01*
X771240Y82520D01*
D12*
X761716Y76972D02*
X761716Y67227D01*
X763665Y65278D01*
X767563Y65278D01*
X769512Y67227D01*
X769512Y76972D01*
X773410Y67227D02*
X775359Y65278D01*
X779257Y65278D01*
X781206Y67227D01*
X781206Y69176D01*
X779257Y71125D01*
X775359Y71125D01*
X773410Y73074D01*
X773410Y75023D01*
X775359Y76972D01*
X779257Y76972D01*
X781206Y75023D01*
X777308Y78921D02*
X777308Y63329D01*
X785104Y67227D02*
X787053Y65278D01*
X790951Y65278D01*
X792900Y67227D01*
X792900Y75023D01*
X790951Y76972D01*
X787053Y76972D01*
X785104Y75023D01*
X785104Y73074D01*
X787053Y71125D01*
X792900Y71125D01*
X421356Y387858D02*
X421356Y399552D01*
X427203Y399552D01*
X429152Y397603D01*
X429152Y393705D01*
X427203Y391756D01*
X421356Y391756D01*
X425254Y391756D02*
X429152Y387858D01*
X433050Y387858D02*
X440846Y387858D01*
X433050Y387858D02*
X440846Y395654D01*
X440846Y397603D01*
X438897Y399552D01*
X434999Y399552D01*
X433050Y397603D01*
X450591Y399552D02*
X450591Y387858D01*
X444744Y393705D02*
X450591Y399552D01*
X452540Y393705D02*
X444744Y393705D01*
X425933Y374152D02*
X427882Y372203D01*
X425933Y374152D02*
X422035Y374152D01*
X420086Y372203D01*
X420086Y364407D01*
X422035Y362458D01*
X425933Y362458D01*
X427882Y364407D01*
X431780Y370254D02*
X435678Y374152D01*
X435678Y362458D01*
X431780Y362458D02*
X439576Y362458D01*
X449321Y362458D02*
X449321Y374152D01*
X443474Y368305D01*
X451270Y368305D01*
X864850Y181112D02*
X864850Y169418D01*
X864850Y181112D02*
X870697Y181112D01*
X872646Y179163D01*
X872646Y175265D01*
X870697Y173316D01*
X864850Y173316D01*
X868748Y173316D02*
X872646Y169418D01*
X876544Y169418D02*
X884340Y169418D01*
X876544Y169418D02*
X884340Y177214D01*
X884340Y179163D01*
X882391Y181112D01*
X878493Y181112D01*
X876544Y179163D01*
X869364Y189323D02*
X867415Y191272D01*
X863517Y191272D01*
X861568Y189323D01*
X861568Y181527D01*
X863517Y179578D01*
X867415Y179578D01*
X869364Y181527D01*
X873262Y189323D02*
X875211Y191272D01*
X879109Y191272D01*
X881058Y189323D01*
X881058Y187374D01*
X879109Y185425D01*
X881058Y183476D01*
X881058Y181527D01*
X879109Y179578D01*
X875211Y179578D01*
X873262Y181527D01*
X873262Y183476D01*
X875211Y185425D01*
X873262Y187374D01*
X873262Y189323D01*
X875211Y185425D02*
X879109Y185425D01*
X853156Y194818D02*
X853156Y206512D01*
X859003Y206512D01*
X860952Y204563D01*
X860952Y200665D01*
X859003Y198716D01*
X853156Y198716D01*
X857054Y198716D02*
X860952Y194818D01*
X864850Y194818D02*
X872646Y194818D01*
X864850Y194818D02*
X872646Y202614D01*
X872646Y204563D01*
X870697Y206512D01*
X866799Y206512D01*
X864850Y204563D01*
X876544Y206512D02*
X884340Y206512D01*
X876544Y206512D02*
X876544Y200665D01*
X880442Y202614D01*
X882391Y202614D01*
X884340Y200665D01*
X884340Y196767D01*
X882391Y194818D01*
X878493Y194818D01*
X876544Y196767D01*
D13*
X751840Y552450D02*
X548640Y552450D01*
X548640Y615950D02*
X751840Y615950D01*
X548640Y615950D02*
X548640Y552450D01*
X751840Y552450D02*
X751840Y615950D01*
D14*
X704857Y578245D02*
X704857Y562229D01*
X696849Y570237D02*
X704857Y578245D01*
X707526Y570237D02*
X696849Y570237D01*
X713221Y578245D02*
X713221Y562229D01*
X718559Y567568D01*
X723898Y562229D01*
X723898Y578245D01*
X707526Y590169D02*
X696849Y590169D01*
X707526Y600846D01*
X707526Y603515D01*
X704857Y606185D01*
X699518Y606185D01*
X696849Y603515D01*
X713221Y603515D02*
X713221Y592838D01*
X713221Y603515D02*
X715890Y606185D01*
X721228Y606185D01*
X723898Y603515D01*
X723898Y592838D01*
X721228Y590169D01*
X715890Y590169D01*
X713221Y592838D01*
X723898Y603515D01*
X734931Y603515D02*
X740269Y606185D01*
X734931Y603515D02*
X729592Y598177D01*
X729592Y592838D01*
X732261Y590169D01*
X737600Y590169D01*
X740269Y592838D01*
X740269Y595508D01*
X737600Y598177D01*
X729592Y598177D01*
D15*
X542798Y584200D03*
X757682Y584200D03*
D14*
X559689Y590169D02*
X559689Y606185D01*
X567697Y606185D01*
X570366Y603515D01*
X570366Y598177D01*
X567697Y595508D01*
X559689Y595508D01*
X565028Y595508D02*
X570366Y590169D01*
X576061Y590169D02*
X586738Y590169D01*
X576061Y590169D02*
X586738Y600846D01*
X586738Y603515D01*
X584068Y606185D01*
X578730Y606185D01*
X576061Y603515D01*
X597771Y603515D02*
X603109Y606185D01*
X597771Y603515D02*
X592432Y598177D01*
X592432Y592838D01*
X595101Y590169D01*
X600440Y590169D01*
X603109Y592838D01*
X603109Y595508D01*
X600440Y598177D01*
X592432Y598177D01*
D13*
X548640Y400050D02*
X751840Y400050D01*
X751840Y463550D02*
X548640Y463550D01*
X548640Y400050D01*
X751840Y400050D02*
X751840Y463550D01*
D14*
X704857Y425845D02*
X704857Y409829D01*
X696849Y417837D02*
X704857Y425845D01*
X707526Y417837D02*
X696849Y417837D01*
X713221Y425845D02*
X713221Y409829D01*
X718559Y415168D01*
X723898Y409829D01*
X723898Y425845D01*
X707526Y437769D02*
X696849Y437769D01*
X707526Y448446D01*
X707526Y451115D01*
X704857Y453785D01*
X699518Y453785D01*
X696849Y451115D01*
X713221Y451115D02*
X713221Y440438D01*
X713221Y451115D02*
X715890Y453785D01*
X721228Y453785D01*
X723898Y451115D01*
X723898Y440438D01*
X721228Y437769D01*
X715890Y437769D01*
X713221Y440438D01*
X723898Y451115D01*
X734931Y451115D02*
X740269Y453785D01*
X734931Y451115D02*
X729592Y445777D01*
X729592Y440438D01*
X732261Y437769D01*
X737600Y437769D01*
X740269Y440438D01*
X740269Y443108D01*
X737600Y445777D01*
X729592Y445777D01*
D15*
X542798Y431800D03*
X757682Y431800D03*
D14*
X559689Y437769D02*
X559689Y453785D01*
X567697Y453785D01*
X570366Y451115D01*
X570366Y445777D01*
X567697Y443108D01*
X559689Y443108D01*
X565028Y443108D02*
X570366Y437769D01*
X584068Y437769D02*
X584068Y453785D01*
X576061Y445777D01*
X586738Y445777D01*
X592432Y451115D02*
X592432Y440438D01*
X592432Y451115D02*
X595101Y453785D01*
X600440Y453785D01*
X603109Y451115D01*
X603109Y440438D01*
X600440Y437769D01*
X595101Y437769D01*
X592432Y440438D01*
X603109Y451115D01*
D12*
X812028Y634238D02*
X823722Y634238D01*
X812028Y634238D02*
X812028Y640085D01*
X813977Y642034D01*
X817875Y642034D01*
X819824Y640085D01*
X819824Y634238D01*
X819824Y638136D02*
X823722Y642034D01*
X815926Y645932D02*
X812028Y649830D01*
X823722Y649830D01*
X823722Y645932D02*
X823722Y653728D01*
X793242Y494538D02*
X781548Y494538D01*
X781548Y500385D01*
X783497Y502334D01*
X787395Y502334D01*
X789344Y500385D01*
X789344Y494538D01*
X789344Y498436D02*
X793242Y502334D01*
X785446Y506232D02*
X781548Y510130D01*
X793242Y510130D01*
X793242Y506232D02*
X793242Y514028D01*
X781548Y517926D02*
X781548Y525722D01*
X783497Y525722D01*
X791293Y517926D01*
X793242Y517926D01*
D13*
X46990Y586740D02*
X46832Y586742D01*
X46673Y586748D01*
X46515Y586758D01*
X46358Y586772D01*
X46200Y586789D01*
X46044Y586811D01*
X45887Y586836D01*
X45732Y586866D01*
X45577Y586899D01*
X45423Y586936D01*
X45270Y586977D01*
X45118Y587022D01*
X44968Y587071D01*
X44818Y587123D01*
X44670Y587179D01*
X44523Y587239D01*
X44378Y587302D01*
X44235Y587369D01*
X44093Y587439D01*
X43953Y587513D01*
X43815Y587591D01*
X43679Y587672D01*
X43545Y587756D01*
X43413Y587843D01*
X43283Y587934D01*
X43156Y588028D01*
X43031Y588125D01*
X42908Y588226D01*
X42788Y588329D01*
X42671Y588435D01*
X42556Y588544D01*
X42444Y588656D01*
X42335Y588771D01*
X42229Y588888D01*
X42126Y589008D01*
X42025Y589131D01*
X41928Y589256D01*
X41834Y589383D01*
X41743Y589513D01*
X41656Y589645D01*
X41572Y589779D01*
X41491Y589915D01*
X41413Y590053D01*
X41339Y590193D01*
X41269Y590335D01*
X41202Y590478D01*
X41139Y590623D01*
X41079Y590770D01*
X41023Y590918D01*
X40971Y591068D01*
X40922Y591218D01*
X40877Y591370D01*
X40836Y591523D01*
X40799Y591677D01*
X40766Y591832D01*
X40736Y591987D01*
X40711Y592144D01*
X40689Y592300D01*
X40672Y592458D01*
X40658Y592615D01*
X40648Y592773D01*
X40642Y592932D01*
X40640Y593090D01*
X40640Y621030D02*
X40642Y621188D01*
X40648Y621347D01*
X40658Y621505D01*
X40672Y621662D01*
X40689Y621820D01*
X40711Y621976D01*
X40736Y622133D01*
X40766Y622288D01*
X40799Y622443D01*
X40836Y622597D01*
X40877Y622750D01*
X40922Y622902D01*
X40971Y623052D01*
X41023Y623202D01*
X41079Y623350D01*
X41139Y623497D01*
X41202Y623642D01*
X41269Y623785D01*
X41339Y623927D01*
X41413Y624067D01*
X41491Y624205D01*
X41572Y624341D01*
X41656Y624475D01*
X41743Y624607D01*
X41834Y624737D01*
X41928Y624864D01*
X42025Y624989D01*
X42126Y625112D01*
X42229Y625232D01*
X42335Y625349D01*
X42444Y625464D01*
X42556Y625576D01*
X42671Y625685D01*
X42788Y625791D01*
X42908Y625894D01*
X43031Y625995D01*
X43156Y626092D01*
X43283Y626186D01*
X43413Y626277D01*
X43545Y626364D01*
X43679Y626448D01*
X43815Y626529D01*
X43953Y626607D01*
X44093Y626681D01*
X44235Y626751D01*
X44378Y626818D01*
X44523Y626881D01*
X44670Y626941D01*
X44818Y626997D01*
X44968Y627049D01*
X45118Y627098D01*
X45270Y627143D01*
X45423Y627184D01*
X45577Y627221D01*
X45732Y627254D01*
X45887Y627284D01*
X46044Y627309D01*
X46200Y627331D01*
X46358Y627348D01*
X46515Y627362D01*
X46673Y627372D01*
X46832Y627378D01*
X46990Y627380D01*
X120650Y627380D02*
X120808Y627378D01*
X120967Y627372D01*
X121125Y627362D01*
X121282Y627348D01*
X121440Y627331D01*
X121596Y627309D01*
X121753Y627284D01*
X121908Y627254D01*
X122063Y627221D01*
X122217Y627184D01*
X122370Y627143D01*
X122522Y627098D01*
X122672Y627049D01*
X122822Y626997D01*
X122970Y626941D01*
X123117Y626881D01*
X123262Y626818D01*
X123405Y626751D01*
X123547Y626681D01*
X123687Y626607D01*
X123825Y626529D01*
X123961Y626448D01*
X124095Y626364D01*
X124227Y626277D01*
X124357Y626186D01*
X124484Y626092D01*
X124609Y625995D01*
X124732Y625894D01*
X124852Y625791D01*
X124969Y625685D01*
X125084Y625576D01*
X125196Y625464D01*
X125305Y625349D01*
X125411Y625232D01*
X125514Y625112D01*
X125615Y624989D01*
X125712Y624864D01*
X125806Y624737D01*
X125897Y624607D01*
X125984Y624475D01*
X126068Y624341D01*
X126149Y624205D01*
X126227Y624067D01*
X126301Y623927D01*
X126371Y623785D01*
X126438Y623642D01*
X126501Y623497D01*
X126561Y623350D01*
X126617Y623202D01*
X126669Y623052D01*
X126718Y622902D01*
X126763Y622750D01*
X126804Y622597D01*
X126841Y622443D01*
X126874Y622288D01*
X126904Y622133D01*
X126929Y621976D01*
X126951Y621820D01*
X126968Y621662D01*
X126982Y621505D01*
X126992Y621347D01*
X126998Y621188D01*
X127000Y621030D01*
X127000Y593090D02*
X126998Y592932D01*
X126992Y592773D01*
X126982Y592615D01*
X126968Y592458D01*
X126951Y592300D01*
X126929Y592144D01*
X126904Y591987D01*
X126874Y591832D01*
X126841Y591677D01*
X126804Y591523D01*
X126763Y591370D01*
X126718Y591218D01*
X126669Y591068D01*
X126617Y590918D01*
X126561Y590770D01*
X126501Y590623D01*
X126438Y590478D01*
X126371Y590335D01*
X126301Y590193D01*
X126227Y590053D01*
X126149Y589915D01*
X126068Y589779D01*
X125984Y589645D01*
X125897Y589513D01*
X125806Y589383D01*
X125712Y589256D01*
X125615Y589131D01*
X125514Y589008D01*
X125411Y588888D01*
X125305Y588771D01*
X125196Y588656D01*
X125084Y588544D01*
X124969Y588435D01*
X124852Y588329D01*
X124732Y588226D01*
X124609Y588125D01*
X124484Y588028D01*
X124357Y587934D01*
X124227Y587843D01*
X124095Y587756D01*
X123961Y587672D01*
X123825Y587591D01*
X123687Y587513D01*
X123547Y587439D01*
X123405Y587369D01*
X123262Y587302D01*
X123117Y587239D01*
X122970Y587179D01*
X122822Y587123D01*
X122672Y587071D01*
X122522Y587022D01*
X122370Y586977D01*
X122217Y586936D01*
X122063Y586899D01*
X121908Y586866D01*
X121753Y586836D01*
X121596Y586811D01*
X121440Y586789D01*
X121282Y586772D01*
X121125Y586758D01*
X120967Y586748D01*
X120808Y586742D01*
X120650Y586740D01*
X46990Y586740D01*
X127000Y593090D02*
X127000Y621030D01*
X120650Y627380D02*
X46990Y627380D01*
X40640Y621030D02*
X40640Y593090D01*
D11*
X102977Y581035D02*
X102977Y569595D01*
X102977Y581035D02*
X110604Y581035D01*
X106790Y575315D02*
X102977Y575315D01*
X114671Y577222D02*
X118484Y581035D01*
X118484Y569595D01*
X114671Y569595D02*
X122298Y569595D01*
D12*
X35212Y398448D02*
X23518Y398448D01*
X35212Y398448D02*
X35212Y404295D01*
X33263Y406244D01*
X25467Y406244D01*
X23518Y404295D01*
X23518Y398448D01*
X27416Y410142D02*
X23518Y414040D01*
X35212Y414040D01*
X35212Y410142D02*
X35212Y417938D01*
X33263Y421836D02*
X25467Y421836D01*
X23518Y423785D01*
X23518Y427683D01*
X25467Y429632D01*
X33263Y429632D01*
X35212Y427683D01*
X35212Y423785D01*
X33263Y421836D01*
X25467Y429632D01*
X689160Y55542D02*
X689160Y43848D01*
X695007Y43848D01*
X696956Y45797D01*
X696956Y53593D01*
X695007Y55542D01*
X689160Y55542D01*
X700854Y55542D02*
X708650Y55542D01*
X700854Y55542D02*
X700854Y49695D01*
X704752Y51644D01*
X706701Y51644D01*
X708650Y49695D01*
X708650Y45797D01*
X706701Y43848D01*
X702803Y43848D01*
X700854Y45797D01*
D11*
X619200Y483000D02*
X549200Y483000D01*
X549200Y533000D01*
X619200Y533000D01*
X619200Y483000D01*
X604200Y493000D02*
X604202Y493141D01*
X604208Y493282D01*
X604218Y493422D01*
X604232Y493562D01*
X604250Y493702D01*
X604271Y493841D01*
X604297Y493980D01*
X604326Y494118D01*
X604360Y494254D01*
X604397Y494390D01*
X604438Y494525D01*
X604483Y494659D01*
X604532Y494791D01*
X604584Y494922D01*
X604640Y495051D01*
X604700Y495178D01*
X604763Y495304D01*
X604829Y495428D01*
X604900Y495551D01*
X604973Y495671D01*
X605050Y495789D01*
X605130Y495905D01*
X605214Y496018D01*
X605300Y496129D01*
X605390Y496238D01*
X605483Y496344D01*
X605578Y496447D01*
X605677Y496548D01*
X605778Y496646D01*
X605882Y496741D01*
X605989Y496833D01*
X606098Y496922D01*
X606210Y497007D01*
X606324Y497090D01*
X606440Y497170D01*
X606559Y497246D01*
X606680Y497318D01*
X606802Y497388D01*
X606927Y497453D01*
X607053Y497516D01*
X607181Y497574D01*
X607311Y497629D01*
X607442Y497681D01*
X607575Y497728D01*
X607709Y497772D01*
X607844Y497813D01*
X607980Y497849D01*
X608117Y497881D01*
X608255Y497910D01*
X608393Y497935D01*
X608533Y497955D01*
X608673Y497972D01*
X608813Y497985D01*
X608954Y497994D01*
X609094Y497999D01*
X609235Y498000D01*
X609376Y497997D01*
X609517Y497990D01*
X609657Y497979D01*
X609797Y497964D01*
X609937Y497945D01*
X610076Y497923D01*
X610214Y497896D01*
X610352Y497866D01*
X610488Y497831D01*
X610624Y497793D01*
X610758Y497751D01*
X610892Y497705D01*
X611024Y497656D01*
X611154Y497602D01*
X611283Y497545D01*
X611410Y497485D01*
X611536Y497421D01*
X611659Y497353D01*
X611781Y497282D01*
X611901Y497208D01*
X612018Y497130D01*
X612133Y497049D01*
X612246Y496965D01*
X612357Y496878D01*
X612465Y496787D01*
X612570Y496694D01*
X612673Y496597D01*
X612773Y496498D01*
X612870Y496396D01*
X612964Y496291D01*
X613055Y496184D01*
X613143Y496074D01*
X613228Y495962D01*
X613310Y495847D01*
X613389Y495730D01*
X613464Y495611D01*
X613536Y495490D01*
X613604Y495367D01*
X613669Y495242D01*
X613731Y495115D01*
X613788Y494986D01*
X613843Y494856D01*
X613893Y494725D01*
X613940Y494592D01*
X613983Y494458D01*
X614022Y494322D01*
X614057Y494186D01*
X614089Y494049D01*
X614116Y493911D01*
X614140Y493772D01*
X614160Y493632D01*
X614176Y493492D01*
X614188Y493352D01*
X614196Y493211D01*
X614200Y493070D01*
X614200Y492930D01*
X614196Y492789D01*
X614188Y492648D01*
X614176Y492508D01*
X614160Y492368D01*
X614140Y492228D01*
X614116Y492089D01*
X614089Y491951D01*
X614057Y491814D01*
X614022Y491678D01*
X613983Y491542D01*
X613940Y491408D01*
X613893Y491275D01*
X613843Y491144D01*
X613788Y491014D01*
X613731Y490885D01*
X613669Y490758D01*
X613604Y490633D01*
X613536Y490510D01*
X613464Y490389D01*
X613389Y490270D01*
X613310Y490153D01*
X613228Y490038D01*
X613143Y489926D01*
X613055Y489816D01*
X612964Y489709D01*
X612870Y489604D01*
X612773Y489502D01*
X612673Y489403D01*
X612570Y489306D01*
X612465Y489213D01*
X612357Y489122D01*
X612246Y489035D01*
X612133Y488951D01*
X612018Y488870D01*
X611901Y488792D01*
X611781Y488718D01*
X611659Y488647D01*
X611536Y488579D01*
X611410Y488515D01*
X611283Y488455D01*
X611154Y488398D01*
X611024Y488344D01*
X610892Y488295D01*
X610758Y488249D01*
X610624Y488207D01*
X610488Y488169D01*
X610352Y488134D01*
X610214Y488104D01*
X610076Y488077D01*
X609937Y488055D01*
X609797Y488036D01*
X609657Y488021D01*
X609517Y488010D01*
X609376Y488003D01*
X609235Y488000D01*
X609094Y488001D01*
X608954Y488006D01*
X608813Y488015D01*
X608673Y488028D01*
X608533Y488045D01*
X608393Y488065D01*
X608255Y488090D01*
X608117Y488119D01*
X607980Y488151D01*
X607844Y488187D01*
X607709Y488228D01*
X607575Y488272D01*
X607442Y488319D01*
X607311Y488371D01*
X607181Y488426D01*
X607053Y488484D01*
X606927Y488547D01*
X606802Y488612D01*
X606680Y488682D01*
X606559Y488754D01*
X606440Y488830D01*
X606324Y488910D01*
X606210Y488993D01*
X606098Y489078D01*
X605989Y489167D01*
X605882Y489259D01*
X605778Y489354D01*
X605677Y489452D01*
X605578Y489553D01*
X605483Y489656D01*
X605390Y489762D01*
X605300Y489871D01*
X605214Y489982D01*
X605130Y490095D01*
X605050Y490211D01*
X604973Y490329D01*
X604900Y490449D01*
X604829Y490572D01*
X604763Y490696D01*
X604700Y490822D01*
X604640Y490949D01*
X604584Y491078D01*
X604532Y491209D01*
X604483Y491341D01*
X604438Y491475D01*
X604397Y491610D01*
X604360Y491746D01*
X604326Y491882D01*
X604297Y492020D01*
X604271Y492159D01*
X604250Y492298D01*
X604232Y492438D01*
X604218Y492578D01*
X604208Y492718D01*
X604202Y492859D01*
X604200Y493000D01*
D13*
X117704Y386216D02*
X90576Y386216D01*
X90576Y396804D01*
X90576Y431664D02*
X117704Y431664D01*
X90576Y431664D02*
X90576Y421576D01*
X117784Y403164D02*
X117784Y399576D01*
X117784Y414576D02*
X117784Y418164D01*
D12*
X81622Y391296D02*
X81622Y387398D01*
X81622Y389347D02*
X69928Y389347D01*
X69928Y387398D02*
X69928Y391296D01*
X69928Y401041D02*
X71877Y402990D01*
X69928Y401041D02*
X69928Y397143D01*
X71877Y395194D01*
X79673Y395194D01*
X81622Y397143D01*
X81622Y401041D01*
X79673Y402990D01*
X71877Y410786D02*
X69928Y414684D01*
X71877Y410786D02*
X75775Y406888D01*
X79673Y406888D01*
X81622Y408837D01*
X81622Y412735D01*
X79673Y414684D01*
X77724Y414684D01*
X75775Y412735D01*
X75775Y406888D01*
X199888Y129256D02*
X211582Y129256D01*
X199888Y129256D02*
X199888Y135103D01*
X201837Y137052D01*
X205735Y137052D01*
X207684Y135103D01*
X207684Y129256D01*
X207684Y133154D02*
X211582Y137052D01*
X211582Y146797D02*
X199888Y146797D01*
X205735Y140950D01*
X205735Y148746D01*
X199888Y152644D02*
X199888Y160440D01*
X199888Y152644D02*
X205735Y152644D01*
X203786Y156542D01*
X203786Y158491D01*
X205735Y160440D01*
X209633Y160440D01*
X211582Y158491D01*
X211582Y154593D01*
X209633Y152644D01*
X211997Y145464D02*
X210048Y143515D01*
X210048Y139617D01*
X211997Y137668D01*
X219793Y137668D01*
X221742Y139617D01*
X221742Y143515D01*
X219793Y145464D01*
X213946Y149362D02*
X210048Y153260D01*
X221742Y153260D01*
X221742Y149362D02*
X221742Y157158D01*
X222748Y129256D02*
X234442Y129256D01*
X222748Y129256D02*
X222748Y135103D01*
X224697Y137052D01*
X228595Y137052D01*
X230544Y135103D01*
X230544Y129256D01*
X230544Y133154D02*
X234442Y137052D01*
X234442Y146797D02*
X222748Y146797D01*
X228595Y140950D01*
X228595Y148746D01*
X224697Y156542D02*
X222748Y160440D01*
X224697Y156542D02*
X228595Y152644D01*
X232493Y152644D01*
X234442Y154593D01*
X234442Y158491D01*
X232493Y160440D01*
X230544Y160440D01*
X228595Y158491D01*
X228595Y152644D01*
X391844Y489043D02*
X389895Y490992D01*
X385997Y490992D01*
X384048Y489043D01*
X384048Y481247D01*
X385997Y479298D01*
X389895Y479298D01*
X391844Y481247D01*
X395742Y487094D02*
X399640Y490992D01*
X399640Y479298D01*
X395742Y479298D02*
X403538Y479298D01*
X407436Y490992D02*
X415232Y490992D01*
X415232Y489043D01*
X407436Y481247D01*
X407436Y479298D01*
X771388Y487396D02*
X783082Y487396D01*
X771388Y487396D02*
X771388Y493243D01*
X773337Y495192D01*
X777235Y495192D01*
X779184Y493243D01*
X779184Y487396D01*
X779184Y491294D02*
X783082Y495192D01*
X783082Y504937D02*
X771388Y504937D01*
X777235Y499090D01*
X777235Y506886D01*
X773337Y510784D02*
X771388Y512733D01*
X771388Y516631D01*
X773337Y518580D01*
X775286Y518580D01*
X777235Y516631D01*
X779184Y518580D01*
X781133Y518580D01*
X783082Y516631D01*
X783082Y512733D01*
X781133Y510784D01*
X779184Y510784D01*
X777235Y512733D01*
X775286Y510784D01*
X773337Y510784D01*
X777235Y512733D02*
X777235Y516631D01*
X771876Y608838D02*
X771876Y620532D01*
X777723Y620532D01*
X779672Y618583D01*
X779672Y614685D01*
X777723Y612736D01*
X771876Y612736D01*
X775774Y612736D02*
X779672Y608838D01*
X789417Y608838D02*
X789417Y620532D01*
X783570Y614685D01*
X791366Y614685D01*
X795264Y610787D02*
X797213Y608838D01*
X801111Y608838D01*
X803060Y610787D01*
X803060Y618583D01*
X801111Y620532D01*
X797213Y620532D01*
X795264Y618583D01*
X795264Y616634D01*
X797213Y614685D01*
X803060Y614685D01*
D11*
X301264Y233438D02*
X255303Y279400D01*
X304800Y328897D01*
X354297Y279400D01*
X308336Y233438D01*
X301264Y233438D01*
X300800Y244045D02*
X300802Y244171D01*
X300808Y244297D01*
X300818Y244423D01*
X300832Y244549D01*
X300850Y244674D01*
X300872Y244798D01*
X300897Y244922D01*
X300927Y245045D01*
X300960Y245166D01*
X300998Y245287D01*
X301039Y245406D01*
X301084Y245525D01*
X301132Y245641D01*
X301184Y245756D01*
X301240Y245869D01*
X301300Y245981D01*
X301363Y246090D01*
X301429Y246198D01*
X301498Y246303D01*
X301571Y246406D01*
X301648Y246507D01*
X301727Y246605D01*
X301809Y246701D01*
X301895Y246794D01*
X301983Y246885D01*
X302074Y246972D01*
X302168Y247057D01*
X302264Y247138D01*
X302363Y247217D01*
X302464Y247292D01*
X302568Y247364D01*
X302674Y247433D01*
X302782Y247499D01*
X302892Y247561D01*
X303004Y247619D01*
X303117Y247674D01*
X303233Y247725D01*
X303350Y247773D01*
X303468Y247817D01*
X303588Y247857D01*
X303709Y247893D01*
X303831Y247926D01*
X303954Y247955D01*
X304078Y247979D01*
X304202Y248000D01*
X304327Y248017D01*
X304453Y248030D01*
X304579Y248039D01*
X304705Y248044D01*
X304832Y248045D01*
X304958Y248042D01*
X305084Y248035D01*
X305210Y248024D01*
X305335Y248009D01*
X305460Y247990D01*
X305584Y247967D01*
X305708Y247941D01*
X305830Y247910D01*
X305952Y247876D01*
X306072Y247837D01*
X306191Y247795D01*
X306309Y247750D01*
X306425Y247700D01*
X306540Y247647D01*
X306652Y247590D01*
X306763Y247530D01*
X306872Y247466D01*
X306979Y247399D01*
X307084Y247329D01*
X307187Y247255D01*
X307287Y247178D01*
X307385Y247098D01*
X307480Y247015D01*
X307572Y246929D01*
X307662Y246840D01*
X307749Y246748D01*
X307832Y246654D01*
X307913Y246557D01*
X307991Y246457D01*
X308066Y246355D01*
X308137Y246251D01*
X308205Y246144D01*
X308269Y246036D01*
X308330Y245925D01*
X308388Y245813D01*
X308442Y245699D01*
X308492Y245583D01*
X308539Y245466D01*
X308582Y245347D01*
X308621Y245227D01*
X308657Y245106D01*
X308688Y244983D01*
X308716Y244860D01*
X308740Y244736D01*
X308760Y244611D01*
X308776Y244486D01*
X308788Y244360D01*
X308796Y244234D01*
X308800Y244108D01*
X308800Y243982D01*
X308796Y243856D01*
X308788Y243730D01*
X308776Y243604D01*
X308760Y243479D01*
X308740Y243354D01*
X308716Y243230D01*
X308688Y243107D01*
X308657Y242984D01*
X308621Y242863D01*
X308582Y242743D01*
X308539Y242624D01*
X308492Y242507D01*
X308442Y242391D01*
X308388Y242277D01*
X308330Y242165D01*
X308269Y242054D01*
X308205Y241946D01*
X308137Y241839D01*
X308066Y241735D01*
X307991Y241633D01*
X307913Y241533D01*
X307832Y241436D01*
X307749Y241342D01*
X307662Y241250D01*
X307572Y241161D01*
X307480Y241075D01*
X307385Y240992D01*
X307287Y240912D01*
X307187Y240835D01*
X307084Y240761D01*
X306979Y240691D01*
X306872Y240624D01*
X306763Y240560D01*
X306652Y240500D01*
X306540Y240443D01*
X306425Y240390D01*
X306309Y240340D01*
X306191Y240295D01*
X306072Y240253D01*
X305952Y240214D01*
X305830Y240180D01*
X305708Y240149D01*
X305584Y240123D01*
X305460Y240100D01*
X305335Y240081D01*
X305210Y240066D01*
X305084Y240055D01*
X304958Y240048D01*
X304832Y240045D01*
X304705Y240046D01*
X304579Y240051D01*
X304453Y240060D01*
X304327Y240073D01*
X304202Y240090D01*
X304078Y240111D01*
X303954Y240135D01*
X303831Y240164D01*
X303709Y240197D01*
X303588Y240233D01*
X303468Y240273D01*
X303350Y240317D01*
X303233Y240365D01*
X303117Y240416D01*
X303004Y240471D01*
X302892Y240529D01*
X302782Y240591D01*
X302674Y240657D01*
X302568Y240726D01*
X302464Y240798D01*
X302363Y240873D01*
X302264Y240952D01*
X302168Y241033D01*
X302074Y241118D01*
X301983Y241205D01*
X301895Y241296D01*
X301809Y241389D01*
X301727Y241485D01*
X301648Y241583D01*
X301571Y241684D01*
X301498Y241787D01*
X301429Y241892D01*
X301363Y242000D01*
X301300Y242109D01*
X301240Y242221D01*
X301184Y242334D01*
X301132Y242449D01*
X301084Y242565D01*
X301039Y242684D01*
X300998Y242803D01*
X300960Y242924D01*
X300927Y243045D01*
X300897Y243168D01*
X300872Y243292D01*
X300850Y243416D01*
X300832Y243541D01*
X300818Y243667D01*
X300808Y243793D01*
X300802Y243919D01*
X300800Y244045D01*
D12*
X269738Y374127D02*
X271687Y376076D01*
X269738Y374127D02*
X269738Y370229D01*
X271687Y368280D01*
X279483Y368280D01*
X281432Y370229D01*
X281432Y374127D01*
X279483Y376076D01*
X281432Y379974D02*
X281432Y387770D01*
X281432Y379974D02*
X273636Y387770D01*
X271687Y387770D01*
X269738Y385821D01*
X269738Y381923D01*
X271687Y379974D01*
X261527Y374064D02*
X259578Y372115D01*
X259578Y368217D01*
X261527Y366268D01*
X269323Y366268D01*
X271272Y368217D01*
X271272Y372115D01*
X269323Y374064D01*
X261527Y377962D02*
X259578Y379911D01*
X259578Y383809D01*
X261527Y385758D01*
X263476Y385758D01*
X265425Y383809D01*
X265425Y381860D01*
X265425Y383809D02*
X267374Y385758D01*
X269323Y385758D01*
X271272Y383809D01*
X271272Y379911D01*
X269323Y377962D01*
D13*
X298450Y175260D02*
X311150Y175260D01*
X298450Y175260D02*
X292100Y181610D01*
X292100Y194310D01*
X298450Y200660D01*
X336550Y175260D02*
X342900Y181610D01*
X336550Y175260D02*
X323850Y175260D01*
X317500Y181610D01*
X317500Y194310D01*
X323850Y200660D01*
X336550Y200660D01*
X342900Y194310D01*
X317500Y181610D02*
X311150Y175260D01*
X317500Y194310D02*
X311150Y200660D01*
X298450Y200660D01*
X374650Y175260D02*
X387350Y175260D01*
X374650Y175260D02*
X368300Y181610D01*
X368300Y194310D01*
X374650Y200660D01*
X368300Y181610D02*
X361950Y175260D01*
X349250Y175260D01*
X342900Y181610D01*
X342900Y194310D01*
X349250Y200660D01*
X361950Y200660D01*
X368300Y194310D01*
X393700Y194310D02*
X393700Y181610D01*
X387350Y175260D01*
X393700Y194310D02*
X387350Y200660D01*
X374650Y200660D01*
X285750Y175260D02*
X273050Y175260D01*
X266700Y181610D01*
X266700Y194310D01*
X273050Y200660D01*
X292100Y181610D02*
X285750Y175260D01*
X292100Y194310D02*
X285750Y200660D01*
X273050Y200660D01*
D11*
X360015Y159514D02*
X361922Y157607D01*
X363828Y157607D01*
X365735Y159514D01*
X365735Y169047D01*
X363828Y169047D02*
X367642Y169047D01*
X371709Y169047D02*
X371709Y157607D01*
X371709Y169047D02*
X377429Y169047D01*
X379336Y167140D01*
X379336Y163327D01*
X377429Y161420D01*
X371709Y161420D01*
X383403Y157607D02*
X391029Y157607D01*
X383403Y157607D02*
X391029Y165234D01*
X391029Y167140D01*
X389123Y169047D01*
X385310Y169047D01*
X383403Y167140D01*
X415290Y289560D02*
X453390Y289560D01*
X453390Y238760D02*
X415290Y238760D01*
X417830Y283210D02*
X417832Y283333D01*
X417838Y283457D01*
X417848Y283580D01*
X417862Y283702D01*
X417880Y283824D01*
X417902Y283946D01*
X417927Y284066D01*
X417957Y284186D01*
X417991Y284305D01*
X418028Y284423D01*
X418069Y284539D01*
X418114Y284654D01*
X418163Y284767D01*
X418215Y284879D01*
X418271Y284989D01*
X418330Y285097D01*
X418393Y285203D01*
X418459Y285307D01*
X418529Y285409D01*
X418602Y285509D01*
X418678Y285606D01*
X418757Y285701D01*
X418839Y285793D01*
X418924Y285882D01*
X419012Y285969D01*
X419103Y286052D01*
X419196Y286133D01*
X419292Y286211D01*
X419391Y286285D01*
X419491Y286356D01*
X419594Y286424D01*
X419699Y286489D01*
X419807Y286550D01*
X419916Y286608D01*
X420027Y286662D01*
X420139Y286712D01*
X420254Y286759D01*
X420369Y286802D01*
X420486Y286841D01*
X420604Y286877D01*
X420724Y286908D01*
X420844Y286936D01*
X420965Y286960D01*
X421087Y286980D01*
X421209Y286996D01*
X421332Y287008D01*
X421455Y287016D01*
X421578Y287020D01*
X421702Y287020D01*
X421825Y287016D01*
X421948Y287008D01*
X422071Y286996D01*
X422193Y286980D01*
X422315Y286960D01*
X422436Y286936D01*
X422556Y286908D01*
X422676Y286877D01*
X422794Y286841D01*
X422911Y286802D01*
X423026Y286759D01*
X423141Y286712D01*
X423253Y286662D01*
X423364Y286608D01*
X423473Y286550D01*
X423581Y286489D01*
X423686Y286424D01*
X423789Y286356D01*
X423889Y286285D01*
X423988Y286211D01*
X424084Y286133D01*
X424177Y286052D01*
X424268Y285969D01*
X424356Y285882D01*
X424441Y285793D01*
X424523Y285701D01*
X424602Y285606D01*
X424678Y285509D01*
X424751Y285409D01*
X424821Y285307D01*
X424887Y285203D01*
X424950Y285097D01*
X425009Y284989D01*
X425065Y284879D01*
X425117Y284767D01*
X425166Y284654D01*
X425211Y284539D01*
X425252Y284423D01*
X425289Y284305D01*
X425323Y284186D01*
X425353Y284066D01*
X425378Y283946D01*
X425400Y283824D01*
X425418Y283702D01*
X425432Y283580D01*
X425442Y283457D01*
X425448Y283333D01*
X425450Y283210D01*
X425448Y283087D01*
X425442Y282963D01*
X425432Y282840D01*
X425418Y282718D01*
X425400Y282596D01*
X425378Y282474D01*
X425353Y282354D01*
X425323Y282234D01*
X425289Y282115D01*
X425252Y281997D01*
X425211Y281881D01*
X425166Y281766D01*
X425117Y281653D01*
X425065Y281541D01*
X425009Y281431D01*
X424950Y281323D01*
X424887Y281217D01*
X424821Y281113D01*
X424751Y281011D01*
X424678Y280911D01*
X424602Y280814D01*
X424523Y280719D01*
X424441Y280627D01*
X424356Y280538D01*
X424268Y280451D01*
X424177Y280368D01*
X424084Y280287D01*
X423988Y280209D01*
X423889Y280135D01*
X423789Y280064D01*
X423686Y279996D01*
X423581Y279931D01*
X423473Y279870D01*
X423364Y279812D01*
X423253Y279758D01*
X423141Y279708D01*
X423026Y279661D01*
X422911Y279618D01*
X422794Y279579D01*
X422676Y279543D01*
X422556Y279512D01*
X422436Y279484D01*
X422315Y279460D01*
X422193Y279440D01*
X422071Y279424D01*
X421948Y279412D01*
X421825Y279404D01*
X421702Y279400D01*
X421578Y279400D01*
X421455Y279404D01*
X421332Y279412D01*
X421209Y279424D01*
X421087Y279440D01*
X420965Y279460D01*
X420844Y279484D01*
X420724Y279512D01*
X420604Y279543D01*
X420486Y279579D01*
X420369Y279618D01*
X420254Y279661D01*
X420139Y279708D01*
X420027Y279758D01*
X419916Y279812D01*
X419807Y279870D01*
X419699Y279931D01*
X419594Y279996D01*
X419491Y280064D01*
X419391Y280135D01*
X419292Y280209D01*
X419196Y280287D01*
X419103Y280368D01*
X419012Y280451D01*
X418924Y280538D01*
X418839Y280627D01*
X418757Y280719D01*
X418678Y280814D01*
X418602Y280911D01*
X418529Y281011D01*
X418459Y281113D01*
X418393Y281217D01*
X418330Y281323D01*
X418271Y281431D01*
X418215Y281541D01*
X418163Y281653D01*
X418114Y281766D01*
X418069Y281881D01*
X418028Y281997D01*
X417991Y282115D01*
X417957Y282234D01*
X417927Y282354D01*
X417902Y282474D01*
X417880Y282596D01*
X417862Y282718D01*
X417848Y282840D01*
X417838Y282963D01*
X417832Y283087D01*
X417830Y283210D01*
D16*
X431625Y250406D02*
X430397Y249177D01*
X430397Y246720D01*
X431625Y245491D01*
X432854Y245491D01*
X434083Y246720D01*
X434083Y249177D01*
X435312Y250406D01*
X436540Y250406D01*
X437769Y249177D01*
X437769Y246720D01*
X436540Y245491D01*
X437769Y252975D02*
X430397Y252975D01*
X437769Y257890D01*
X430397Y257890D01*
X431625Y262917D02*
X430397Y265374D01*
X431625Y262917D02*
X434083Y260459D01*
X436540Y260459D01*
X437769Y261688D01*
X437769Y264145D01*
X436540Y265374D01*
X435312Y265374D01*
X434083Y264145D01*
X434083Y260459D01*
X430397Y267943D02*
X430397Y272858D01*
X430397Y267943D02*
X434083Y267943D01*
X432854Y270401D01*
X432854Y271630D01*
X434083Y272858D01*
X436540Y272858D01*
X437769Y271630D01*
X437769Y269172D01*
X436540Y267943D01*
X437769Y275428D02*
X430397Y275428D01*
X434083Y275428D02*
X434083Y280342D01*
X430397Y280342D02*
X437769Y280342D01*
X435312Y282912D02*
X430397Y282912D01*
X435312Y282912D02*
X437769Y285369D01*
X435312Y287827D01*
X430397Y287827D01*
X430397Y290396D02*
X437769Y290396D01*
X437769Y294082D01*
X436540Y295311D01*
X431625Y295311D01*
X430397Y294082D01*
X430397Y290396D01*
X432854Y297880D02*
X430397Y300338D01*
X437769Y300338D01*
X437769Y302795D02*
X437769Y297880D01*
X436540Y305364D02*
X431625Y305364D01*
X430397Y306593D01*
X430397Y309050D01*
X431625Y310279D01*
X436540Y310279D01*
X437769Y309050D01*
X437769Y306593D01*
X436540Y305364D01*
X431625Y310279D01*
X430397Y316535D02*
X437769Y316535D01*
X434083Y312848D02*
X430397Y316535D01*
X434083Y317763D02*
X434083Y312848D01*
X436540Y320333D02*
X431625Y320333D01*
X430397Y321561D01*
X430397Y324019D01*
X431625Y325247D01*
X436540Y325247D01*
X437769Y324019D01*
X437769Y321561D01*
X436540Y320333D01*
X431625Y325247D01*
D12*
X784840Y52842D02*
X784840Y41148D01*
X784840Y52842D02*
X790687Y52842D01*
X792636Y50893D01*
X792636Y46995D01*
X790687Y45046D01*
X784840Y45046D01*
X788738Y45046D02*
X792636Y41148D01*
X796534Y52842D02*
X804330Y52842D01*
X804330Y50893D01*
X796534Y43097D01*
X796534Y41148D01*
D17*
X393060Y349700D02*
X393060Y370700D01*
X379560Y331200D02*
X373560Y331200D01*
X360060Y349700D02*
X360060Y370700D01*
X373560Y389200D02*
X379560Y389200D01*
D18*
X374560Y380700D03*
D12*
X404407Y362720D02*
X412203Y362720D01*
X404407Y362720D02*
X402458Y364669D01*
X402458Y368567D01*
X404407Y370516D01*
X412203Y370516D01*
X414152Y368567D01*
X414152Y364669D01*
X412203Y362720D01*
X410254Y366618D02*
X414152Y370516D01*
X406356Y374414D02*
X402458Y378312D01*
X414152Y378312D01*
X414152Y374414D02*
X414152Y382210D01*
X368257Y306212D02*
X370206Y304263D01*
X368257Y306212D02*
X364359Y306212D01*
X362410Y304263D01*
X362410Y296467D01*
X364359Y294518D01*
X368257Y294518D01*
X370206Y296467D01*
X374104Y306212D02*
X381900Y306212D01*
X374104Y306212D02*
X374104Y300365D01*
X378002Y302314D01*
X379951Y302314D01*
X381900Y300365D01*
X381900Y296467D01*
X379951Y294518D01*
X376053Y294518D01*
X374104Y296467D01*
X375814Y423643D02*
X373865Y425592D01*
X369967Y425592D01*
X368018Y423643D01*
X368018Y415847D01*
X369967Y413898D01*
X373865Y413898D01*
X375814Y415847D01*
X383610Y423643D02*
X387508Y425592D01*
X383610Y423643D02*
X379712Y419745D01*
X379712Y415847D01*
X381661Y413898D01*
X385559Y413898D01*
X387508Y415847D01*
X387508Y417796D01*
X385559Y419745D01*
X379712Y419745D01*
X275595Y176032D02*
X277544Y174083D01*
X275595Y176032D02*
X271697Y176032D01*
X269748Y174083D01*
X269748Y166287D01*
X271697Y164338D01*
X275595Y164338D01*
X277544Y166287D01*
X281442Y172134D02*
X285340Y176032D01*
X285340Y164338D01*
X281442Y164338D02*
X289238Y164338D01*
X293136Y172134D02*
X297034Y176032D01*
X297034Y164338D01*
X293136Y164338D02*
X300932Y164338D01*
D11*
X168840Y177900D02*
X168840Y253900D01*
X168840Y177900D02*
X64840Y177900D01*
X64840Y253900D01*
X168840Y253900D01*
X152840Y242900D02*
X152842Y243041D01*
X152848Y243182D01*
X152858Y243322D01*
X152872Y243462D01*
X152890Y243602D01*
X152911Y243741D01*
X152937Y243880D01*
X152966Y244018D01*
X153000Y244154D01*
X153037Y244290D01*
X153078Y244425D01*
X153123Y244559D01*
X153172Y244691D01*
X153224Y244822D01*
X153280Y244951D01*
X153340Y245078D01*
X153403Y245204D01*
X153469Y245328D01*
X153540Y245451D01*
X153613Y245571D01*
X153690Y245689D01*
X153770Y245805D01*
X153854Y245918D01*
X153940Y246029D01*
X154030Y246138D01*
X154123Y246244D01*
X154218Y246347D01*
X154317Y246448D01*
X154418Y246546D01*
X154522Y246641D01*
X154629Y246733D01*
X154738Y246822D01*
X154850Y246907D01*
X154964Y246990D01*
X155080Y247070D01*
X155199Y247146D01*
X155320Y247218D01*
X155442Y247288D01*
X155567Y247353D01*
X155693Y247416D01*
X155821Y247474D01*
X155951Y247529D01*
X156082Y247581D01*
X156215Y247628D01*
X156349Y247672D01*
X156484Y247713D01*
X156620Y247749D01*
X156757Y247781D01*
X156895Y247810D01*
X157033Y247835D01*
X157173Y247855D01*
X157313Y247872D01*
X157453Y247885D01*
X157594Y247894D01*
X157734Y247899D01*
X157875Y247900D01*
X158016Y247897D01*
X158157Y247890D01*
X158297Y247879D01*
X158437Y247864D01*
X158577Y247845D01*
X158716Y247823D01*
X158854Y247796D01*
X158992Y247766D01*
X159128Y247731D01*
X159264Y247693D01*
X159398Y247651D01*
X159532Y247605D01*
X159664Y247556D01*
X159794Y247502D01*
X159923Y247445D01*
X160050Y247385D01*
X160176Y247321D01*
X160299Y247253D01*
X160421Y247182D01*
X160541Y247108D01*
X160658Y247030D01*
X160773Y246949D01*
X160886Y246865D01*
X160997Y246778D01*
X161105Y246687D01*
X161210Y246594D01*
X161313Y246497D01*
X161413Y246398D01*
X161510Y246296D01*
X161604Y246191D01*
X161695Y246084D01*
X161783Y245974D01*
X161868Y245862D01*
X161950Y245747D01*
X162029Y245630D01*
X162104Y245511D01*
X162176Y245390D01*
X162244Y245267D01*
X162309Y245142D01*
X162371Y245015D01*
X162428Y244886D01*
X162483Y244756D01*
X162533Y244625D01*
X162580Y244492D01*
X162623Y244358D01*
X162662Y244222D01*
X162697Y244086D01*
X162729Y243949D01*
X162756Y243811D01*
X162780Y243672D01*
X162800Y243532D01*
X162816Y243392D01*
X162828Y243252D01*
X162836Y243111D01*
X162840Y242970D01*
X162840Y242830D01*
X162836Y242689D01*
X162828Y242548D01*
X162816Y242408D01*
X162800Y242268D01*
X162780Y242128D01*
X162756Y241989D01*
X162729Y241851D01*
X162697Y241714D01*
X162662Y241578D01*
X162623Y241442D01*
X162580Y241308D01*
X162533Y241175D01*
X162483Y241044D01*
X162428Y240914D01*
X162371Y240785D01*
X162309Y240658D01*
X162244Y240533D01*
X162176Y240410D01*
X162104Y240289D01*
X162029Y240170D01*
X161950Y240053D01*
X161868Y239938D01*
X161783Y239826D01*
X161695Y239716D01*
X161604Y239609D01*
X161510Y239504D01*
X161413Y239402D01*
X161313Y239303D01*
X161210Y239206D01*
X161105Y239113D01*
X160997Y239022D01*
X160886Y238935D01*
X160773Y238851D01*
X160658Y238770D01*
X160541Y238692D01*
X160421Y238618D01*
X160299Y238547D01*
X160176Y238479D01*
X160050Y238415D01*
X159923Y238355D01*
X159794Y238298D01*
X159664Y238244D01*
X159532Y238195D01*
X159398Y238149D01*
X159264Y238107D01*
X159128Y238069D01*
X158992Y238034D01*
X158854Y238004D01*
X158716Y237977D01*
X158577Y237955D01*
X158437Y237936D01*
X158297Y237921D01*
X158157Y237910D01*
X158016Y237903D01*
X157875Y237900D01*
X157734Y237901D01*
X157594Y237906D01*
X157453Y237915D01*
X157313Y237928D01*
X157173Y237945D01*
X157033Y237965D01*
X156895Y237990D01*
X156757Y238019D01*
X156620Y238051D01*
X156484Y238087D01*
X156349Y238128D01*
X156215Y238172D01*
X156082Y238219D01*
X155951Y238271D01*
X155821Y238326D01*
X155693Y238384D01*
X155567Y238447D01*
X155442Y238512D01*
X155320Y238582D01*
X155199Y238654D01*
X155080Y238730D01*
X154964Y238810D01*
X154850Y238893D01*
X154738Y238978D01*
X154629Y239067D01*
X154522Y239159D01*
X154418Y239254D01*
X154317Y239352D01*
X154218Y239453D01*
X154123Y239556D01*
X154030Y239662D01*
X153940Y239771D01*
X153854Y239882D01*
X153770Y239995D01*
X153690Y240111D01*
X153613Y240229D01*
X153540Y240349D01*
X153469Y240472D01*
X153403Y240596D01*
X153340Y240722D01*
X153280Y240849D01*
X153224Y240978D01*
X153172Y241109D01*
X153123Y241241D01*
X153078Y241375D01*
X153037Y241510D01*
X153000Y241646D01*
X152966Y241782D01*
X152937Y241920D01*
X152911Y242059D01*
X152890Y242198D01*
X152872Y242338D01*
X152858Y242478D01*
X152848Y242618D01*
X152842Y242759D01*
X152840Y242900D01*
D12*
X112522Y291816D02*
X100828Y291816D01*
X100828Y297663D01*
X102777Y299612D01*
X106675Y299612D01*
X108624Y297663D01*
X108624Y291816D01*
X108624Y295714D02*
X112522Y299612D01*
X100828Y303510D02*
X100828Y311306D01*
X100828Y303510D02*
X106675Y303510D01*
X104726Y307408D01*
X104726Y309357D01*
X106675Y311306D01*
X110573Y311306D01*
X112522Y309357D01*
X112522Y305459D01*
X110573Y303510D01*
X102777Y315204D02*
X100828Y317153D01*
X100828Y321051D01*
X102777Y323000D01*
X104726Y323000D01*
X106675Y321051D01*
X106675Y319102D01*
X106675Y321051D02*
X108624Y323000D01*
X110573Y323000D01*
X112522Y321051D01*
X112522Y317153D01*
X110573Y315204D01*
X126228Y291816D02*
X137922Y291816D01*
X126228Y291816D02*
X126228Y297663D01*
X128177Y299612D01*
X132075Y299612D01*
X134024Y297663D01*
X134024Y291816D01*
X134024Y295714D02*
X137922Y299612D01*
X126228Y303510D02*
X126228Y311306D01*
X126228Y303510D02*
X132075Y303510D01*
X130126Y307408D01*
X130126Y309357D01*
X132075Y311306D01*
X135973Y311306D01*
X137922Y309357D01*
X137922Y305459D01*
X135973Y303510D01*
X137922Y321051D02*
X126228Y321051D01*
X132075Y315204D01*
X132075Y323000D01*
X151628Y291816D02*
X163322Y291816D01*
X151628Y291816D02*
X151628Y297663D01*
X153577Y299612D01*
X157475Y299612D01*
X159424Y297663D01*
X159424Y291816D01*
X159424Y295714D02*
X163322Y299612D01*
X151628Y303510D02*
X151628Y311306D01*
X151628Y303510D02*
X157475Y303510D01*
X155526Y307408D01*
X155526Y309357D01*
X157475Y311306D01*
X161373Y311306D01*
X163322Y309357D01*
X163322Y305459D01*
X161373Y303510D01*
X151628Y315204D02*
X151628Y323000D01*
X151628Y315204D02*
X157475Y315204D01*
X155526Y319102D01*
X155526Y321051D01*
X157475Y323000D01*
X161373Y323000D01*
X163322Y321051D01*
X163322Y317153D01*
X161373Y315204D01*
X200376Y264932D02*
X200376Y253238D01*
X200376Y264932D02*
X206223Y264932D01*
X208172Y262983D01*
X208172Y259085D01*
X206223Y257136D01*
X200376Y257136D01*
X204274Y257136D02*
X208172Y253238D01*
X212070Y264932D02*
X219866Y264932D01*
X212070Y264932D02*
X212070Y259085D01*
X215968Y261034D01*
X217917Y261034D01*
X219866Y259085D01*
X219866Y255187D01*
X217917Y253238D01*
X214019Y253238D01*
X212070Y255187D01*
X227662Y262983D02*
X231560Y264932D01*
X227662Y262983D02*
X223764Y259085D01*
X223764Y255187D01*
X225713Y253238D01*
X229611Y253238D01*
X231560Y255187D01*
X231560Y257136D01*
X229611Y259085D01*
X223764Y259085D01*
X119048Y88242D02*
X119048Y76548D01*
X124895Y76548D01*
X126844Y78497D01*
X126844Y86293D01*
X124895Y88242D01*
X119048Y88242D01*
X130742Y76548D02*
X138538Y76548D01*
X130742Y76548D02*
X138538Y84344D01*
X138538Y86293D01*
X136589Y88242D01*
X132691Y88242D01*
X130742Y86293D01*
X213028Y88242D02*
X213028Y76548D01*
X218875Y76548D01*
X220824Y78497D01*
X220824Y86293D01*
X218875Y88242D01*
X213028Y88242D01*
X224722Y86293D02*
X226671Y88242D01*
X230569Y88242D01*
X232518Y86293D01*
X232518Y84344D01*
X230569Y82395D01*
X228620Y82395D01*
X230569Y82395D02*
X232518Y80446D01*
X232518Y78497D01*
X230569Y76548D01*
X226671Y76548D01*
X224722Y78497D01*
X309548Y76548D02*
X309548Y88242D01*
X309548Y76548D02*
X315395Y76548D01*
X317344Y78497D01*
X317344Y86293D01*
X315395Y88242D01*
X309548Y88242D01*
X327089Y88242D02*
X327089Y76548D01*
X321242Y82395D02*
X327089Y88242D01*
X329038Y82395D02*
X321242Y82395D01*
X176022Y216408D02*
X164328Y216408D01*
X164328Y222255D01*
X166277Y224204D01*
X170175Y224204D01*
X172124Y222255D01*
X172124Y216408D01*
X172124Y220306D02*
X176022Y224204D01*
X164328Y228102D02*
X164328Y235898D01*
X164328Y228102D02*
X170175Y228102D01*
X168226Y232000D01*
X168226Y233949D01*
X170175Y235898D01*
X174073Y235898D01*
X176022Y233949D01*
X176022Y230051D01*
X174073Y228102D01*
X191158Y219378D02*
X202852Y219378D01*
X202852Y225225D01*
X200903Y227174D01*
X193107Y227174D01*
X191158Y225225D01*
X191158Y219378D01*
X200903Y231072D02*
X202852Y233021D01*
X202852Y236919D01*
X200903Y238868D01*
X193107Y238868D01*
X191158Y236919D01*
X191158Y233021D01*
X193107Y231072D01*
X195056Y231072D01*
X197005Y233021D01*
X197005Y238868D01*
X196327Y176032D02*
X198276Y174083D01*
X196327Y176032D02*
X192429Y176032D01*
X190480Y174083D01*
X190480Y166287D01*
X192429Y164338D01*
X196327Y164338D01*
X198276Y166287D01*
X202174Y176032D02*
X209970Y176032D01*
X209970Y174083D01*
X202174Y166287D01*
X202174Y164338D01*
D11*
X60960Y393700D02*
X60960Y424180D01*
X76200Y424180D01*
X76200Y393700D01*
X60960Y393700D01*
D12*
X433050Y292872D02*
X433050Y281178D01*
X433050Y292872D02*
X438897Y292872D01*
X440846Y290923D01*
X440846Y287025D01*
X438897Y285076D01*
X433050Y285076D01*
X436948Y285076D02*
X440846Y281178D01*
X448642Y290923D02*
X452540Y292872D01*
X448642Y290923D02*
X444744Y287025D01*
X444744Y283127D01*
X446693Y281178D01*
X450591Y281178D01*
X452540Y283127D01*
X452540Y285076D01*
X450591Y287025D01*
X444744Y287025D01*
X418313Y211592D02*
X420262Y209643D01*
X418313Y211592D02*
X414415Y211592D01*
X412466Y209643D01*
X412466Y201847D01*
X414415Y199898D01*
X418313Y199898D01*
X420262Y201847D01*
X424160Y207694D02*
X428058Y211592D01*
X428058Y199898D01*
X424160Y199898D02*
X431956Y199898D01*
X435854Y199898D02*
X443650Y199898D01*
X435854Y199898D02*
X443650Y207694D01*
X443650Y209643D01*
X441701Y211592D01*
X437803Y211592D01*
X435854Y209643D01*
D11*
X-25400Y739140D02*
X949960Y739140D01*
X949960Y617220D01*
X-25400Y617220D01*
X-25400Y739140D01*
X-25400Y-27940D02*
X949960Y-27940D01*
X-25400Y-27940D02*
X-25400Y93980D01*
X949960Y93980D01*
X949960Y-27940D01*
D12*
X226106Y653350D02*
X154894Y653350D01*
X154894Y591250D02*
X226106Y591250D01*
D17*
X195930Y632300D02*
X182200Y622300D01*
X195930Y612300D01*
X195930Y632300D01*
D19*
X175750Y622300D03*
D12*
X156418Y656398D02*
X156418Y668092D01*
X156418Y656398D02*
X162265Y656398D01*
X164214Y658347D01*
X164214Y666143D01*
X162265Y668092D01*
X156418Y668092D01*
X168112Y664194D02*
X172010Y668092D01*
X172010Y656398D01*
X168112Y656398D02*
X175908Y656398D01*
D11*
X535940Y138430D02*
X535940Y100330D01*
X485140Y100330D02*
X485140Y138430D01*
X525780Y132080D02*
X525782Y132203D01*
X525788Y132327D01*
X525798Y132450D01*
X525812Y132572D01*
X525830Y132694D01*
X525852Y132816D01*
X525877Y132936D01*
X525907Y133056D01*
X525941Y133175D01*
X525978Y133293D01*
X526019Y133409D01*
X526064Y133524D01*
X526113Y133637D01*
X526165Y133749D01*
X526221Y133859D01*
X526280Y133967D01*
X526343Y134073D01*
X526409Y134177D01*
X526479Y134279D01*
X526552Y134379D01*
X526628Y134476D01*
X526707Y134571D01*
X526789Y134663D01*
X526874Y134752D01*
X526962Y134839D01*
X527053Y134922D01*
X527146Y135003D01*
X527242Y135081D01*
X527341Y135155D01*
X527441Y135226D01*
X527544Y135294D01*
X527649Y135359D01*
X527757Y135420D01*
X527866Y135478D01*
X527977Y135532D01*
X528089Y135582D01*
X528204Y135629D01*
X528319Y135672D01*
X528436Y135711D01*
X528554Y135747D01*
X528674Y135778D01*
X528794Y135806D01*
X528915Y135830D01*
X529037Y135850D01*
X529159Y135866D01*
X529282Y135878D01*
X529405Y135886D01*
X529528Y135890D01*
X529652Y135890D01*
X529775Y135886D01*
X529898Y135878D01*
X530021Y135866D01*
X530143Y135850D01*
X530265Y135830D01*
X530386Y135806D01*
X530506Y135778D01*
X530626Y135747D01*
X530744Y135711D01*
X530861Y135672D01*
X530976Y135629D01*
X531091Y135582D01*
X531203Y135532D01*
X531314Y135478D01*
X531423Y135420D01*
X531531Y135359D01*
X531636Y135294D01*
X531739Y135226D01*
X531839Y135155D01*
X531938Y135081D01*
X532034Y135003D01*
X532127Y134922D01*
X532218Y134839D01*
X532306Y134752D01*
X532391Y134663D01*
X532473Y134571D01*
X532552Y134476D01*
X532628Y134379D01*
X532701Y134279D01*
X532771Y134177D01*
X532837Y134073D01*
X532900Y133967D01*
X532959Y133859D01*
X533015Y133749D01*
X533067Y133637D01*
X533116Y133524D01*
X533161Y133409D01*
X533202Y133293D01*
X533239Y133175D01*
X533273Y133056D01*
X533303Y132936D01*
X533328Y132816D01*
X533350Y132694D01*
X533368Y132572D01*
X533382Y132450D01*
X533392Y132327D01*
X533398Y132203D01*
X533400Y132080D01*
X533398Y131957D01*
X533392Y131833D01*
X533382Y131710D01*
X533368Y131588D01*
X533350Y131466D01*
X533328Y131344D01*
X533303Y131224D01*
X533273Y131104D01*
X533239Y130985D01*
X533202Y130867D01*
X533161Y130751D01*
X533116Y130636D01*
X533067Y130523D01*
X533015Y130411D01*
X532959Y130301D01*
X532900Y130193D01*
X532837Y130087D01*
X532771Y129983D01*
X532701Y129881D01*
X532628Y129781D01*
X532552Y129684D01*
X532473Y129589D01*
X532391Y129497D01*
X532306Y129408D01*
X532218Y129321D01*
X532127Y129238D01*
X532034Y129157D01*
X531938Y129079D01*
X531839Y129005D01*
X531739Y128934D01*
X531636Y128866D01*
X531531Y128801D01*
X531423Y128740D01*
X531314Y128682D01*
X531203Y128628D01*
X531091Y128578D01*
X530976Y128531D01*
X530861Y128488D01*
X530744Y128449D01*
X530626Y128413D01*
X530506Y128382D01*
X530386Y128354D01*
X530265Y128330D01*
X530143Y128310D01*
X530021Y128294D01*
X529898Y128282D01*
X529775Y128274D01*
X529652Y128270D01*
X529528Y128270D01*
X529405Y128274D01*
X529282Y128282D01*
X529159Y128294D01*
X529037Y128310D01*
X528915Y128330D01*
X528794Y128354D01*
X528674Y128382D01*
X528554Y128413D01*
X528436Y128449D01*
X528319Y128488D01*
X528204Y128531D01*
X528089Y128578D01*
X527977Y128628D01*
X527866Y128682D01*
X527757Y128740D01*
X527649Y128801D01*
X527544Y128866D01*
X527441Y128934D01*
X527341Y129005D01*
X527242Y129079D01*
X527146Y129157D01*
X527053Y129238D01*
X526962Y129321D01*
X526874Y129408D01*
X526789Y129497D01*
X526707Y129589D01*
X526628Y129684D01*
X526552Y129781D01*
X526479Y129881D01*
X526409Y129983D01*
X526343Y130087D01*
X526280Y130193D01*
X526221Y130301D01*
X526165Y130411D01*
X526113Y130523D01*
X526064Y130636D01*
X526019Y130751D01*
X525978Y130867D01*
X525941Y130985D01*
X525907Y131104D01*
X525877Y131224D01*
X525852Y131344D01*
X525830Y131466D01*
X525812Y131588D01*
X525798Y131710D01*
X525788Y131833D01*
X525782Y131957D01*
X525780Y132080D01*
D16*
X491871Y123323D02*
X491871Y115951D01*
X494328Y120866D02*
X491871Y123323D01*
X494328Y120866D02*
X496786Y123323D01*
X496786Y115951D01*
X499355Y115951D02*
X501813Y115951D01*
X500584Y115951D02*
X500584Y123323D01*
X499355Y123323D02*
X501813Y123323D01*
X508031Y123323D02*
X509259Y122095D01*
X508031Y123323D02*
X505573Y123323D01*
X504345Y122095D01*
X504345Y117180D01*
X505573Y115951D01*
X508031Y115951D01*
X509259Y117180D01*
X515515Y115951D02*
X515515Y123323D01*
X511829Y119637D01*
X516744Y119637D01*
X522999Y115951D02*
X522999Y123323D01*
X519313Y119637D01*
X524228Y119637D01*
X526797Y123323D02*
X531712Y123323D01*
X526797Y123323D02*
X526797Y119637D01*
X529254Y120866D01*
X530483Y120866D01*
X531712Y119637D01*
X531712Y117180D01*
X530483Y115951D01*
X528026Y115951D01*
X526797Y117180D01*
X534281Y115951D02*
X539196Y115951D01*
X534281Y115951D02*
X539196Y120866D01*
X539196Y122095D01*
X537967Y123323D01*
X535510Y123323D01*
X534281Y122095D01*
X541765Y114722D02*
X546680Y114722D01*
X549250Y115951D02*
X549250Y123323D01*
X551707Y120866D01*
X554164Y123323D01*
X554164Y115951D01*
X556734Y115951D02*
X556734Y123323D01*
X560420Y123323D01*
X561649Y122095D01*
X561649Y119637D01*
X560420Y118408D01*
X556734Y118408D01*
X565447Y123323D02*
X567904Y123323D01*
X565447Y123323D02*
X564218Y122095D01*
X564218Y117180D01*
X565447Y115951D01*
X567904Y115951D01*
X569133Y117180D01*
X569133Y122095D01*
X567904Y123323D01*
X571702Y120866D02*
X574159Y123323D01*
X574159Y115951D01*
X571702Y115951D02*
X576617Y115951D01*
D12*
X498660Y55542D02*
X498660Y43848D01*
X504507Y43848D01*
X506456Y45797D01*
X506456Y53593D01*
X504507Y55542D01*
X498660Y55542D01*
X514252Y53593D02*
X518150Y55542D01*
X514252Y53593D02*
X510354Y49695D01*
X510354Y45797D01*
X512303Y43848D01*
X516201Y43848D01*
X518150Y45797D01*
X518150Y47746D01*
X516201Y49695D01*
X510354Y49695D01*
D11*
X629920Y100330D02*
X629920Y138430D01*
X579120Y138430D02*
X579120Y100330D01*
X619760Y132080D02*
X619762Y132203D01*
X619768Y132327D01*
X619778Y132450D01*
X619792Y132572D01*
X619810Y132694D01*
X619832Y132816D01*
X619857Y132936D01*
X619887Y133056D01*
X619921Y133175D01*
X619958Y133293D01*
X619999Y133409D01*
X620044Y133524D01*
X620093Y133637D01*
X620145Y133749D01*
X620201Y133859D01*
X620260Y133967D01*
X620323Y134073D01*
X620389Y134177D01*
X620459Y134279D01*
X620532Y134379D01*
X620608Y134476D01*
X620687Y134571D01*
X620769Y134663D01*
X620854Y134752D01*
X620942Y134839D01*
X621033Y134922D01*
X621126Y135003D01*
X621222Y135081D01*
X621321Y135155D01*
X621421Y135226D01*
X621524Y135294D01*
X621629Y135359D01*
X621737Y135420D01*
X621846Y135478D01*
X621957Y135532D01*
X622069Y135582D01*
X622184Y135629D01*
X622299Y135672D01*
X622416Y135711D01*
X622534Y135747D01*
X622654Y135778D01*
X622774Y135806D01*
X622895Y135830D01*
X623017Y135850D01*
X623139Y135866D01*
X623262Y135878D01*
X623385Y135886D01*
X623508Y135890D01*
X623632Y135890D01*
X623755Y135886D01*
X623878Y135878D01*
X624001Y135866D01*
X624123Y135850D01*
X624245Y135830D01*
X624366Y135806D01*
X624486Y135778D01*
X624606Y135747D01*
X624724Y135711D01*
X624841Y135672D01*
X624956Y135629D01*
X625071Y135582D01*
X625183Y135532D01*
X625294Y135478D01*
X625403Y135420D01*
X625511Y135359D01*
X625616Y135294D01*
X625719Y135226D01*
X625819Y135155D01*
X625918Y135081D01*
X626014Y135003D01*
X626107Y134922D01*
X626198Y134839D01*
X626286Y134752D01*
X626371Y134663D01*
X626453Y134571D01*
X626532Y134476D01*
X626608Y134379D01*
X626681Y134279D01*
X626751Y134177D01*
X626817Y134073D01*
X626880Y133967D01*
X626939Y133859D01*
X626995Y133749D01*
X627047Y133637D01*
X627096Y133524D01*
X627141Y133409D01*
X627182Y133293D01*
X627219Y133175D01*
X627253Y133056D01*
X627283Y132936D01*
X627308Y132816D01*
X627330Y132694D01*
X627348Y132572D01*
X627362Y132450D01*
X627372Y132327D01*
X627378Y132203D01*
X627380Y132080D01*
X627378Y131957D01*
X627372Y131833D01*
X627362Y131710D01*
X627348Y131588D01*
X627330Y131466D01*
X627308Y131344D01*
X627283Y131224D01*
X627253Y131104D01*
X627219Y130985D01*
X627182Y130867D01*
X627141Y130751D01*
X627096Y130636D01*
X627047Y130523D01*
X626995Y130411D01*
X626939Y130301D01*
X626880Y130193D01*
X626817Y130087D01*
X626751Y129983D01*
X626681Y129881D01*
X626608Y129781D01*
X626532Y129684D01*
X626453Y129589D01*
X626371Y129497D01*
X626286Y129408D01*
X626198Y129321D01*
X626107Y129238D01*
X626014Y129157D01*
X625918Y129079D01*
X625819Y129005D01*
X625719Y128934D01*
X625616Y128866D01*
X625511Y128801D01*
X625403Y128740D01*
X625294Y128682D01*
X625183Y128628D01*
X625071Y128578D01*
X624956Y128531D01*
X624841Y128488D01*
X624724Y128449D01*
X624606Y128413D01*
X624486Y128382D01*
X624366Y128354D01*
X624245Y128330D01*
X624123Y128310D01*
X624001Y128294D01*
X623878Y128282D01*
X623755Y128274D01*
X623632Y128270D01*
X623508Y128270D01*
X623385Y128274D01*
X623262Y128282D01*
X623139Y128294D01*
X623017Y128310D01*
X622895Y128330D01*
X622774Y128354D01*
X622654Y128382D01*
X622534Y128413D01*
X622416Y128449D01*
X622299Y128488D01*
X622184Y128531D01*
X622069Y128578D01*
X621957Y128628D01*
X621846Y128682D01*
X621737Y128740D01*
X621629Y128801D01*
X621524Y128866D01*
X621421Y128934D01*
X621321Y129005D01*
X621222Y129079D01*
X621126Y129157D01*
X621033Y129238D01*
X620942Y129321D01*
X620854Y129408D01*
X620769Y129497D01*
X620687Y129589D01*
X620608Y129684D01*
X620532Y129781D01*
X620459Y129881D01*
X620389Y129983D01*
X620323Y130087D01*
X620260Y130193D01*
X620201Y130301D01*
X620145Y130411D01*
X620093Y130523D01*
X620044Y130636D01*
X619999Y130751D01*
X619958Y130867D01*
X619921Y130985D01*
X619887Y131104D01*
X619857Y131224D01*
X619832Y131344D01*
X619810Y131466D01*
X619792Y131588D01*
X619778Y131710D01*
X619768Y131833D01*
X619762Y131957D01*
X619760Y132080D01*
D16*
X585851Y123323D02*
X585851Y115951D01*
X588308Y120866D02*
X585851Y123323D01*
X588308Y120866D02*
X590766Y123323D01*
X590766Y115951D01*
X593335Y115951D02*
X595793Y115951D01*
X594564Y115951D02*
X594564Y123323D01*
X593335Y123323D02*
X595793Y123323D01*
X602011Y123323D02*
X603239Y122095D01*
X602011Y123323D02*
X599553Y123323D01*
X598325Y122095D01*
X598325Y117180D01*
X599553Y115951D01*
X602011Y115951D01*
X603239Y117180D01*
X609495Y115951D02*
X609495Y123323D01*
X605809Y119637D01*
X610724Y119637D01*
X616979Y115951D02*
X616979Y123323D01*
X613293Y119637D01*
X618208Y119637D01*
X620777Y123323D02*
X625692Y123323D01*
X620777Y123323D02*
X620777Y119637D01*
X623234Y120866D01*
X624463Y120866D01*
X625692Y119637D01*
X625692Y117180D01*
X624463Y115951D01*
X622006Y115951D01*
X620777Y117180D01*
X628261Y115951D02*
X633176Y115951D01*
X628261Y115951D02*
X633176Y120866D01*
X633176Y122095D01*
X631947Y123323D01*
X629490Y123323D01*
X628261Y122095D01*
X635745Y114722D02*
X640660Y114722D01*
X643230Y115951D02*
X643230Y123323D01*
X645687Y120866D01*
X648144Y123323D01*
X648144Y115951D01*
X650714Y115951D02*
X650714Y123323D01*
X654400Y123323D01*
X655629Y122095D01*
X655629Y119637D01*
X654400Y118408D01*
X650714Y118408D01*
X659427Y123323D02*
X661884Y123323D01*
X659427Y123323D02*
X658198Y122095D01*
X658198Y117180D01*
X659427Y115951D01*
X661884Y115951D01*
X663113Y117180D01*
X663113Y122095D01*
X661884Y123323D01*
X665682Y115951D02*
X670597Y115951D01*
X665682Y115951D02*
X670597Y120866D01*
X670597Y122095D01*
X669368Y123323D01*
X666911Y123323D01*
X665682Y122095D01*
D12*
X592640Y55542D02*
X592640Y43848D01*
X598487Y43848D01*
X600436Y45797D01*
X600436Y53593D01*
X598487Y55542D01*
X592640Y55542D01*
X604334Y55542D02*
X612130Y55542D01*
X612130Y53593D01*
X604334Y45797D01*
X604334Y43848D01*
X245618Y540258D02*
X245618Y551952D01*
X251465Y551952D01*
X253414Y550003D01*
X253414Y546105D01*
X251465Y544156D01*
X245618Y544156D01*
X249516Y544156D02*
X253414Y540258D01*
X257312Y548054D02*
X261210Y551952D01*
X261210Y540258D01*
X257312Y540258D02*
X265108Y540258D01*
X269006Y542207D02*
X269006Y550003D01*
X270955Y551952D01*
X274853Y551952D01*
X276802Y550003D01*
X276802Y542207D01*
X274853Y540258D01*
X270955Y540258D01*
X269006Y542207D01*
X276802Y550003D01*
X243053Y490992D02*
X245002Y489043D01*
X243053Y490992D02*
X239155Y490992D01*
X237206Y489043D01*
X237206Y481247D01*
X239155Y479298D01*
X243053Y479298D01*
X245002Y481247D01*
X248900Y487094D02*
X252798Y490992D01*
X252798Y479298D01*
X248900Y479298D02*
X256696Y479298D01*
X260594Y489043D02*
X262543Y490992D01*
X266441Y490992D01*
X268390Y489043D01*
X268390Y487094D01*
X266441Y485145D01*
X264492Y485145D01*
X266441Y485145D02*
X268390Y483196D01*
X268390Y481247D01*
X266441Y479298D01*
X262543Y479298D01*
X260594Y481247D01*
X161197Y394862D02*
X159248Y392913D01*
X159248Y389015D01*
X161197Y387066D01*
X168993Y387066D01*
X170942Y389015D01*
X170942Y392913D01*
X168993Y394862D01*
X163146Y398760D02*
X159248Y402658D01*
X170942Y402658D01*
X170942Y398760D02*
X170942Y406556D01*
X168993Y410454D02*
X161197Y410454D01*
X159248Y412403D01*
X159248Y416301D01*
X161197Y418250D01*
X168993Y418250D01*
X170942Y416301D01*
X170942Y412403D01*
X168993Y410454D01*
X161197Y418250D01*
X180008Y561688D02*
X180008Y573382D01*
X180008Y561688D02*
X185855Y561688D01*
X187804Y563637D01*
X187804Y571433D01*
X185855Y573382D01*
X180008Y573382D01*
X191702Y571433D02*
X193651Y573382D01*
X197549Y573382D01*
X199498Y571433D01*
X199498Y569484D01*
X197549Y567535D01*
X199498Y565586D01*
X199498Y563637D01*
X197549Y561688D01*
X193651Y561688D01*
X191702Y563637D01*
X191702Y565586D01*
X193651Y567535D01*
X191702Y569484D01*
X191702Y571433D01*
X193651Y567535D02*
X197549Y567535D01*
X177038Y526552D02*
X177038Y514858D01*
X177038Y526552D02*
X182885Y526552D01*
X184834Y524603D01*
X184834Y520705D01*
X182885Y518756D01*
X177038Y518756D01*
X180936Y518756D02*
X184834Y514858D01*
X188732Y516807D02*
X190681Y514858D01*
X194579Y514858D01*
X196528Y516807D01*
X196528Y524603D01*
X194579Y526552D01*
X190681Y526552D01*
X188732Y524603D01*
X188732Y522654D01*
X190681Y520705D01*
X196528Y520705D01*
X238476Y465592D02*
X238476Y453898D01*
X238476Y465592D02*
X244323Y465592D01*
X246272Y463643D01*
X246272Y459745D01*
X244323Y457796D01*
X238476Y457796D01*
X242374Y457796D02*
X246272Y453898D01*
X250170Y461694D02*
X254068Y465592D01*
X254068Y453898D01*
X250170Y453898D02*
X257966Y453898D01*
X261864Y453898D02*
X269660Y453898D01*
X261864Y453898D02*
X269660Y461694D01*
X269660Y463643D01*
X267711Y465592D01*
X263813Y465592D01*
X261864Y463643D01*
D11*
X999480Y397760D02*
X999480Y587760D01*
X999480Y397760D02*
X907480Y397760D01*
X907480Y587760D01*
X999480Y587760D01*
X999480Y313440D02*
X999480Y123440D01*
X907480Y123440D01*
X907480Y313440D01*
X999480Y313440D01*
X999480Y398100D02*
X907480Y398100D01*
X999480Y398100D02*
X999480Y313100D01*
X907480Y313100D01*
X907480Y398100D01*
X477520Y63500D02*
X477520Y33020D01*
X462280Y33020D01*
X462280Y63500D01*
X477520Y63500D01*
X571500Y63500D02*
X571500Y33020D01*
X556260Y33020D01*
X556260Y63500D01*
X571500Y63500D01*
M02*
