G04 EAGLE Gerber RS-274X export*
G75*
%MOMM*%
%FSLAX34Y34*%
%LPD*%
%INSolderpaste Top*%
%IPPOS*%
%AMOC8*
5,1,8,0,0,1.08239X$1,22.5*%
G01*
%ADD10R,1.800000X3.200000*%
%ADD11R,1.600000X1.803000*%
%ADD12R,1.600000X1.800000*%
%ADD13R,2.200000X0.600000*%
%ADD14R,1.803000X1.600000*%
%ADD15R,1.800000X1.600000*%
%ADD16R,1.270000X0.635000*%
%ADD17R,1.400000X1.400000*%
%ADD18R,1.300000X1.500000*%
%ADD19R,1.100000X0.700000*%
%ADD20R,2.800000X2.000000*%
%ADD21R,1.200000X0.400000*%
%ADD22R,1.524000X0.711200*%
%ADD23R,1.400000X1.900000*%
%ADD24R,0.500000X1.400000*%
%ADD25R,6.800000X4.400000*%
%ADD26R,1.600000X1.600000*%
%ADD27R,2.800000X3.800000*%
%ADD28R,0.711200X1.524000*%


D10*
X713800Y508000D03*
X657800Y508000D03*
D11*
X448560Y198120D03*
X420120Y198120D03*
X204720Y574040D03*
X176280Y574040D03*
D12*
X176500Y528320D03*
X204500Y528320D03*
D11*
X204720Y477520D03*
X176280Y477520D03*
D12*
X176500Y452120D03*
X204500Y452120D03*
D11*
X435860Y568960D03*
X407420Y568960D03*
X385060Y568960D03*
X356620Y568960D03*
D13*
X422240Y523240D03*
X370240Y523240D03*
X422240Y510540D03*
X422240Y535940D03*
X422240Y548640D03*
X370240Y510540D03*
X370240Y535940D03*
X370240Y548640D03*
D11*
X382020Y490220D03*
X410460Y490220D03*
D14*
X342900Y514100D03*
X342900Y542540D03*
X342900Y460760D03*
X342900Y489200D03*
D11*
X305820Y568960D03*
X334260Y568960D03*
D15*
X320040Y542320D03*
X320040Y514320D03*
X320040Y460980D03*
X320040Y488980D03*
D14*
X721360Y89920D03*
X721360Y118360D03*
D16*
X696800Y86520D03*
X674800Y96520D03*
X696800Y106520D03*
D14*
X812800Y89920D03*
X812800Y118360D03*
D16*
X788240Y86520D03*
X766240Y96520D03*
X788240Y106520D03*
D11*
X427740Y411480D03*
X456180Y411480D03*
D12*
X455960Y386080D03*
X427960Y386080D03*
D11*
X859540Y193040D03*
X887980Y193040D03*
D12*
X859760Y167640D03*
X887760Y167640D03*
D11*
X859540Y218440D03*
X887980Y218440D03*
D14*
X835660Y661920D03*
X835660Y633480D03*
X805180Y522220D03*
X805180Y493780D03*
D17*
X45720Y389940D03*
X45720Y427940D03*
X720040Y66040D03*
X682040Y66040D03*
D18*
X629200Y495300D03*
X629200Y520700D03*
X539200Y520700D03*
X539200Y495300D03*
D19*
X124180Y423940D03*
X124180Y393940D03*
D20*
X97680Y408940D03*
D19*
X124180Y408940D03*
D14*
X187960Y135640D03*
X187960Y164080D03*
D15*
X233680Y135860D03*
X233680Y163860D03*
D14*
X210820Y135640D03*
X210820Y164080D03*
D12*
X382240Y467360D03*
X410240Y467360D03*
D14*
X759460Y493780D03*
X759460Y522220D03*
D11*
X778260Y632460D03*
X806700Y632460D03*
D21*
G36*
X329549Y251822D02*
X338033Y243338D01*
X335205Y240510D01*
X326721Y248994D01*
X329549Y251822D01*
G37*
G36*
X323892Y246165D02*
X332376Y237681D01*
X329548Y234853D01*
X321064Y243337D01*
X323892Y246165D01*
G37*
G36*
X318235Y240508D02*
X326719Y232024D01*
X323891Y229196D01*
X315407Y237680D01*
X318235Y240508D01*
G37*
G36*
X312579Y234851D02*
X321063Y226367D01*
X318235Y223539D01*
X309751Y232023D01*
X312579Y234851D01*
G37*
G36*
X335206Y257479D02*
X343690Y248995D01*
X340862Y246167D01*
X332378Y254651D01*
X335206Y257479D01*
G37*
G36*
X340863Y263136D02*
X349347Y254652D01*
X346519Y251824D01*
X338035Y260308D01*
X340863Y263136D01*
G37*
G36*
X346520Y268793D02*
X355004Y260309D01*
X352176Y257481D01*
X343692Y265965D01*
X346520Y268793D01*
G37*
G36*
X352177Y274449D02*
X360661Y265965D01*
X357833Y263137D01*
X349349Y271621D01*
X352177Y274449D01*
G37*
G36*
X268738Y312633D02*
X277222Y304149D01*
X274394Y301321D01*
X265910Y309805D01*
X268738Y312633D01*
G37*
G36*
X263081Y306976D02*
X271565Y298492D01*
X268737Y295664D01*
X260253Y304148D01*
X263081Y306976D01*
G37*
G36*
X257424Y301319D02*
X265908Y292835D01*
X263080Y290007D01*
X254596Y298491D01*
X257424Y301319D01*
G37*
G36*
X251767Y295663D02*
X260251Y287179D01*
X257423Y284351D01*
X248939Y292835D01*
X251767Y295663D01*
G37*
G36*
X274395Y318290D02*
X282879Y309806D01*
X280051Y306978D01*
X271567Y315462D01*
X274395Y318290D01*
G37*
G36*
X280052Y323947D02*
X288536Y315463D01*
X285708Y312635D01*
X277224Y321119D01*
X280052Y323947D01*
G37*
G36*
X285709Y329604D02*
X294193Y321120D01*
X291365Y318292D01*
X282881Y326776D01*
X285709Y329604D01*
G37*
G36*
X291365Y335261D02*
X299849Y326777D01*
X297021Y323949D01*
X288537Y332433D01*
X291365Y335261D01*
G37*
G36*
X271567Y243338D02*
X280051Y251822D01*
X282879Y248994D01*
X274395Y240510D01*
X271567Y243338D01*
G37*
G36*
X277224Y237681D02*
X285708Y246165D01*
X288536Y243337D01*
X280052Y234853D01*
X277224Y237681D01*
G37*
G36*
X282881Y232024D02*
X291365Y240508D01*
X294193Y237680D01*
X285709Y229196D01*
X282881Y232024D01*
G37*
G36*
X288537Y226367D02*
X297021Y234851D01*
X299849Y232023D01*
X291365Y223539D01*
X288537Y226367D01*
G37*
G36*
X265910Y248995D02*
X274394Y257479D01*
X277222Y254651D01*
X268738Y246167D01*
X265910Y248995D01*
G37*
G36*
X260253Y254652D02*
X268737Y263136D01*
X271565Y260308D01*
X263081Y251824D01*
X260253Y254652D01*
G37*
G36*
X254596Y260309D02*
X263080Y268793D01*
X265908Y265965D01*
X257424Y257481D01*
X254596Y260309D01*
G37*
G36*
X248939Y265965D02*
X257423Y274449D01*
X260251Y271621D01*
X251767Y263137D01*
X248939Y265965D01*
G37*
G36*
X332378Y304149D02*
X340862Y312633D01*
X343690Y309805D01*
X335206Y301321D01*
X332378Y304149D01*
G37*
G36*
X338035Y298492D02*
X346519Y306976D01*
X349347Y304148D01*
X340863Y295664D01*
X338035Y298492D01*
G37*
G36*
X343692Y292835D02*
X352176Y301319D01*
X355004Y298491D01*
X346520Y290007D01*
X343692Y292835D01*
G37*
G36*
X349349Y287179D02*
X357833Y295663D01*
X360661Y292835D01*
X352177Y284351D01*
X349349Y287179D01*
G37*
G36*
X326721Y309806D02*
X335205Y318290D01*
X338033Y315462D01*
X329549Y306978D01*
X326721Y309806D01*
G37*
G36*
X321064Y315463D02*
X329548Y323947D01*
X332376Y321119D01*
X323892Y312635D01*
X321064Y315463D01*
G37*
G36*
X315407Y321120D02*
X323891Y329604D01*
X326719Y326776D01*
X318235Y318292D01*
X315407Y321120D01*
G37*
G36*
X309751Y326777D02*
X318235Y335261D01*
X321063Y332433D01*
X312579Y323949D01*
X309751Y326777D01*
G37*
D15*
X257810Y392460D03*
X257810Y364460D03*
X283210Y364460D03*
X283210Y392460D03*
D22*
X406400Y283210D03*
X406400Y270510D03*
X406400Y257810D03*
X406400Y245110D03*
X462280Y245110D03*
X462280Y257810D03*
X462280Y270510D03*
X462280Y283210D03*
D11*
X780800Y66040D03*
X809240Y66040D03*
D23*
X364560Y382200D03*
X364560Y338200D03*
X388560Y338200D03*
X388560Y382200D03*
D18*
X384900Y316870D03*
X367900Y316870D03*
X367900Y403230D03*
X384900Y403230D03*
D12*
X267940Y152400D03*
X295940Y152400D03*
D24*
X160840Y263900D03*
X152840Y263900D03*
X144840Y263900D03*
X136840Y263900D03*
X128840Y263900D03*
X120840Y263900D03*
X112840Y263900D03*
X104840Y263900D03*
X96840Y263900D03*
X88840Y263900D03*
X80840Y263900D03*
X72840Y263900D03*
X72840Y167900D03*
X80840Y167900D03*
X88840Y167900D03*
X96840Y167900D03*
X104840Y167900D03*
X112840Y167900D03*
X120840Y167900D03*
X128840Y167900D03*
X136840Y167900D03*
X144840Y167900D03*
X152840Y167900D03*
X160840Y167900D03*
D25*
X116840Y215900D03*
D14*
X88900Y298200D03*
X88900Y326640D03*
X114300Y298200D03*
X114300Y326640D03*
X139700Y298200D03*
X139700Y326640D03*
D11*
X206760Y276860D03*
X235200Y276860D03*
D17*
X110540Y66040D03*
X148540Y66040D03*
X204520Y66040D03*
X242520Y66040D03*
X301040Y66040D03*
X339040Y66040D03*
D14*
X187960Y244090D03*
X187960Y215650D03*
D17*
X213360Y210870D03*
X213360Y248870D03*
D12*
X214660Y187960D03*
X186660Y187960D03*
D26*
X68580Y391940D03*
X68580Y425940D03*
D11*
X427740Y304800D03*
X456180Y304800D03*
D12*
X448340Y223520D03*
X420340Y223520D03*
D27*
X153500Y622300D03*
X227500Y622300D03*
D28*
X529590Y147320D03*
X516890Y147320D03*
X504190Y147320D03*
X491490Y147320D03*
X491490Y91440D03*
X504190Y91440D03*
X516890Y91440D03*
X529590Y91440D03*
D17*
X529540Y66040D03*
X491540Y66040D03*
D28*
X623570Y147320D03*
X610870Y147320D03*
X598170Y147320D03*
X585470Y147320D03*
X585470Y91440D03*
X598170Y91440D03*
X610870Y91440D03*
X623570Y91440D03*
D17*
X623520Y66040D03*
X585520Y66040D03*
D11*
X273300Y528320D03*
X244860Y528320D03*
D12*
X273080Y502920D03*
X245080Y502920D03*
D15*
X147320Y422940D03*
X147320Y394940D03*
D17*
X171500Y551180D03*
X209500Y551180D03*
D11*
X204720Y502920D03*
X176280Y502920D03*
X244860Y477520D03*
X273300Y477520D03*
D26*
X469900Y65260D03*
X469900Y31260D03*
X563880Y65260D03*
X563880Y31260D03*
M02*
