G04 EAGLE Gerber RS-274X export*
G75*
%MOMM*%
%FSLAX34Y34*%
%LPD*%
%INSoldermask Bottom*%
%IPPOS*%
%AMOC8*
5,1,8,0,0,1.08239X$1,22.5*%
G01*
%ADD10P,2.492961X8X22.500000*%
%ADD11P,2.969212X8X22.500000*%
%ADD12C,1.727200*%
%ADD13R,3.203200X3.203200*%
%ADD14C,3.203200*%
%ADD15R,2.153200X2.153200*%
%ADD16C,1.209600*%


D10*
X518160Y350520D03*
X518160Y312420D03*
X518160Y236220D03*
X518160Y198120D03*
D11*
X516890Y584200D03*
X783590Y584200D03*
X516890Y431800D03*
X783590Y431800D03*
D12*
X109220Y599440D02*
X109220Y614680D01*
X58420Y614680D02*
X58420Y599440D01*
X381000Y195580D02*
X381000Y180340D01*
X355600Y180340D02*
X355600Y195580D01*
X330200Y195580D02*
X330200Y180340D01*
X304800Y180340D02*
X304800Y195580D01*
X279400Y195580D02*
X279400Y180340D01*
D13*
X128905Y678180D03*
X224155Y678180D03*
X319405Y678180D03*
X414655Y678180D03*
X509905Y678180D03*
X605155Y678180D03*
X700405Y678180D03*
X795655Y678180D03*
D14*
X33655Y678180D03*
X890905Y678180D03*
D13*
X795655Y33020D03*
X700405Y33020D03*
X605155Y33020D03*
X509905Y33020D03*
X414655Y33020D03*
X319405Y33020D03*
X224155Y33020D03*
X128905Y33020D03*
D14*
X890905Y33020D03*
X33655Y33020D03*
D15*
X919480Y562760D03*
X919480Y527760D03*
X919480Y492760D03*
X919480Y457760D03*
X919480Y422760D03*
X919480Y288440D03*
X919480Y253440D03*
X919480Y218440D03*
X919480Y183440D03*
X919480Y148440D03*
X919480Y373100D03*
X919480Y338100D03*
D16*
X223520Y452120D03*
X401320Y548640D03*
X285750Y297180D03*
X232410Y214630D03*
X360680Y234950D03*
X388620Y271780D03*
X376560Y360200D03*
X223520Y83820D03*
X314960Y144780D03*
X129540Y83820D03*
X695960Y121920D03*
X787400Y121920D03*
X467360Y223520D03*
X167640Y393700D03*
X270510Y411480D03*
X457200Y365760D03*
X430530Y467360D03*
X363220Y464820D03*
X492760Y119380D03*
X586740Y119380D03*
X320040Y83820D03*
X224790Y561340D03*
X424180Y243840D03*
X495300Y226060D03*
X220980Y307340D03*
X205740Y393700D03*
X325120Y271780D03*
X480060Y213360D03*
X83820Y66040D03*
X830580Y66040D03*
X739140Y66040D03*
X546100Y66040D03*
X640080Y66040D03*
X675640Y147320D03*
X708660Y147320D03*
X370840Y83820D03*
X408940Y127000D03*
X434340Y175260D03*
X220980Y393700D03*
X287020Y259080D03*
X388620Y256540D03*
X444500Y256540D03*
X326390Y294640D03*
X510540Y129540D03*
X477520Y139700D03*
X314960Y431800D03*
X289560Y457200D03*
X881380Y238760D03*
X406400Y444500D03*
X406400Y406400D03*
M02*
