G04 EAGLE Gerber RS-274X export*
G75*
%MOMM*%
%FSLAX34Y34*%
%LPD*%
%INBottom Copper*%
%IPPOS*%
%AMOC8*
5,1,8,0,0,1.08239X$1,22.5*%
G01*
%ADD10C,1.524000*%
%ADD11P,1.429621X8X202.500000*%
%ADD12R,1.308000X1.308000*%
%ADD13R,1.508000X1.508000*%
%ADD14R,1.950000X1.950000*%
%ADD15C,1.006400*%
%ADD16C,0.406400*%
%ADD17C,0.304800*%

G36*
X341619Y10162D02*
X341619Y10162D01*
X341628Y10161D01*
X341820Y10182D01*
X342011Y10201D01*
X342020Y10203D01*
X342029Y10204D01*
X342211Y10262D01*
X342396Y10319D01*
X342404Y10323D01*
X342413Y10326D01*
X342581Y10419D01*
X342750Y10511D01*
X342757Y10516D01*
X342765Y10521D01*
X342912Y10645D01*
X343059Y10768D01*
X343065Y10775D01*
X343072Y10781D01*
X343191Y10932D01*
X343312Y11082D01*
X343316Y11090D01*
X343321Y11097D01*
X343409Y11270D01*
X343497Y11439D01*
X343500Y11448D01*
X343504Y11456D01*
X343556Y11642D01*
X343609Y11826D01*
X343609Y11835D01*
X343612Y11844D01*
X343626Y12037D01*
X343642Y12228D01*
X343641Y12236D01*
X343641Y12245D01*
X343617Y12438D01*
X343595Y12627D01*
X343592Y12636D01*
X343591Y12645D01*
X343529Y12828D01*
X343470Y13010D01*
X343465Y13018D01*
X343463Y13026D01*
X343366Y13193D01*
X343272Y13361D01*
X343266Y13368D01*
X343262Y13375D01*
X343047Y13628D01*
X340164Y16511D01*
X335535Y24529D01*
X333139Y33471D01*
X333139Y42729D01*
X335535Y51671D01*
X340164Y59689D01*
X346711Y66236D01*
X354729Y70865D01*
X363671Y73261D01*
X372929Y73261D01*
X381871Y70865D01*
X389889Y66236D01*
X396436Y59689D01*
X401065Y51671D01*
X403461Y42729D01*
X403461Y33471D01*
X401065Y24529D01*
X396436Y16511D01*
X393553Y13628D01*
X393547Y13621D01*
X393541Y13616D01*
X393420Y13466D01*
X393298Y13317D01*
X393294Y13309D01*
X393288Y13302D01*
X393200Y13132D01*
X393109Y12961D01*
X393107Y12952D01*
X393103Y12945D01*
X393050Y12760D01*
X392995Y12575D01*
X392994Y12566D01*
X392991Y12558D01*
X392976Y12367D01*
X392958Y12174D01*
X392959Y12165D01*
X392958Y12156D01*
X392981Y11967D01*
X393002Y11774D01*
X393004Y11765D01*
X393005Y11757D01*
X393065Y11575D01*
X393123Y11390D01*
X393127Y11382D01*
X393130Y11374D01*
X393225Y11205D01*
X393318Y11038D01*
X393324Y11031D01*
X393328Y11023D01*
X393454Y10877D01*
X393578Y10731D01*
X393585Y10725D01*
X393591Y10718D01*
X393743Y10601D01*
X393894Y10481D01*
X393902Y10477D01*
X393909Y10472D01*
X394082Y10386D01*
X394253Y10299D01*
X394262Y10296D01*
X394270Y10292D01*
X394456Y10242D01*
X394641Y10191D01*
X394650Y10190D01*
X394659Y10188D01*
X394989Y10161D01*
X671811Y10161D01*
X671819Y10162D01*
X671828Y10161D01*
X672020Y10182D01*
X672211Y10201D01*
X672220Y10203D01*
X672229Y10204D01*
X672411Y10262D01*
X672596Y10319D01*
X672604Y10323D01*
X672613Y10326D01*
X672781Y10419D01*
X672950Y10511D01*
X672957Y10516D01*
X672965Y10521D01*
X673112Y10645D01*
X673259Y10768D01*
X673265Y10775D01*
X673272Y10781D01*
X673391Y10932D01*
X673512Y11082D01*
X673516Y11090D01*
X673521Y11097D01*
X673609Y11270D01*
X673697Y11439D01*
X673700Y11448D01*
X673704Y11456D01*
X673756Y11642D01*
X673809Y11826D01*
X673809Y11835D01*
X673812Y11844D01*
X673826Y12037D01*
X673842Y12228D01*
X673841Y12236D01*
X673841Y12245D01*
X673817Y12438D01*
X673795Y12627D01*
X673792Y12636D01*
X673791Y12645D01*
X673729Y12828D01*
X673670Y13010D01*
X673665Y13018D01*
X673663Y13026D01*
X673566Y13193D01*
X673472Y13361D01*
X673466Y13368D01*
X673462Y13375D01*
X673247Y13628D01*
X670364Y16511D01*
X665735Y24529D01*
X663339Y33471D01*
X663339Y42729D01*
X665735Y51671D01*
X670364Y59689D01*
X676911Y66236D01*
X684929Y70865D01*
X693871Y73261D01*
X703129Y73261D01*
X707558Y72074D01*
X707693Y72052D01*
X707827Y72021D01*
X707891Y72019D01*
X707955Y72009D01*
X708092Y72014D01*
X708230Y72010D01*
X708293Y72021D01*
X708357Y72023D01*
X708491Y72055D01*
X708626Y72079D01*
X708686Y72102D01*
X708749Y72117D01*
X708873Y72175D01*
X709002Y72224D01*
X709056Y72259D01*
X709114Y72286D01*
X709225Y72367D01*
X709341Y72441D01*
X709387Y72486D01*
X709439Y72524D01*
X709532Y72625D01*
X709631Y72720D01*
X709667Y72773D01*
X709711Y72821D01*
X709782Y72939D01*
X709860Y73051D01*
X709885Y73111D01*
X709919Y73166D01*
X709965Y73295D01*
X710019Y73421D01*
X710033Y73484D01*
X710054Y73545D01*
X710074Y73681D01*
X710103Y73815D01*
X710103Y73879D01*
X710112Y73943D01*
X710105Y74080D01*
X710106Y74218D01*
X710094Y74281D01*
X710091Y74345D01*
X710057Y74478D01*
X710031Y74613D01*
X710007Y74673D01*
X709991Y74735D01*
X709931Y74859D01*
X709879Y74986D01*
X709843Y75040D01*
X709815Y75098D01*
X709732Y75207D01*
X709656Y75321D01*
X709611Y75367D01*
X709572Y75418D01*
X709469Y75509D01*
X709372Y75606D01*
X709311Y75649D01*
X709270Y75685D01*
X709201Y75725D01*
X709099Y75795D01*
X708159Y76338D01*
X708068Y76379D01*
X707981Y76429D01*
X707864Y76471D01*
X707792Y76504D01*
X707738Y76516D01*
X707669Y76541D01*
X700616Y78431D01*
X700583Y78436D01*
X700552Y78447D01*
X700223Y78496D01*
X696573Y78735D01*
X696516Y78733D01*
X696440Y78739D01*
X523605Y78739D01*
X504255Y81804D01*
X485623Y87858D01*
X468168Y96752D01*
X452319Y108267D01*
X438467Y122119D01*
X426952Y137968D01*
X418058Y155424D01*
X412004Y174055D01*
X408939Y193405D01*
X408939Y212995D01*
X412004Y232345D01*
X418058Y250977D01*
X426952Y268432D01*
X438467Y284281D01*
X452319Y298133D01*
X468168Y309648D01*
X485623Y318542D01*
X504255Y324596D01*
X523605Y327661D01*
X698500Y327661D01*
X698556Y327666D01*
X698633Y327665D01*
X702015Y327887D01*
X702048Y327892D01*
X702081Y327892D01*
X702407Y327952D01*
X708940Y329702D01*
X709034Y329737D01*
X709130Y329763D01*
X709242Y329816D01*
X709317Y329844D01*
X709363Y329873D01*
X709430Y329905D01*
X711979Y331376D01*
X712036Y331418D01*
X712092Y331448D01*
X712139Y331487D01*
X712207Y331529D01*
X712253Y331574D01*
X712306Y331611D01*
X712367Y331677D01*
X712401Y331706D01*
X712429Y331740D01*
X712499Y331806D01*
X712536Y331859D01*
X712580Y331906D01*
X712636Y331998D01*
X712654Y332020D01*
X712666Y332043D01*
X712731Y332135D01*
X712757Y332194D01*
X712791Y332249D01*
X712834Y332366D01*
X712839Y332377D01*
X712843Y332388D01*
X712894Y332504D01*
X712907Y332567D01*
X712930Y332627D01*
X712951Y332763D01*
X712980Y332897D01*
X712981Y332961D01*
X712991Y333025D01*
X712985Y333162D01*
X712988Y333299D01*
X712976Y333363D01*
X712973Y333427D01*
X712940Y333560D01*
X712916Y333695D01*
X712892Y333755D01*
X712876Y333818D01*
X712818Y333942D01*
X712767Y334070D01*
X712732Y334124D01*
X712704Y334182D01*
X712622Y334292D01*
X712547Y334407D01*
X712502Y334453D01*
X712464Y334505D01*
X712362Y334596D01*
X712265Y334694D01*
X712212Y334731D01*
X712164Y334774D01*
X712046Y334844D01*
X711932Y334921D01*
X711873Y334946D01*
X711817Y334978D01*
X711688Y335024D01*
X711561Y335077D01*
X711498Y335090D01*
X711437Y335111D01*
X711301Y335129D01*
X711294Y335131D01*
X711283Y335134D01*
X711277Y335134D01*
X711166Y335157D01*
X711102Y335157D01*
X711038Y335165D01*
X710958Y335160D01*
X710953Y335161D01*
X710941Y335161D01*
X710901Y335157D01*
X710764Y335157D01*
X710691Y335144D01*
X710636Y335140D01*
X710577Y335125D01*
X710540Y335121D01*
X710503Y335109D01*
X710437Y335098D01*
X703129Y333139D01*
X693871Y333139D01*
X684929Y335535D01*
X676911Y340164D01*
X670364Y346711D01*
X665735Y354729D01*
X663339Y363671D01*
X663339Y372929D01*
X665735Y381871D01*
X670364Y389889D01*
X673247Y392772D01*
X673253Y392779D01*
X673259Y392784D01*
X673380Y392934D01*
X673502Y393083D01*
X673506Y393091D01*
X673512Y393098D01*
X673600Y393268D01*
X673691Y393439D01*
X673693Y393448D01*
X673697Y393455D01*
X673750Y393640D01*
X673805Y393825D01*
X673806Y393834D01*
X673809Y393842D01*
X673824Y394033D01*
X673842Y394226D01*
X673841Y394235D01*
X673842Y394244D01*
X673819Y394433D01*
X673798Y394626D01*
X673796Y394635D01*
X673795Y394643D01*
X673735Y394825D01*
X673677Y395010D01*
X673673Y395018D01*
X673670Y395026D01*
X673575Y395195D01*
X673482Y395362D01*
X673476Y395369D01*
X673472Y395377D01*
X673346Y395523D01*
X673222Y395669D01*
X673215Y395675D01*
X673209Y395682D01*
X673057Y395799D01*
X672906Y395919D01*
X672898Y395923D01*
X672891Y395928D01*
X672719Y396014D01*
X672547Y396101D01*
X672538Y396104D01*
X672530Y396108D01*
X672344Y396158D01*
X672159Y396209D01*
X672150Y396210D01*
X672141Y396212D01*
X671811Y396239D01*
X394989Y396239D01*
X394981Y396238D01*
X394972Y396239D01*
X394780Y396218D01*
X394589Y396199D01*
X394580Y396197D01*
X394571Y396196D01*
X394389Y396138D01*
X394204Y396081D01*
X394196Y396077D01*
X394187Y396074D01*
X394019Y395981D01*
X393850Y395889D01*
X393843Y395884D01*
X393835Y395879D01*
X393688Y395755D01*
X393541Y395632D01*
X393535Y395625D01*
X393528Y395619D01*
X393409Y395468D01*
X393288Y395318D01*
X393284Y395310D01*
X393279Y395303D01*
X393191Y395130D01*
X393103Y394961D01*
X393100Y394952D01*
X393096Y394944D01*
X393044Y394758D01*
X392991Y394574D01*
X392991Y394565D01*
X392988Y394556D01*
X392974Y394363D01*
X392958Y394172D01*
X392959Y394164D01*
X392959Y394155D01*
X392983Y393962D01*
X393005Y393773D01*
X393008Y393764D01*
X393009Y393755D01*
X393071Y393572D01*
X393130Y393390D01*
X393135Y393382D01*
X393137Y393374D01*
X393235Y393205D01*
X393328Y393039D01*
X393334Y393032D01*
X393338Y393025D01*
X393553Y392772D01*
X396436Y389889D01*
X401065Y381871D01*
X403461Y372929D01*
X403461Y363671D01*
X401065Y354729D01*
X396436Y346711D01*
X389889Y340164D01*
X381871Y335535D01*
X372929Y333139D01*
X363671Y333139D01*
X354729Y335535D01*
X346711Y340164D01*
X340164Y346711D01*
X335535Y354729D01*
X333139Y363671D01*
X333139Y372929D01*
X335535Y381871D01*
X340164Y389889D01*
X343047Y392772D01*
X343053Y392779D01*
X343059Y392784D01*
X343180Y392934D01*
X343302Y393083D01*
X343306Y393091D01*
X343312Y393098D01*
X343400Y393268D01*
X343491Y393439D01*
X343493Y393448D01*
X343497Y393455D01*
X343550Y393640D01*
X343605Y393825D01*
X343606Y393834D01*
X343609Y393842D01*
X343624Y394033D01*
X343642Y394226D01*
X343641Y394235D01*
X343642Y394244D01*
X343619Y394433D01*
X343598Y394626D01*
X343596Y394635D01*
X343595Y394643D01*
X343535Y394825D01*
X343477Y395010D01*
X343473Y395018D01*
X343470Y395026D01*
X343375Y395195D01*
X343282Y395362D01*
X343276Y395369D01*
X343272Y395377D01*
X343146Y395523D01*
X343022Y395669D01*
X343015Y395675D01*
X343009Y395682D01*
X342857Y395799D01*
X342706Y395919D01*
X342698Y395923D01*
X342691Y395928D01*
X342519Y396014D01*
X342347Y396101D01*
X342338Y396104D01*
X342330Y396108D01*
X342144Y396158D01*
X341959Y396209D01*
X341950Y396210D01*
X341941Y396212D01*
X341611Y396239D01*
X74021Y396239D01*
X73965Y396234D01*
X73888Y396235D01*
X72164Y396122D01*
X72131Y396116D01*
X72098Y396116D01*
X71771Y396057D01*
X68441Y395165D01*
X68347Y395129D01*
X68251Y395104D01*
X68139Y395051D01*
X68064Y395022D01*
X68018Y394993D01*
X67951Y394962D01*
X64965Y393238D01*
X64938Y393218D01*
X64908Y393204D01*
X64642Y393006D01*
X63343Y391867D01*
X63304Y391826D01*
X63245Y391776D01*
X14624Y343155D01*
X14588Y343111D01*
X14533Y343057D01*
X13394Y341758D01*
X13374Y341731D01*
X13351Y341708D01*
X13162Y341435D01*
X11438Y338449D01*
X11397Y338358D01*
X11347Y338271D01*
X11305Y338155D01*
X11272Y338082D01*
X11260Y338029D01*
X11235Y337959D01*
X10343Y334629D01*
X10338Y334596D01*
X10327Y334564D01*
X10278Y334236D01*
X10165Y332512D01*
X10167Y332455D01*
X10161Y332379D01*
X10161Y325613D01*
X10162Y325604D01*
X10161Y325595D01*
X10182Y325402D01*
X10201Y325212D01*
X10203Y325204D01*
X10204Y325195D01*
X10263Y325010D01*
X10319Y324827D01*
X10323Y324820D01*
X10326Y324811D01*
X10419Y324643D01*
X10511Y324473D01*
X10516Y324467D01*
X10521Y324459D01*
X10645Y324312D01*
X10768Y324164D01*
X10775Y324159D01*
X10781Y324152D01*
X10933Y324032D01*
X11082Y323912D01*
X11090Y323908D01*
X11097Y323902D01*
X11270Y323814D01*
X11439Y323726D01*
X11448Y323724D01*
X11456Y323720D01*
X11642Y323668D01*
X11826Y323615D01*
X11835Y323614D01*
X11844Y323612D01*
X12037Y323598D01*
X12228Y323582D01*
X12236Y323583D01*
X12245Y323582D01*
X12438Y323607D01*
X12627Y323629D01*
X12636Y323632D01*
X12645Y323633D01*
X12827Y323694D01*
X13010Y323754D01*
X13018Y323758D01*
X13026Y323761D01*
X13193Y323857D01*
X13361Y323952D01*
X13368Y323957D01*
X13375Y323962D01*
X13628Y324177D01*
X72468Y383017D01*
X73898Y384446D01*
X75391Y385065D01*
X210509Y385065D01*
X212002Y384446D01*
X228471Y367978D01*
X228491Y367961D01*
X228509Y367940D01*
X228647Y367833D01*
X228782Y367723D01*
X228806Y367710D01*
X228827Y367694D01*
X228984Y367616D01*
X229138Y367534D01*
X229163Y367526D01*
X229188Y367514D01*
X229357Y367469D01*
X229524Y367419D01*
X229550Y367417D01*
X229576Y367410D01*
X229907Y367383D01*
X245692Y367383D01*
X246883Y366192D01*
X246883Y345008D01*
X245692Y343817D01*
X224508Y343817D01*
X223317Y345008D01*
X223317Y360793D01*
X223315Y360820D01*
X223317Y360846D01*
X223295Y361020D01*
X223277Y361194D01*
X223270Y361219D01*
X223266Y361246D01*
X223211Y361411D01*
X223159Y361578D01*
X223146Y361602D01*
X223138Y361627D01*
X223051Y361779D01*
X222967Y361933D01*
X222950Y361953D01*
X222937Y361976D01*
X222722Y362229D01*
X208611Y376340D01*
X208591Y376357D01*
X208573Y376378D01*
X208435Y376485D01*
X208300Y376595D01*
X208276Y376608D01*
X208255Y376624D01*
X208098Y376702D01*
X207944Y376784D01*
X207919Y376792D01*
X207894Y376804D01*
X207725Y376849D01*
X207558Y376899D01*
X207532Y376901D01*
X207506Y376908D01*
X207175Y376935D01*
X78725Y376935D01*
X78698Y376933D01*
X78672Y376935D01*
X78498Y376913D01*
X78324Y376895D01*
X78299Y376888D01*
X78272Y376884D01*
X78107Y376829D01*
X77940Y376777D01*
X77916Y376764D01*
X77891Y376756D01*
X77739Y376669D01*
X77585Y376585D01*
X77565Y376568D01*
X77542Y376555D01*
X77289Y376340D01*
X17360Y316411D01*
X17343Y316391D01*
X17322Y316373D01*
X17215Y316235D01*
X17105Y316100D01*
X17092Y316076D01*
X17076Y316055D01*
X16998Y315898D01*
X16916Y315744D01*
X16908Y315719D01*
X16896Y315694D01*
X16851Y315525D01*
X16801Y315358D01*
X16799Y315332D01*
X16792Y315306D01*
X16765Y314975D01*
X16765Y196585D01*
X16779Y196440D01*
X16786Y196294D01*
X16799Y196240D01*
X16805Y196185D01*
X16847Y196045D01*
X16883Y195903D01*
X16906Y195853D01*
X16923Y195800D01*
X16992Y195671D01*
X17055Y195539D01*
X17088Y195495D01*
X17115Y195446D01*
X17208Y195334D01*
X17296Y195216D01*
X17337Y195179D01*
X17372Y195137D01*
X17486Y195045D01*
X17595Y194947D01*
X17643Y194919D01*
X17686Y194884D01*
X17816Y194817D01*
X17942Y194742D01*
X17994Y194724D01*
X18043Y194699D01*
X18184Y194658D01*
X18322Y194610D01*
X18377Y194603D01*
X18430Y194587D01*
X18576Y194575D01*
X18721Y194555D01*
X18776Y194559D01*
X18832Y194554D01*
X18976Y194571D01*
X19123Y194581D01*
X19176Y194595D01*
X19231Y194601D01*
X19370Y194647D01*
X19512Y194684D01*
X19569Y194711D01*
X19614Y194726D01*
X19687Y194767D01*
X19763Y194803D01*
X20425Y194981D01*
X25801Y194981D01*
X25801Y185368D01*
X25802Y185350D01*
X25801Y185333D01*
X25822Y185150D01*
X25841Y184968D01*
X25846Y184951D01*
X25848Y184933D01*
X25861Y184892D01*
X25834Y184798D01*
X25832Y184780D01*
X25828Y184763D01*
X25801Y184432D01*
X25801Y174819D01*
X20425Y174819D01*
X19757Y174998D01*
X19678Y175034D01*
X19549Y175101D01*
X19495Y175117D01*
X19445Y175139D01*
X19302Y175172D01*
X19162Y175213D01*
X19106Y175217D01*
X19052Y175230D01*
X18906Y175234D01*
X18760Y175246D01*
X18705Y175239D01*
X18650Y175241D01*
X18506Y175216D01*
X18361Y175199D01*
X18308Y175181D01*
X18253Y175172D01*
X18117Y175119D01*
X17978Y175074D01*
X17929Y175047D01*
X17878Y175027D01*
X17755Y174948D01*
X17627Y174876D01*
X17585Y174840D01*
X17538Y174810D01*
X17433Y174708D01*
X17322Y174613D01*
X17289Y174569D01*
X17249Y174530D01*
X17165Y174410D01*
X17076Y174295D01*
X17051Y174245D01*
X17019Y174199D01*
X16962Y174065D01*
X16896Y173934D01*
X16882Y173880D01*
X16860Y173830D01*
X16830Y173687D01*
X16792Y173545D01*
X16787Y173482D01*
X16777Y173436D01*
X16776Y173352D01*
X16765Y173215D01*
X16765Y131585D01*
X16779Y131440D01*
X16786Y131294D01*
X16799Y131240D01*
X16805Y131185D01*
X16847Y131045D01*
X16883Y130903D01*
X16906Y130853D01*
X16923Y130800D01*
X16992Y130671D01*
X17055Y130539D01*
X17088Y130495D01*
X17115Y130446D01*
X17208Y130334D01*
X17296Y130216D01*
X17337Y130179D01*
X17372Y130137D01*
X17486Y130045D01*
X17595Y129947D01*
X17643Y129919D01*
X17686Y129884D01*
X17816Y129817D01*
X17942Y129742D01*
X17994Y129724D01*
X18043Y129699D01*
X18184Y129658D01*
X18322Y129610D01*
X18377Y129603D01*
X18430Y129587D01*
X18576Y129575D01*
X18721Y129555D01*
X18776Y129559D01*
X18832Y129554D01*
X18976Y129571D01*
X19123Y129581D01*
X19176Y129595D01*
X19231Y129601D01*
X19370Y129647D01*
X19512Y129684D01*
X19569Y129711D01*
X19614Y129726D01*
X19687Y129767D01*
X19763Y129803D01*
X20425Y129981D01*
X25801Y129981D01*
X25801Y120368D01*
X25802Y120350D01*
X25801Y120333D01*
X25822Y120150D01*
X25841Y119968D01*
X25846Y119951D01*
X25848Y119933D01*
X25861Y119892D01*
X25834Y119798D01*
X25832Y119780D01*
X25828Y119763D01*
X25801Y119432D01*
X25801Y109819D01*
X20425Y109819D01*
X19757Y109998D01*
X19678Y110034D01*
X19549Y110101D01*
X19495Y110117D01*
X19445Y110139D01*
X19302Y110172D01*
X19162Y110213D01*
X19106Y110217D01*
X19052Y110230D01*
X18906Y110234D01*
X18760Y110246D01*
X18705Y110239D01*
X18650Y110241D01*
X18506Y110216D01*
X18361Y110199D01*
X18308Y110181D01*
X18253Y110172D01*
X18117Y110119D01*
X17978Y110074D01*
X17929Y110047D01*
X17878Y110027D01*
X17755Y109948D01*
X17627Y109876D01*
X17585Y109840D01*
X17538Y109810D01*
X17433Y109708D01*
X17322Y109613D01*
X17289Y109569D01*
X17249Y109530D01*
X17165Y109410D01*
X17076Y109295D01*
X17051Y109245D01*
X17019Y109199D01*
X16962Y109065D01*
X16896Y108934D01*
X16882Y108880D01*
X16860Y108830D01*
X16830Y108687D01*
X16792Y108545D01*
X16787Y108482D01*
X16777Y108436D01*
X16776Y108352D01*
X16765Y108215D01*
X16765Y78725D01*
X16767Y78698D01*
X16765Y78672D01*
X16787Y78498D01*
X16805Y78324D01*
X16812Y78299D01*
X16816Y78272D01*
X16871Y78107D01*
X16923Y77940D01*
X16936Y77916D01*
X16944Y77891D01*
X17031Y77739D01*
X17115Y77585D01*
X17132Y77565D01*
X17145Y77542D01*
X17360Y77289D01*
X39189Y55460D01*
X39209Y55443D01*
X39227Y55422D01*
X39365Y55315D01*
X39500Y55205D01*
X39524Y55192D01*
X39545Y55176D01*
X39702Y55098D01*
X39856Y55016D01*
X39881Y55008D01*
X39906Y54996D01*
X40075Y54951D01*
X40242Y54901D01*
X40268Y54899D01*
X40294Y54892D01*
X40625Y54865D01*
X81286Y54865D01*
X81304Y54867D01*
X81322Y54865D01*
X81504Y54886D01*
X81687Y54905D01*
X81704Y54910D01*
X81721Y54912D01*
X81896Y54969D01*
X82072Y55023D01*
X82087Y55031D01*
X82104Y55037D01*
X82264Y55127D01*
X82426Y55215D01*
X82439Y55226D01*
X82455Y55235D01*
X82594Y55355D01*
X82735Y55472D01*
X82746Y55486D01*
X82760Y55498D01*
X82872Y55643D01*
X82987Y55786D01*
X82995Y55802D01*
X83006Y55816D01*
X83088Y55981D01*
X83173Y56143D01*
X83178Y56160D01*
X83186Y56176D01*
X83233Y56355D01*
X83284Y56530D01*
X83286Y56548D01*
X83290Y56565D01*
X83317Y56896D01*
X83317Y61392D01*
X84508Y62583D01*
X105692Y62583D01*
X106883Y61392D01*
X106883Y40208D01*
X105692Y39017D01*
X84508Y39017D01*
X83317Y40208D01*
X83317Y44704D01*
X83316Y44716D01*
X83317Y44728D01*
X83316Y44732D01*
X83317Y44740D01*
X83296Y44922D01*
X83277Y45105D01*
X83272Y45122D01*
X83270Y45139D01*
X83213Y45314D01*
X83159Y45490D01*
X83151Y45505D01*
X83145Y45522D01*
X83055Y45682D01*
X82967Y45844D01*
X82956Y45857D01*
X82947Y45873D01*
X82827Y46012D01*
X82710Y46153D01*
X82696Y46164D01*
X82684Y46178D01*
X82539Y46290D01*
X82396Y46405D01*
X82380Y46413D01*
X82366Y46424D01*
X82201Y46506D01*
X82039Y46591D01*
X82022Y46596D01*
X82006Y46604D01*
X81827Y46651D01*
X81652Y46702D01*
X81634Y46704D01*
X81617Y46708D01*
X81286Y46735D01*
X37291Y46735D01*
X36215Y47181D01*
X36210Y47183D01*
X36206Y47185D01*
X36020Y47240D01*
X35829Y47298D01*
X35825Y47298D01*
X35821Y47299D01*
X35622Y47317D01*
X35429Y47336D01*
X35424Y47335D01*
X35420Y47336D01*
X35217Y47314D01*
X35028Y47294D01*
X35024Y47293D01*
X35019Y47292D01*
X34827Y47232D01*
X34644Y47174D01*
X34640Y47172D01*
X34636Y47171D01*
X34462Y47075D01*
X34290Y46981D01*
X34287Y46978D01*
X34283Y46976D01*
X34133Y46849D01*
X33982Y46722D01*
X33980Y46719D01*
X33976Y46716D01*
X33853Y46560D01*
X33731Y46407D01*
X33729Y46403D01*
X33727Y46400D01*
X33637Y46223D01*
X33547Y46049D01*
X33546Y46045D01*
X33544Y46041D01*
X33489Y45844D01*
X33438Y45662D01*
X33437Y45657D01*
X33436Y45653D01*
X33421Y45445D01*
X33407Y45260D01*
X33407Y45256D01*
X33407Y45251D01*
X33432Y45051D01*
X33455Y44861D01*
X33457Y44856D01*
X33457Y44852D01*
X33520Y44665D01*
X33582Y44478D01*
X33584Y44474D01*
X33585Y44470D01*
X33684Y44300D01*
X33781Y44129D01*
X33784Y44125D01*
X33786Y44121D01*
X34001Y43868D01*
X63245Y14624D01*
X63289Y14588D01*
X63343Y14533D01*
X64642Y13394D01*
X64669Y13374D01*
X64692Y13351D01*
X64965Y13162D01*
X67951Y11438D01*
X68042Y11397D01*
X68129Y11347D01*
X68245Y11305D01*
X68318Y11272D01*
X68371Y11260D01*
X68441Y11235D01*
X71771Y10343D01*
X71804Y10338D01*
X71836Y10327D01*
X72164Y10278D01*
X73888Y10165D01*
X73945Y10167D01*
X74021Y10161D01*
X341611Y10161D01*
X341619Y10162D01*
G37*
%LPC*%
G36*
X194175Y193595D02*
X194175Y193595D01*
X191578Y194671D01*
X189591Y196658D01*
X188515Y199255D01*
X188515Y202065D01*
X189591Y204662D01*
X191578Y206649D01*
X194175Y207725D01*
X196773Y207725D01*
X196800Y207727D01*
X196827Y207725D01*
X197001Y207747D01*
X197174Y207765D01*
X197199Y207772D01*
X197226Y207776D01*
X197392Y207831D01*
X197559Y207883D01*
X197582Y207896D01*
X197608Y207904D01*
X197759Y207991D01*
X197913Y208075D01*
X197933Y208092D01*
X197957Y208105D01*
X198210Y208320D01*
X204128Y214238D01*
X204145Y214259D01*
X204166Y214277D01*
X204273Y214414D01*
X204383Y214550D01*
X204396Y214573D01*
X204412Y214595D01*
X204490Y214752D01*
X204572Y214906D01*
X204580Y214931D01*
X204592Y214955D01*
X204637Y215125D01*
X204687Y215291D01*
X204689Y215318D01*
X204696Y215344D01*
X204723Y215675D01*
X204723Y265633D01*
X270307Y331217D01*
X281768Y331217D01*
X281790Y331219D01*
X281812Y331217D01*
X281990Y331239D01*
X282169Y331257D01*
X282190Y331263D01*
X282212Y331266D01*
X282383Y331322D01*
X282553Y331375D01*
X282573Y331385D01*
X282594Y331392D01*
X282750Y331481D01*
X282908Y331567D01*
X282925Y331581D01*
X282944Y331592D01*
X283079Y331710D01*
X283217Y331824D01*
X283231Y331842D01*
X283248Y331856D01*
X283357Y331998D01*
X283469Y332138D01*
X283479Y332158D01*
X283493Y332175D01*
X283645Y332471D01*
X283917Y333128D01*
X286632Y335843D01*
X290180Y337313D01*
X309260Y337313D01*
X312808Y335843D01*
X315523Y333128D01*
X316993Y329580D01*
X316993Y325740D01*
X315523Y322192D01*
X312808Y319477D01*
X309260Y318007D01*
X290180Y318007D01*
X286632Y319477D01*
X283917Y322192D01*
X283645Y322849D01*
X283634Y322869D01*
X283627Y322890D01*
X283539Y323046D01*
X283454Y323204D01*
X283440Y323221D01*
X283429Y323241D01*
X283312Y323376D01*
X283198Y323515D01*
X283181Y323529D01*
X283166Y323546D01*
X283025Y323655D01*
X282885Y323768D01*
X282866Y323779D01*
X282848Y323792D01*
X282688Y323872D01*
X282529Y323955D01*
X282507Y323962D01*
X282487Y323972D01*
X282314Y324018D01*
X282142Y324068D01*
X282120Y324070D01*
X282099Y324076D01*
X281768Y324103D01*
X274095Y324103D01*
X274068Y324101D01*
X274041Y324103D01*
X273867Y324081D01*
X273694Y324063D01*
X273669Y324056D01*
X273642Y324052D01*
X273476Y323997D01*
X273309Y323945D01*
X273286Y323932D01*
X273260Y323924D01*
X273109Y323837D01*
X272955Y323753D01*
X272935Y323736D01*
X272911Y323723D01*
X272658Y323508D01*
X212432Y263282D01*
X212415Y263261D01*
X212394Y263243D01*
X212287Y263106D01*
X212177Y262970D01*
X212164Y262947D01*
X212148Y262925D01*
X212070Y262768D01*
X211988Y262614D01*
X211980Y262589D01*
X211968Y262565D01*
X211923Y262395D01*
X211873Y262229D01*
X211871Y262202D01*
X211864Y262176D01*
X211837Y261845D01*
X211837Y256872D01*
X211838Y256858D01*
X211837Y256845D01*
X211858Y256659D01*
X211877Y256471D01*
X211881Y256458D01*
X211882Y256445D01*
X211939Y256267D01*
X211995Y256086D01*
X212001Y256074D01*
X212005Y256062D01*
X212097Y255897D01*
X212187Y255732D01*
X212195Y255722D01*
X212202Y255710D01*
X212325Y255566D01*
X212444Y255423D01*
X212455Y255414D01*
X212463Y255404D01*
X212612Y255288D01*
X212758Y255170D01*
X212770Y255164D01*
X212780Y255156D01*
X212950Y255071D01*
X213115Y254985D01*
X213128Y254981D01*
X213140Y254975D01*
X213322Y254925D01*
X213502Y254874D01*
X213516Y254872D01*
X213529Y254869D01*
X213715Y254856D01*
X213904Y254841D01*
X213917Y254842D01*
X213930Y254841D01*
X214117Y254866D01*
X214303Y254888D01*
X214316Y254892D01*
X214329Y254893D01*
X214645Y254995D01*
X217035Y255985D01*
X219633Y255985D01*
X219660Y255987D01*
X219687Y255985D01*
X219861Y256007D01*
X220034Y256025D01*
X220059Y256032D01*
X220086Y256036D01*
X220252Y256091D01*
X220419Y256143D01*
X220442Y256156D01*
X220468Y256164D01*
X220619Y256251D01*
X220773Y256335D01*
X220793Y256352D01*
X220817Y256365D01*
X221070Y256580D01*
X270307Y305817D01*
X281768Y305817D01*
X281790Y305819D01*
X281812Y305817D01*
X281990Y305839D01*
X282169Y305857D01*
X282190Y305863D01*
X282212Y305866D01*
X282383Y305922D01*
X282553Y305975D01*
X282573Y305985D01*
X282594Y305992D01*
X282750Y306081D01*
X282908Y306167D01*
X282925Y306181D01*
X282944Y306192D01*
X283079Y306310D01*
X283217Y306424D01*
X283231Y306442D01*
X283248Y306456D01*
X283357Y306598D01*
X283469Y306738D01*
X283479Y306758D01*
X283493Y306775D01*
X283645Y307071D01*
X283917Y307728D01*
X286632Y310443D01*
X287841Y310944D01*
X290180Y311913D01*
X309260Y311913D01*
X312808Y310443D01*
X315523Y307728D01*
X316993Y304180D01*
X316993Y300340D01*
X315523Y296792D01*
X312808Y294077D01*
X309260Y292607D01*
X290180Y292607D01*
X286632Y294077D01*
X283917Y296792D01*
X283645Y297449D01*
X283634Y297469D01*
X283627Y297490D01*
X283539Y297646D01*
X283454Y297804D01*
X283440Y297821D01*
X283429Y297841D01*
X283312Y297976D01*
X283198Y298115D01*
X283181Y298129D01*
X283166Y298146D01*
X283025Y298255D01*
X282885Y298368D01*
X282866Y298379D01*
X282848Y298392D01*
X282688Y298472D01*
X282529Y298555D01*
X282507Y298562D01*
X282487Y298572D01*
X282314Y298618D01*
X282142Y298668D01*
X282120Y298670D01*
X282099Y298676D01*
X281768Y298703D01*
X274095Y298703D01*
X274068Y298701D01*
X274041Y298703D01*
X273867Y298681D01*
X273694Y298663D01*
X273669Y298656D01*
X273642Y298652D01*
X273476Y298597D01*
X273309Y298545D01*
X273286Y298532D01*
X273260Y298524D01*
X273109Y298437D01*
X272955Y298353D01*
X272935Y298336D01*
X272911Y298323D01*
X272658Y298108D01*
X258434Y283884D01*
X258429Y283877D01*
X258422Y283872D01*
X258301Y283722D01*
X258179Y283573D01*
X258175Y283565D01*
X258169Y283558D01*
X258081Y283388D01*
X257991Y283217D01*
X257988Y283208D01*
X257984Y283201D01*
X257931Y283016D01*
X257876Y282831D01*
X257875Y282822D01*
X257873Y282814D01*
X257857Y282621D01*
X257839Y282430D01*
X257840Y282421D01*
X257840Y282412D01*
X257862Y282223D01*
X257883Y282030D01*
X257886Y282021D01*
X257887Y282013D01*
X257946Y281831D01*
X258004Y281646D01*
X258009Y281638D01*
X258011Y281630D01*
X258106Y281461D01*
X258199Y281294D01*
X258205Y281287D01*
X258209Y281279D01*
X258335Y281133D01*
X258460Y280987D01*
X258467Y280981D01*
X258472Y280974D01*
X258624Y280857D01*
X258776Y280737D01*
X258784Y280733D01*
X258791Y280728D01*
X258963Y280642D01*
X259134Y280555D01*
X259143Y280552D01*
X259151Y280548D01*
X259338Y280498D01*
X259522Y280447D01*
X259531Y280446D01*
X259540Y280444D01*
X259871Y280417D01*
X281768Y280417D01*
X281790Y280419D01*
X281812Y280417D01*
X281990Y280439D01*
X282169Y280457D01*
X282190Y280463D01*
X282212Y280466D01*
X282383Y280522D01*
X282553Y280575D01*
X282573Y280585D01*
X282594Y280592D01*
X282750Y280681D01*
X282908Y280767D01*
X282925Y280781D01*
X282944Y280792D01*
X283079Y280910D01*
X283217Y281024D01*
X283231Y281042D01*
X283248Y281056D01*
X283357Y281198D01*
X283469Y281338D01*
X283479Y281358D01*
X283493Y281375D01*
X283645Y281671D01*
X283917Y282328D01*
X286632Y285043D01*
X290180Y286513D01*
X309260Y286513D01*
X312808Y285043D01*
X315523Y282328D01*
X316993Y278780D01*
X316993Y274940D01*
X315523Y271392D01*
X312808Y268677D01*
X309260Y267207D01*
X290180Y267207D01*
X286632Y268677D01*
X283917Y271392D01*
X283645Y272049D01*
X283634Y272069D01*
X283627Y272090D01*
X283539Y272246D01*
X283454Y272404D01*
X283440Y272421D01*
X283429Y272441D01*
X283312Y272576D01*
X283198Y272715D01*
X283181Y272729D01*
X283166Y272746D01*
X283025Y272855D01*
X282885Y272968D01*
X282866Y272979D01*
X282848Y272992D01*
X282688Y273072D01*
X282529Y273155D01*
X282507Y273162D01*
X282487Y273172D01*
X282314Y273218D01*
X282142Y273268D01*
X282120Y273270D01*
X282099Y273276D01*
X281768Y273303D01*
X263935Y273303D01*
X263908Y273301D01*
X263881Y273303D01*
X263707Y273281D01*
X263534Y273263D01*
X263509Y273256D01*
X263482Y273252D01*
X263316Y273197D01*
X263149Y273145D01*
X263126Y273132D01*
X263100Y273124D01*
X262949Y273037D01*
X262795Y272953D01*
X262775Y272936D01*
X262751Y272923D01*
X262498Y272708D01*
X226100Y236310D01*
X226083Y236289D01*
X226062Y236271D01*
X225955Y236134D01*
X225845Y235998D01*
X225832Y235975D01*
X225816Y235953D01*
X225738Y235796D01*
X225656Y235642D01*
X225648Y235617D01*
X225636Y235593D01*
X225591Y235423D01*
X225541Y235257D01*
X225539Y235230D01*
X225532Y235204D01*
X225505Y234873D01*
X225505Y232275D01*
X224429Y229678D01*
X222442Y227691D01*
X219845Y226615D01*
X217035Y226615D01*
X214645Y227605D01*
X214632Y227609D01*
X214621Y227615D01*
X214441Y227667D01*
X214260Y227721D01*
X214247Y227723D01*
X214234Y227726D01*
X214046Y227742D01*
X213859Y227760D01*
X213846Y227758D01*
X213832Y227759D01*
X213646Y227737D01*
X213459Y227718D01*
X213446Y227714D01*
X213433Y227712D01*
X213253Y227654D01*
X213074Y227598D01*
X213063Y227592D01*
X213050Y227588D01*
X212885Y227495D01*
X212721Y227405D01*
X212711Y227396D01*
X212699Y227390D01*
X212557Y227267D01*
X212413Y227146D01*
X212405Y227135D01*
X212394Y227127D01*
X212280Y226979D01*
X212162Y226831D01*
X212156Y226819D01*
X212148Y226808D01*
X212064Y226640D01*
X211978Y226473D01*
X211974Y226460D01*
X211968Y226448D01*
X211919Y226265D01*
X211868Y226085D01*
X211867Y226072D01*
X211864Y226059D01*
X211837Y225728D01*
X211837Y211887D01*
X203240Y203290D01*
X203223Y203269D01*
X203202Y203251D01*
X203095Y203114D01*
X202985Y202978D01*
X202972Y202955D01*
X202956Y202933D01*
X202878Y202776D01*
X202796Y202622D01*
X202788Y202597D01*
X202776Y202573D01*
X202731Y202403D01*
X202681Y202237D01*
X202679Y202210D01*
X202672Y202184D01*
X202645Y201853D01*
X202645Y199255D01*
X201569Y196658D01*
X199582Y194671D01*
X196985Y193595D01*
X194175Y193595D01*
G37*
%LPD*%
%LPC*%
G36*
X128135Y269795D02*
X128135Y269795D01*
X125538Y270871D01*
X123551Y272858D01*
X122475Y275455D01*
X122475Y278265D01*
X123551Y280862D01*
X125538Y282849D01*
X128135Y283925D01*
X130015Y283925D01*
X130042Y283927D01*
X130068Y283925D01*
X130242Y283947D01*
X130416Y283965D01*
X130441Y283972D01*
X130468Y283976D01*
X130633Y284031D01*
X130800Y284083D01*
X130824Y284096D01*
X130849Y284104D01*
X131001Y284191D01*
X131155Y284275D01*
X131175Y284292D01*
X131198Y284305D01*
X131451Y284520D01*
X135040Y288109D01*
X135057Y288129D01*
X135078Y288147D01*
X135185Y288285D01*
X135295Y288420D01*
X135308Y288444D01*
X135324Y288465D01*
X135402Y288622D01*
X135484Y288776D01*
X135492Y288801D01*
X135504Y288826D01*
X135549Y288995D01*
X135599Y289162D01*
X135601Y289188D01*
X135608Y289214D01*
X135635Y289545D01*
X135635Y341786D01*
X135633Y341804D01*
X135635Y341822D01*
X135614Y342004D01*
X135595Y342187D01*
X135590Y342204D01*
X135588Y342221D01*
X135531Y342396D01*
X135477Y342572D01*
X135469Y342587D01*
X135463Y342604D01*
X135373Y342764D01*
X135285Y342926D01*
X135274Y342939D01*
X135265Y342955D01*
X135145Y343094D01*
X135028Y343235D01*
X135014Y343246D01*
X135002Y343260D01*
X134857Y343372D01*
X134714Y343487D01*
X134698Y343495D01*
X134684Y343506D01*
X134519Y343588D01*
X134357Y343673D01*
X134340Y343678D01*
X134324Y343686D01*
X134145Y343733D01*
X133970Y343784D01*
X133952Y343786D01*
X133935Y343790D01*
X133604Y343817D01*
X119508Y343817D01*
X118317Y345008D01*
X118317Y366192D01*
X119508Y367383D01*
X140692Y367383D01*
X141883Y366192D01*
X141883Y350407D01*
X141885Y350380D01*
X141883Y350354D01*
X141905Y350180D01*
X141923Y350006D01*
X141931Y349981D01*
X141934Y349954D01*
X141989Y349789D01*
X142041Y349621D01*
X142054Y349598D01*
X142062Y349573D01*
X142149Y349421D01*
X142233Y349267D01*
X142250Y349247D01*
X142263Y349224D01*
X142478Y348971D01*
X143146Y348302D01*
X143765Y346809D01*
X143765Y286211D01*
X143146Y284718D01*
X137200Y278771D01*
X137183Y278751D01*
X137162Y278733D01*
X137055Y278595D01*
X136945Y278460D01*
X136932Y278436D01*
X136916Y278415D01*
X136838Y278258D01*
X136756Y278104D01*
X136748Y278079D01*
X136736Y278054D01*
X136691Y277885D01*
X136641Y277718D01*
X136639Y277692D01*
X136632Y277666D01*
X136605Y277335D01*
X136605Y275455D01*
X135529Y272858D01*
X133542Y270871D01*
X130945Y269795D01*
X128135Y269795D01*
G37*
%LPD*%
%LPC*%
G36*
X64918Y110327D02*
X64918Y110327D01*
X63727Y111518D01*
X63727Y128282D01*
X64918Y129473D01*
X81682Y129473D01*
X82873Y128282D01*
X82873Y125488D01*
X82875Y125470D01*
X82873Y125452D01*
X82894Y125270D01*
X82913Y125087D01*
X82918Y125070D01*
X82920Y125053D01*
X82977Y124878D01*
X83031Y124702D01*
X83039Y124687D01*
X83045Y124670D01*
X83135Y124510D01*
X83223Y124348D01*
X83234Y124335D01*
X83243Y124319D01*
X83363Y124180D01*
X83480Y124039D01*
X83494Y124028D01*
X83506Y124014D01*
X83651Y123902D01*
X83794Y123787D01*
X83810Y123779D01*
X83824Y123768D01*
X83989Y123686D01*
X84151Y123601D01*
X84168Y123596D01*
X84184Y123588D01*
X84363Y123541D01*
X84538Y123490D01*
X84556Y123488D01*
X84573Y123484D01*
X84904Y123457D01*
X150605Y123457D01*
X150632Y123459D01*
X150659Y123457D01*
X150833Y123479D01*
X151006Y123497D01*
X151031Y123504D01*
X151058Y123508D01*
X151224Y123563D01*
X151391Y123615D01*
X151414Y123628D01*
X151440Y123636D01*
X151591Y123723D01*
X151745Y123807D01*
X151765Y123824D01*
X151789Y123837D01*
X152042Y124052D01*
X167600Y139610D01*
X167617Y139631D01*
X167638Y139649D01*
X167745Y139786D01*
X167855Y139922D01*
X167868Y139945D01*
X167884Y139967D01*
X167962Y140124D01*
X168044Y140278D01*
X168052Y140303D01*
X168064Y140327D01*
X168109Y140497D01*
X168159Y140663D01*
X168161Y140690D01*
X168168Y140716D01*
X168195Y141047D01*
X168195Y143645D01*
X169271Y146242D01*
X171258Y148229D01*
X173855Y149305D01*
X176665Y149305D01*
X179262Y148229D01*
X181249Y146242D01*
X182325Y143645D01*
X182325Y140835D01*
X181249Y138238D01*
X179262Y136251D01*
X176665Y135175D01*
X174067Y135175D01*
X174040Y135173D01*
X174013Y135175D01*
X173839Y135153D01*
X173666Y135135D01*
X173641Y135128D01*
X173614Y135124D01*
X173448Y135069D01*
X173281Y135017D01*
X173258Y135004D01*
X173232Y134996D01*
X173081Y134909D01*
X172927Y134825D01*
X172907Y134808D01*
X172883Y134795D01*
X172630Y134580D01*
X154393Y116343D01*
X84904Y116343D01*
X84886Y116341D01*
X84868Y116343D01*
X84686Y116322D01*
X84503Y116303D01*
X84486Y116298D01*
X84469Y116296D01*
X84294Y116239D01*
X84118Y116185D01*
X84103Y116177D01*
X84086Y116171D01*
X83926Y116081D01*
X83764Y115993D01*
X83751Y115982D01*
X83735Y115973D01*
X83596Y115853D01*
X83455Y115736D01*
X83444Y115722D01*
X83430Y115710D01*
X83318Y115565D01*
X83203Y115422D01*
X83195Y115406D01*
X83184Y115392D01*
X83102Y115227D01*
X83017Y115065D01*
X83012Y115048D01*
X83004Y115032D01*
X82957Y114853D01*
X82906Y114678D01*
X82904Y114660D01*
X82900Y114643D01*
X82873Y114312D01*
X82873Y111518D01*
X81682Y110327D01*
X64918Y110327D01*
G37*
%LPD*%
%LPC*%
G36*
X90035Y206295D02*
X90035Y206295D01*
X87438Y207371D01*
X85451Y209358D01*
X84375Y211955D01*
X84375Y214553D01*
X84373Y214580D01*
X84375Y214607D01*
X84353Y214781D01*
X84335Y214954D01*
X84328Y214980D01*
X84324Y215006D01*
X84269Y215172D01*
X84217Y215339D01*
X84204Y215363D01*
X84196Y215388D01*
X84109Y215539D01*
X84025Y215693D01*
X84008Y215713D01*
X83995Y215737D01*
X83780Y215990D01*
X62622Y237148D01*
X59943Y239827D01*
X59943Y244501D01*
X59941Y244528D01*
X59943Y244554D01*
X59921Y244728D01*
X59903Y244902D01*
X59896Y244927D01*
X59892Y244954D01*
X59837Y245120D01*
X59785Y245287D01*
X59772Y245310D01*
X59764Y245336D01*
X59677Y245487D01*
X59593Y245641D01*
X59576Y245661D01*
X59563Y245684D01*
X59348Y245937D01*
X54863Y250423D01*
X54863Y257577D01*
X59923Y262637D01*
X67077Y262637D01*
X72137Y257577D01*
X72137Y250423D01*
X67652Y245937D01*
X67635Y245917D01*
X67614Y245899D01*
X67507Y245761D01*
X67397Y245626D01*
X67384Y245602D01*
X67368Y245581D01*
X67290Y245424D01*
X67208Y245270D01*
X67200Y245245D01*
X67188Y245221D01*
X67143Y245051D01*
X67093Y244884D01*
X67091Y244858D01*
X67084Y244832D01*
X67057Y244501D01*
X67057Y243615D01*
X67059Y243588D01*
X67057Y243561D01*
X67079Y243387D01*
X67097Y243214D01*
X67104Y243188D01*
X67108Y243162D01*
X67163Y242996D01*
X67215Y242829D01*
X67228Y242805D01*
X67236Y242780D01*
X67323Y242629D01*
X67407Y242475D01*
X67424Y242455D01*
X67437Y242431D01*
X67652Y242178D01*
X88810Y221020D01*
X88831Y221003D01*
X88848Y220982D01*
X88986Y220875D01*
X89122Y220765D01*
X89145Y220752D01*
X89167Y220736D01*
X89324Y220658D01*
X89478Y220576D01*
X89503Y220568D01*
X89527Y220556D01*
X89697Y220511D01*
X89863Y220461D01*
X89890Y220459D01*
X89916Y220452D01*
X90247Y220425D01*
X92845Y220425D01*
X95442Y219349D01*
X97429Y217362D01*
X98505Y214765D01*
X98505Y211955D01*
X97429Y209358D01*
X95442Y207371D01*
X92845Y206295D01*
X90035Y206295D01*
G37*
%LPD*%
%LPC*%
G36*
X290180Y343407D02*
X290180Y343407D01*
X286632Y344877D01*
X283917Y347592D01*
X282447Y351140D01*
X282447Y354980D01*
X283917Y358528D01*
X286632Y361243D01*
X290180Y362713D01*
X309260Y362713D01*
X312808Y361243D01*
X315523Y358528D01*
X316993Y354980D01*
X316993Y351140D01*
X315523Y347592D01*
X312808Y344877D01*
X309260Y343407D01*
X290180Y343407D01*
G37*
%LPD*%
%LPC*%
G36*
X84508Y343817D02*
X84508Y343817D01*
X83317Y345008D01*
X83317Y366192D01*
X84508Y367383D01*
X105692Y367383D01*
X106883Y366192D01*
X106883Y345008D01*
X105692Y343817D01*
X84508Y343817D01*
G37*
%LPD*%
%LPC*%
G36*
X189508Y39017D02*
X189508Y39017D01*
X188317Y40208D01*
X188317Y61392D01*
X189508Y62583D01*
X210692Y62583D01*
X211883Y61392D01*
X211883Y40208D01*
X210692Y39017D01*
X189508Y39017D01*
G37*
%LPD*%
%LPC*%
G36*
X154508Y343817D02*
X154508Y343817D01*
X153317Y345008D01*
X153317Y366192D01*
X154508Y367383D01*
X175692Y367383D01*
X176883Y366192D01*
X176883Y345008D01*
X175692Y343817D01*
X154508Y343817D01*
G37*
%LPD*%
%LPC*%
G36*
X224508Y39017D02*
X224508Y39017D01*
X223317Y40208D01*
X223317Y61392D01*
X224508Y62583D01*
X245692Y62583D01*
X246883Y61392D01*
X246883Y40208D01*
X245692Y39017D01*
X224508Y39017D01*
G37*
%LPD*%
%LPC*%
G36*
X154508Y39017D02*
X154508Y39017D01*
X153317Y40208D01*
X153317Y61392D01*
X154508Y62583D01*
X175692Y62583D01*
X176883Y61392D01*
X176883Y40208D01*
X175692Y39017D01*
X154508Y39017D01*
G37*
%LPD*%
%LPC*%
G36*
X64918Y175327D02*
X64918Y175327D01*
X63727Y176518D01*
X63727Y193282D01*
X64918Y194473D01*
X81682Y194473D01*
X82873Y193282D01*
X82873Y176518D01*
X81682Y175327D01*
X64918Y175327D01*
G37*
%LPD*%
%LPC*%
G36*
X341018Y194627D02*
X341018Y194627D01*
X339827Y195818D01*
X339827Y210582D01*
X341018Y211773D01*
X355782Y211773D01*
X356973Y210582D01*
X356973Y195818D01*
X355782Y194627D01*
X341018Y194627D01*
G37*
%LPD*%
%LPC*%
G36*
X366018Y194627D02*
X366018Y194627D01*
X364827Y195818D01*
X364827Y210582D01*
X366018Y211773D01*
X380782Y211773D01*
X381973Y210582D01*
X381973Y195818D01*
X380782Y194627D01*
X366018Y194627D01*
G37*
%LPD*%
%LPC*%
G36*
X291018Y194627D02*
X291018Y194627D01*
X289827Y195818D01*
X289827Y210582D01*
X291018Y211773D01*
X305782Y211773D01*
X306973Y210582D01*
X306973Y195818D01*
X305782Y194627D01*
X291018Y194627D01*
G37*
%LPD*%
%LPC*%
G36*
X302259Y253999D02*
X302259Y253999D01*
X302259Y261621D01*
X308140Y261621D01*
X309719Y261371D01*
X311240Y260876D01*
X312665Y260150D01*
X313959Y259210D01*
X315090Y258079D01*
X316030Y256785D01*
X316756Y255360D01*
X317199Y253999D01*
X302259Y253999D01*
G37*
%LPD*%
%LPC*%
G36*
X282241Y253999D02*
X282241Y253999D01*
X282684Y255360D01*
X283410Y256785D01*
X284350Y258079D01*
X285481Y259210D01*
X286775Y260150D01*
X288200Y260876D01*
X289721Y261371D01*
X291300Y261621D01*
X297181Y261621D01*
X297181Y253999D01*
X282241Y253999D01*
G37*
%LPD*%
%LPC*%
G36*
X302259Y241299D02*
X302259Y241299D01*
X302259Y248921D01*
X317199Y248921D01*
X316756Y247560D01*
X316030Y246135D01*
X315090Y244841D01*
X313959Y243710D01*
X312665Y242770D01*
X311240Y242044D01*
X309719Y241549D01*
X308140Y241299D01*
X302259Y241299D01*
G37*
%LPD*%
%LPC*%
G36*
X291300Y241299D02*
X291300Y241299D01*
X289721Y241549D01*
X288200Y242044D01*
X286775Y242770D01*
X285481Y243710D01*
X284350Y244841D01*
X283410Y246135D01*
X282684Y247560D01*
X282241Y248921D01*
X297181Y248921D01*
X297181Y241299D01*
X291300Y241299D01*
G37*
%LPD*%
%LPC*%
G36*
X133349Y54049D02*
X133349Y54049D01*
X133349Y63091D01*
X140185Y63091D01*
X140831Y62918D01*
X141410Y62583D01*
X141883Y62110D01*
X142218Y61531D01*
X142391Y60885D01*
X142391Y54049D01*
X133349Y54049D01*
G37*
%LPD*%
%LPC*%
G36*
X203349Y358849D02*
X203349Y358849D01*
X203349Y367891D01*
X210185Y367891D01*
X210831Y367718D01*
X211410Y367383D01*
X211883Y366910D01*
X212218Y366331D01*
X212391Y365685D01*
X212391Y358849D01*
X203349Y358849D01*
G37*
%LPD*%
%LPC*%
G36*
X117809Y54049D02*
X117809Y54049D01*
X117809Y60885D01*
X117982Y61531D01*
X118317Y62110D01*
X118790Y62583D01*
X119369Y62918D01*
X120015Y63091D01*
X126851Y63091D01*
X126851Y54049D01*
X117809Y54049D01*
G37*
%LPD*%
%LPC*%
G36*
X187809Y358849D02*
X187809Y358849D01*
X187809Y365685D01*
X187982Y366331D01*
X188317Y366910D01*
X188790Y367383D01*
X189369Y367718D01*
X190015Y367891D01*
X196851Y367891D01*
X196851Y358849D01*
X187809Y358849D01*
G37*
%LPD*%
%LPC*%
G36*
X203349Y343309D02*
X203349Y343309D01*
X203349Y352351D01*
X212391Y352351D01*
X212391Y345515D01*
X212218Y344869D01*
X211883Y344290D01*
X211410Y343817D01*
X210831Y343482D01*
X210185Y343309D01*
X203349Y343309D01*
G37*
%LPD*%
%LPC*%
G36*
X133349Y38509D02*
X133349Y38509D01*
X133349Y47551D01*
X142391Y47551D01*
X142391Y40715D01*
X142218Y40069D01*
X141883Y39490D01*
X141410Y39017D01*
X140831Y38682D01*
X140185Y38509D01*
X133349Y38509D01*
G37*
%LPD*%
%LPC*%
G36*
X120015Y38509D02*
X120015Y38509D01*
X119369Y38682D01*
X118790Y39017D01*
X118317Y39490D01*
X117982Y40069D01*
X117809Y40715D01*
X117809Y47551D01*
X126851Y47551D01*
X126851Y38509D01*
X120015Y38509D01*
G37*
%LPD*%
%LPC*%
G36*
X190015Y343309D02*
X190015Y343309D01*
X189369Y343482D01*
X188790Y343817D01*
X188317Y344290D01*
X187982Y344869D01*
X187809Y345515D01*
X187809Y352351D01*
X196851Y352351D01*
X196851Y343309D01*
X190015Y343309D01*
G37*
%LPD*%
%LPC*%
G36*
X30799Y187399D02*
X30799Y187399D01*
X30799Y194981D01*
X36175Y194981D01*
X36821Y194808D01*
X37400Y194473D01*
X37873Y194000D01*
X38208Y193421D01*
X38381Y192775D01*
X38381Y187399D01*
X30799Y187399D01*
G37*
%LPD*%
%LPC*%
G36*
X30799Y122399D02*
X30799Y122399D01*
X30799Y129981D01*
X36175Y129981D01*
X36821Y129808D01*
X37400Y129473D01*
X37873Y129000D01*
X38208Y128421D01*
X38381Y127775D01*
X38381Y122399D01*
X30799Y122399D01*
G37*
%LPD*%
%LPC*%
G36*
X30799Y174819D02*
X30799Y174819D01*
X30799Y182401D01*
X38381Y182401D01*
X38381Y177025D01*
X38208Y176379D01*
X37873Y175800D01*
X37400Y175327D01*
X36821Y174992D01*
X36175Y174819D01*
X30799Y174819D01*
G37*
%LPD*%
%LPC*%
G36*
X30799Y109819D02*
X30799Y109819D01*
X30799Y117401D01*
X38381Y117401D01*
X38381Y112025D01*
X38208Y111379D01*
X37873Y110800D01*
X37400Y110327D01*
X36821Y109992D01*
X36175Y109819D01*
X30799Y109819D01*
G37*
%LPD*%
%LPC*%
G36*
X324431Y205231D02*
X324431Y205231D01*
X324431Y212281D01*
X329275Y212281D01*
X329921Y212108D01*
X330500Y211773D01*
X330973Y211300D01*
X331308Y210721D01*
X331481Y210075D01*
X331481Y205231D01*
X324431Y205231D01*
G37*
%LPD*%
%LPC*%
G36*
X313319Y205231D02*
X313319Y205231D01*
X313319Y210075D01*
X313492Y210721D01*
X313827Y211300D01*
X314300Y211773D01*
X314879Y212108D01*
X315525Y212281D01*
X320369Y212281D01*
X320369Y205231D01*
X313319Y205231D01*
G37*
%LPD*%
%LPC*%
G36*
X324431Y194119D02*
X324431Y194119D01*
X324431Y201169D01*
X331481Y201169D01*
X331481Y196325D01*
X331308Y195679D01*
X330973Y195100D01*
X330500Y194627D01*
X329921Y194292D01*
X329275Y194119D01*
X324431Y194119D01*
G37*
%LPD*%
%LPC*%
G36*
X315525Y194119D02*
X315525Y194119D01*
X314879Y194292D01*
X314300Y194627D01*
X313827Y195100D01*
X313492Y195679D01*
X313319Y196325D01*
X313319Y201169D01*
X320369Y201169D01*
X320369Y194119D01*
X315525Y194119D01*
G37*
%LPD*%
%LPC*%
G36*
X40131Y256031D02*
X40131Y256031D01*
X40131Y263145D01*
X41888Y263145D01*
X47245Y257788D01*
X47245Y256031D01*
X40131Y256031D01*
G37*
%LPD*%
%LPC*%
G36*
X28955Y256031D02*
X28955Y256031D01*
X28955Y257788D01*
X34312Y263145D01*
X36069Y263145D01*
X36069Y256031D01*
X28955Y256031D01*
G37*
%LPD*%
%LPC*%
G36*
X40131Y244855D02*
X40131Y244855D01*
X40131Y251969D01*
X47245Y251969D01*
X47245Y250212D01*
X41888Y244855D01*
X40131Y244855D01*
G37*
%LPD*%
%LPC*%
G36*
X34312Y244855D02*
X34312Y244855D01*
X28955Y250212D01*
X28955Y251969D01*
X36069Y251969D01*
X36069Y244855D01*
X34312Y244855D01*
G37*
%LPD*%
D10*
X307340Y251460D02*
X292100Y251460D01*
X292100Y276860D02*
X307340Y276860D01*
X307340Y302260D02*
X292100Y302260D01*
X292100Y327660D02*
X307340Y327660D01*
X307340Y353060D02*
X292100Y353060D01*
D11*
X63500Y254000D03*
X38100Y254000D03*
D12*
X373400Y203200D03*
X348400Y203200D03*
X322400Y203200D03*
X298400Y203200D03*
D13*
X28300Y184900D03*
X73300Y184900D03*
X73300Y119900D03*
X28300Y119900D03*
D14*
X95100Y355600D03*
X130100Y355600D03*
X165100Y355600D03*
X200100Y355600D03*
X235100Y355600D03*
X235100Y50800D03*
X200100Y50800D03*
X165100Y50800D03*
X130100Y50800D03*
X95100Y50800D03*
D15*
X190500Y226060D03*
X132080Y154940D03*
X228600Y203200D03*
X218440Y139700D03*
X264160Y378460D03*
X335280Y91440D03*
D16*
X139700Y287020D02*
X129540Y276860D01*
X139700Y287020D02*
X139700Y346000D01*
X130100Y355600D01*
D15*
X129540Y276860D03*
D17*
X271780Y302260D02*
X299720Y302260D01*
X271780Y302260D02*
X218440Y248920D01*
D15*
X218440Y248920D03*
D17*
X271780Y327660D02*
X299720Y327660D01*
X271780Y327660D02*
X208280Y264160D01*
X208280Y213360D01*
X195580Y200660D01*
D15*
X195580Y200660D03*
D17*
X261620Y276860D02*
X299720Y276860D01*
X261620Y276860D02*
X218440Y233680D01*
D15*
X218440Y233680D03*
D16*
X95100Y50800D02*
X38100Y50800D01*
X12700Y76200D01*
X12700Y317500D01*
X76200Y381000D01*
X209700Y381000D01*
X235100Y355600D01*
D17*
X152920Y119900D02*
X73300Y119900D01*
X152920Y119900D02*
X175260Y142240D01*
D15*
X175260Y142240D03*
D17*
X63500Y241300D02*
X63500Y254000D01*
X63500Y241300D02*
X91440Y213360D01*
D15*
X91440Y213360D03*
M02*
