G04 EAGLE Gerber RS-274X export*
G75*
%MOMM*%
%FSLAX34Y34*%
%LPD*%
%INTop Copper*%
%IPPOS*%
%AMOC8*
5,1,8,0,0,1.08239X$1,22.5*%
G01*
%ADD10R,1.400000X1.400000*%
%ADD11R,1.100000X0.700000*%
%ADD12R,1.800000X0.700000*%
%ADD13R,2.800000X2.000000*%
%ADD14R,1.200000X0.400000*%
%ADD15R,1.800000X1.600000*%
%ADD16C,1.524000*%
%ADD17R,1.524000X0.711200*%
%ADD18R,1.400000X1.900000*%
%ADD19R,1.500000X1.300000*%
%ADD20R,1.600000X1.800000*%
%ADD21R,1.600000X1.600000*%
%ADD22P,1.429621X8X202.500000*%
%ADD23R,1.308000X1.308000*%
%ADD24R,1.600000X1.803000*%
%ADD25R,1.508000X1.508000*%
%ADD26R,1.950000X1.950000*%
%ADD27C,0.304800*%
%ADD28C,0.406400*%
%ADD29C,1.006400*%


D10*
X217120Y114300D03*
X179120Y114300D03*
D11*
X291110Y53580D03*
X291110Y83580D03*
D12*
X294610Y68580D03*
D13*
X317610Y68580D03*
D14*
G36*
X191151Y243478D02*
X182667Y251962D01*
X185495Y254790D01*
X193979Y246306D01*
X191151Y243478D01*
G37*
G36*
X196808Y249135D02*
X188324Y257619D01*
X191152Y260447D01*
X199636Y251963D01*
X196808Y249135D01*
G37*
G36*
X202465Y254792D02*
X193981Y263276D01*
X196809Y266104D01*
X205293Y257620D01*
X202465Y254792D01*
G37*
G36*
X208121Y260449D02*
X199637Y268933D01*
X202465Y271761D01*
X210949Y263277D01*
X208121Y260449D01*
G37*
G36*
X185494Y237821D02*
X177010Y246305D01*
X179838Y249133D01*
X188322Y240649D01*
X185494Y237821D01*
G37*
G36*
X179837Y232164D02*
X171353Y240648D01*
X174181Y243476D01*
X182665Y234992D01*
X179837Y232164D01*
G37*
G36*
X174180Y226507D02*
X165696Y234991D01*
X168524Y237819D01*
X177008Y229335D01*
X174180Y226507D01*
G37*
G36*
X168523Y220851D02*
X160039Y229335D01*
X162867Y232163D01*
X171351Y223679D01*
X168523Y220851D01*
G37*
G36*
X251962Y182667D02*
X243478Y191151D01*
X246306Y193979D01*
X254790Y185495D01*
X251962Y182667D01*
G37*
G36*
X257619Y188324D02*
X249135Y196808D01*
X251963Y199636D01*
X260447Y191152D01*
X257619Y188324D01*
G37*
G36*
X263276Y193981D02*
X254792Y202465D01*
X257620Y205293D01*
X266104Y196809D01*
X263276Y193981D01*
G37*
G36*
X268933Y199637D02*
X260449Y208121D01*
X263277Y210949D01*
X271761Y202465D01*
X268933Y199637D01*
G37*
G36*
X246305Y177010D02*
X237821Y185494D01*
X240649Y188322D01*
X249133Y179838D01*
X246305Y177010D01*
G37*
G36*
X240648Y171353D02*
X232164Y179837D01*
X234992Y182665D01*
X243476Y174181D01*
X240648Y171353D01*
G37*
G36*
X234991Y165696D02*
X226507Y174180D01*
X229335Y177008D01*
X237819Y168524D01*
X234991Y165696D01*
G37*
G36*
X229335Y160039D02*
X220851Y168523D01*
X223679Y171351D01*
X232163Y162867D01*
X229335Y160039D01*
G37*
G36*
X249133Y251962D02*
X240649Y243478D01*
X237821Y246306D01*
X246305Y254790D01*
X249133Y251962D01*
G37*
G36*
X243476Y257619D02*
X234992Y249135D01*
X232164Y251963D01*
X240648Y260447D01*
X243476Y257619D01*
G37*
G36*
X237819Y263276D02*
X229335Y254792D01*
X226507Y257620D01*
X234991Y266104D01*
X237819Y263276D01*
G37*
G36*
X232163Y268933D02*
X223679Y260449D01*
X220851Y263277D01*
X229335Y271761D01*
X232163Y268933D01*
G37*
G36*
X254790Y246305D02*
X246306Y237821D01*
X243478Y240649D01*
X251962Y249133D01*
X254790Y246305D01*
G37*
G36*
X260447Y240648D02*
X251963Y232164D01*
X249135Y234992D01*
X257619Y243476D01*
X260447Y240648D01*
G37*
G36*
X266104Y234991D02*
X257620Y226507D01*
X254792Y229335D01*
X263276Y237819D01*
X266104Y234991D01*
G37*
G36*
X271761Y229335D02*
X263277Y220851D01*
X260449Y223679D01*
X268933Y232163D01*
X271761Y229335D01*
G37*
G36*
X188322Y191151D02*
X179838Y182667D01*
X177010Y185495D01*
X185494Y193979D01*
X188322Y191151D01*
G37*
G36*
X182665Y196808D02*
X174181Y188324D01*
X171353Y191152D01*
X179837Y199636D01*
X182665Y196808D01*
G37*
G36*
X177008Y202465D02*
X168524Y193981D01*
X165696Y196809D01*
X174180Y205293D01*
X177008Y202465D01*
G37*
G36*
X171351Y208121D02*
X162867Y199637D01*
X160039Y202465D01*
X168523Y210949D01*
X171351Y208121D01*
G37*
G36*
X193979Y185494D02*
X185495Y177010D01*
X182667Y179838D01*
X191151Y188322D01*
X193979Y185494D01*
G37*
G36*
X199636Y179837D02*
X191152Y171353D01*
X188324Y174181D01*
X196808Y182665D01*
X199636Y179837D01*
G37*
G36*
X205293Y174180D02*
X196809Y165696D01*
X193981Y168524D01*
X202465Y177008D01*
X205293Y174180D01*
G37*
G36*
X210949Y168523D02*
X202465Y160039D01*
X199637Y162867D01*
X208121Y171351D01*
X210949Y168523D01*
G37*
D15*
X261620Y295940D03*
X261620Y267940D03*
D16*
X292100Y251460D02*
X307340Y251460D01*
X307340Y276860D02*
X292100Y276860D01*
X292100Y302260D02*
X307340Y302260D01*
X307340Y327660D02*
X292100Y327660D01*
X292100Y353060D02*
X307340Y353060D01*
D17*
X156210Y250190D03*
X156210Y262890D03*
X156210Y275590D03*
X156210Y288290D03*
X100330Y288290D03*
X100330Y275590D03*
X100330Y262890D03*
X100330Y250190D03*
D18*
X151700Y132940D03*
X151700Y176940D03*
X127700Y176940D03*
X127700Y132940D03*
D19*
X104140Y183760D03*
X104140Y166760D03*
X104140Y126120D03*
X104140Y143120D03*
D20*
X313720Y378460D03*
X285720Y378460D03*
D21*
X237000Y91440D03*
X271000Y91440D03*
D22*
X63500Y254000D03*
X38100Y254000D03*
D20*
X268000Y139700D03*
X240000Y139700D03*
D23*
X373400Y203200D03*
X348400Y203200D03*
X322400Y203200D03*
X298400Y203200D03*
D20*
X311180Y25400D03*
X283180Y25400D03*
D24*
X319020Y139700D03*
X290580Y139700D03*
X319020Y114300D03*
X290580Y114300D03*
D20*
X268000Y114300D03*
X240000Y114300D03*
D25*
X28300Y184900D03*
X73300Y184900D03*
X73300Y119900D03*
X28300Y119900D03*
D20*
X209580Y294640D03*
X181580Y294640D03*
D24*
X112780Y213360D03*
X141220Y213360D03*
D26*
X95100Y355600D03*
X130100Y355600D03*
X165100Y355600D03*
X200100Y355600D03*
X235100Y355600D03*
X235100Y50800D03*
X200100Y50800D03*
X165100Y50800D03*
X130100Y50800D03*
X95100Y50800D03*
D27*
X104140Y143120D02*
X104140Y154940D01*
X104140Y166760D01*
X104140Y154940D02*
X132080Y154940D01*
D28*
X218440Y139700D02*
X240000Y139700D01*
X240000Y114300D01*
X243477Y182666D02*
X228600Y197542D01*
X228600Y203200D01*
X190500Y235642D02*
X182666Y243477D01*
X190500Y235642D02*
X190500Y226060D01*
X163252Y262890D02*
X156210Y262890D01*
X163252Y262890D02*
X182666Y243477D01*
X261620Y295940D02*
X270480Y295940D01*
X276860Y289560D01*
X276860Y266700D01*
X292100Y251460D01*
X299720Y251460D01*
X285720Y378460D02*
X264160Y378460D01*
X209580Y346120D02*
X209580Y294640D01*
X209580Y346120D02*
X200100Y355600D01*
X317610Y68580D02*
X317610Y31830D01*
X311180Y25400D01*
X317610Y68580D02*
X335280Y86250D01*
X335280Y91440D01*
D29*
X190500Y226060D03*
X132080Y154940D03*
X228600Y203200D03*
X218440Y139700D03*
X264160Y378460D03*
X335280Y91440D03*
D28*
X291110Y53580D02*
X287570Y54580D01*
X283180Y53580D02*
X283180Y25400D01*
X283180Y53580D02*
X291110Y53580D01*
X271000Y65760D02*
X271000Y91440D01*
X271000Y65760D02*
X283180Y53580D01*
X291110Y83580D02*
X294400Y83580D01*
X304800Y93980D01*
X304800Y170180D01*
X304800Y196800D01*
X298400Y203200D01*
X244649Y170180D02*
X237820Y177009D01*
X244649Y170180D02*
X304800Y170180D01*
X200660Y236796D02*
X188323Y249134D01*
X200660Y214169D02*
X237820Y177009D01*
X200660Y214169D02*
X200660Y236796D01*
X188323Y249134D02*
X181580Y255876D01*
X181580Y275590D02*
X181580Y294640D01*
X181580Y275590D02*
X156210Y275590D01*
X181580Y275590D02*
X181580Y255876D01*
X95100Y355600D02*
X50800Y355600D01*
X12700Y317500D01*
X12700Y76200D01*
X60960Y27940D01*
X212240Y27940D01*
X235100Y50800D01*
X179120Y106780D02*
X179120Y114300D01*
X179120Y106780D02*
X235100Y50800D01*
X249134Y188323D02*
X241300Y196156D01*
X241300Y224330D01*
X254791Y237820D01*
X261620Y244650D02*
X261620Y267940D01*
X261620Y244650D02*
X254791Y237820D01*
D27*
X232163Y260448D02*
X243840Y272124D01*
D28*
X243840Y307340D01*
X289560Y353060D01*
X299720Y353060D01*
X313720Y367060D02*
X313720Y378460D01*
X313720Y367060D02*
X299720Y353060D01*
X100330Y262890D02*
X90170Y262890D01*
X86360Y259080D01*
X86360Y223520D01*
X55880Y193040D01*
X55880Y86360D01*
X100330Y262890D02*
X115570Y262890D01*
X129540Y276860D01*
X55880Y86360D02*
X63500Y78740D01*
X172160Y78740D01*
X200100Y50800D01*
D29*
X129540Y276860D03*
D28*
X100330Y275590D02*
X82550Y275590D01*
X76200Y269240D01*
X76200Y228600D01*
X45720Y198120D01*
X100330Y275590D02*
X110490Y275590D01*
X165100Y330200D02*
X165100Y355600D01*
X165100Y330200D02*
X110490Y275590D01*
X45720Y198120D02*
X45720Y83820D01*
X60960Y68580D01*
X147320Y68580D01*
X165100Y50800D01*
X164639Y250190D02*
X156210Y250190D01*
X164639Y250190D02*
X177009Y237820D01*
X171352Y232163D02*
X164755Y238760D01*
X144780Y238760D01*
X142240Y241300D01*
X142240Y284480D01*
X146050Y288290D01*
X156210Y288290D01*
D27*
X151700Y132940D02*
X137260Y118500D01*
X165100Y182070D02*
X177009Y193980D01*
X165100Y182070D02*
X165100Y146340D01*
X151700Y132940D01*
X137260Y118500D02*
X111760Y118500D01*
X104140Y126120D01*
X164756Y193040D02*
X171352Y199637D01*
X164756Y193040D02*
X143800Y193040D01*
X127700Y176940D01*
X104940Y176940D01*
X104140Y183760D01*
X205293Y266105D02*
X218440Y252957D01*
X218440Y248920D01*
D29*
X218440Y248920D03*
D27*
X195580Y200660D02*
X195003Y200660D01*
X182666Y188323D01*
D29*
X195580Y200660D03*
D27*
X208280Y251803D02*
X199637Y260448D01*
X208280Y251803D02*
X208280Y243840D01*
X218440Y233680D01*
D29*
X218440Y233680D03*
D28*
X217120Y114300D02*
X217120Y102920D01*
X228600Y91440D01*
X237000Y91440D01*
X165695Y226507D02*
X161061Y231140D01*
X139700Y231140D01*
X120650Y250190D01*
X100330Y250190D01*
D27*
X348400Y203200D02*
X348400Y169080D01*
X319020Y139700D01*
X373400Y162580D02*
X373400Y203200D01*
X373400Y162580D02*
X325120Y114300D01*
X319020Y114300D01*
X290580Y139700D02*
X268000Y139700D01*
X240955Y162560D02*
X232163Y171352D01*
X240955Y162560D02*
X254000Y162560D01*
X268000Y148560D01*
X268000Y139700D01*
X268000Y114300D02*
X290580Y114300D01*
X268000Y114300D02*
X259080Y114300D01*
X254000Y119380D01*
X254000Y152400D01*
X251460Y154940D01*
X237261Y154940D01*
X226507Y165695D01*
X73300Y184900D02*
X73300Y119900D01*
X175260Y169603D02*
X188323Y182666D01*
X175260Y169603D02*
X175260Y142240D01*
D29*
X175260Y142240D03*
D27*
X157628Y213360D02*
X141220Y213360D01*
X157628Y213360D02*
X165695Y205293D01*
X112780Y213360D02*
X91440Y213360D01*
D29*
X91440Y213360D03*
M02*
