G04 EAGLE Gerber RS-274X export*
G75*
%MOMM*%
%FSLAX34Y34*%
%LPD*%
%INSilkscreen Top*%
%IPPOS*%
%AMOC8*
5,1,8,0,0,1.08239X$1,22.5*%
G01*
%ADD10C,0.101600*%
%ADD11C,0.152400*%
%ADD12C,0.127000*%
%ADD13C,0.076200*%
%ADD14C,0.203200*%
%ADD15C,0.364000*%
%ADD16C,0.254000*%


D10*
X323757Y272464D02*
X321808Y270515D01*
X321808Y266617D01*
X323757Y264668D01*
X331553Y264668D01*
X333502Y266617D01*
X333502Y270515D01*
X331553Y272464D01*
X327655Y272464D01*
X327655Y268566D01*
X333502Y276362D02*
X321808Y276362D01*
X333502Y284158D01*
X321808Y284158D01*
X321808Y288056D02*
X333502Y288056D01*
X333502Y293903D01*
X331553Y295852D01*
X323757Y295852D01*
X321808Y293903D01*
X321808Y288056D01*
X440695Y367802D02*
X442644Y365853D01*
X440695Y367802D02*
X436797Y367802D01*
X434848Y365853D01*
X434848Y358057D01*
X436797Y356108D01*
X440695Y356108D01*
X442644Y358057D01*
X446542Y356108D02*
X446542Y363904D01*
X450440Y367802D01*
X454338Y363904D01*
X454338Y356108D01*
X454338Y361955D02*
X446542Y361955D01*
X458236Y356108D02*
X458236Y367802D01*
X466032Y356108D01*
X466032Y367802D01*
X487471Y367802D02*
X489420Y365853D01*
X487471Y367802D02*
X483573Y367802D01*
X481624Y365853D01*
X481624Y358057D01*
X483573Y356108D01*
X487471Y356108D01*
X489420Y358057D01*
X493318Y358057D02*
X493318Y363904D01*
X493318Y358057D02*
X495267Y356108D01*
X501114Y356108D01*
X501114Y363904D01*
X505012Y363904D02*
X505012Y356108D01*
X505012Y360006D02*
X508910Y363904D01*
X510859Y363904D01*
X514757Y363904D02*
X514757Y356108D01*
X514757Y360006D02*
X518655Y363904D01*
X520604Y363904D01*
X526451Y356108D02*
X530349Y356108D01*
X526451Y356108D02*
X524502Y358057D01*
X524502Y361955D01*
X526451Y363904D01*
X530349Y363904D01*
X532298Y361955D01*
X532298Y360006D01*
X524502Y360006D01*
X536196Y356108D02*
X536196Y363904D01*
X542043Y363904D01*
X543992Y361955D01*
X543992Y356108D01*
X549839Y358057D02*
X549839Y365853D01*
X549839Y358057D02*
X551788Y356108D01*
X551788Y363904D02*
X547890Y363904D01*
X573227Y367802D02*
X575176Y365853D01*
X573227Y367802D02*
X569329Y367802D01*
X567380Y365853D01*
X567380Y363904D01*
X569329Y361955D01*
X573227Y361955D01*
X575176Y360006D01*
X575176Y358057D01*
X573227Y356108D01*
X569329Y356108D01*
X567380Y358057D01*
X581023Y356108D02*
X584921Y356108D01*
X581023Y356108D02*
X579074Y358057D01*
X579074Y361955D01*
X581023Y363904D01*
X584921Y363904D01*
X586870Y361955D01*
X586870Y360006D01*
X579074Y360006D01*
X590768Y356108D02*
X590768Y363904D01*
X596615Y363904D01*
X598564Y361955D01*
X598564Y356108D01*
X602462Y356108D02*
X608309Y356108D01*
X610258Y358057D01*
X608309Y360006D01*
X604411Y360006D01*
X602462Y361955D01*
X604411Y363904D01*
X610258Y363904D01*
X616104Y356108D02*
X620002Y356108D01*
X621951Y358057D01*
X621951Y361955D01*
X620002Y363904D01*
X616104Y363904D01*
X614156Y361955D01*
X614156Y358057D01*
X616104Y356108D01*
X625849Y356108D02*
X625849Y363904D01*
X625849Y360006D02*
X629747Y363904D01*
X631696Y363904D01*
X518844Y390662D02*
X511048Y390662D01*
X518844Y390662D02*
X518844Y388713D01*
X511048Y380917D01*
X511048Y378968D01*
X518844Y378968D01*
X522742Y390662D02*
X530538Y390662D01*
X522742Y390662D02*
X522742Y378968D01*
X530538Y378968D01*
X526640Y384815D02*
X522742Y384815D01*
X534436Y382866D02*
X534436Y390662D01*
X534436Y382866D02*
X538334Y378968D01*
X542232Y382866D01*
X542232Y390662D01*
X546130Y386764D02*
X546130Y378968D01*
X546130Y386764D02*
X550028Y390662D01*
X553926Y386764D01*
X553926Y378968D01*
X553926Y384815D02*
X546130Y384815D01*
X450088Y344942D02*
X450088Y337146D01*
X453986Y333248D01*
X457884Y337146D01*
X457884Y344942D01*
X461782Y341044D02*
X465680Y344942D01*
X465680Y333248D01*
X461782Y333248D02*
X469578Y333248D01*
X473476Y333248D02*
X473476Y335197D01*
X475425Y335197D01*
X475425Y333248D01*
X473476Y333248D01*
X479323Y341044D02*
X483221Y344942D01*
X483221Y333248D01*
X479323Y333248D02*
X487119Y333248D01*
X502711Y337146D02*
X506609Y333248D01*
X502711Y337146D02*
X502711Y341044D01*
X506609Y344942D01*
X512456Y344942D02*
X516354Y344942D01*
X512456Y344942D02*
X510507Y342993D01*
X510507Y335197D01*
X512456Y333248D01*
X516354Y333248D01*
X518303Y335197D01*
X518303Y342993D01*
X516354Y344942D01*
X528048Y344942D02*
X529997Y342993D01*
X528048Y344942D02*
X524150Y344942D01*
X522201Y342993D01*
X522201Y341044D01*
X524150Y339095D01*
X528048Y339095D01*
X529997Y337146D01*
X529997Y335197D01*
X528048Y333248D01*
X524150Y333248D01*
X522201Y335197D01*
X545589Y344942D02*
X553385Y344942D01*
X545589Y344942D02*
X545589Y333248D01*
X553385Y333248D01*
X549487Y339095D02*
X545589Y339095D01*
X565079Y344942D02*
X565079Y333248D01*
X559232Y333248D01*
X557283Y335197D01*
X557283Y339095D01*
X559232Y341044D01*
X565079Y341044D01*
X568977Y341044D02*
X570926Y341044D01*
X570926Y333248D01*
X568977Y333248D02*
X572875Y333248D01*
X570926Y344942D02*
X570926Y346891D01*
X578722Y342993D02*
X578722Y335197D01*
X580671Y333248D01*
X580671Y341044D02*
X576773Y341044D01*
X584569Y341044D02*
X586518Y341044D01*
X586518Y333248D01*
X584569Y333248D02*
X588467Y333248D01*
X586518Y344942D02*
X586518Y346891D01*
X594314Y333248D02*
X598212Y333248D01*
X600161Y335197D01*
X600161Y339095D01*
X598212Y341044D01*
X594314Y341044D01*
X592365Y339095D01*
X592365Y335197D01*
X594314Y333248D01*
X604059Y333248D02*
X604059Y341044D01*
X609906Y341044D01*
X611855Y339095D01*
X611855Y333248D01*
X615753Y333248D02*
X619650Y337146D01*
X619650Y341044D01*
X615753Y344942D01*
X174546Y103802D02*
X174546Y92108D01*
X180393Y92108D01*
X182342Y94057D01*
X182342Y101853D01*
X180393Y103802D01*
X174546Y103802D01*
X186240Y99904D02*
X190138Y103802D01*
X190138Y92108D01*
X186240Y92108D02*
X194036Y92108D01*
X197934Y94057D02*
X197934Y101853D01*
X199883Y103802D01*
X203781Y103802D01*
X205730Y101853D01*
X205730Y94057D01*
X203781Y92108D01*
X199883Y92108D01*
X197934Y94057D01*
X205730Y101853D01*
D11*
X297586Y91304D02*
X324714Y91304D01*
X324714Y80716D01*
X324714Y45856D02*
X297586Y45856D01*
X324714Y45856D02*
X324714Y55944D01*
X297506Y74356D02*
X297506Y77944D01*
X297506Y62944D02*
X297506Y59356D01*
D10*
X345352Y59954D02*
X345352Y63852D01*
X345352Y61903D02*
X333658Y61903D01*
X333658Y59954D02*
X333658Y63852D01*
X333658Y73597D02*
X335607Y75546D01*
X333658Y73597D02*
X333658Y69699D01*
X335607Y67750D01*
X343403Y67750D01*
X345352Y69699D01*
X345352Y73597D01*
X343403Y75546D01*
X335607Y83342D02*
X333658Y87240D01*
X335607Y83342D02*
X339505Y79444D01*
X343403Y79444D01*
X345352Y81393D01*
X345352Y85291D01*
X343403Y87240D01*
X341454Y87240D01*
X339505Y85291D01*
X339505Y79444D01*
D12*
X265397Y215900D02*
X219436Y261862D01*
X265397Y215900D02*
X215900Y166403D01*
X166403Y215900D01*
X212364Y261862D01*
X219436Y261862D01*
X211900Y251255D02*
X211902Y251381D01*
X211908Y251507D01*
X211918Y251633D01*
X211932Y251759D01*
X211950Y251884D01*
X211972Y252008D01*
X211997Y252132D01*
X212027Y252255D01*
X212060Y252376D01*
X212098Y252497D01*
X212139Y252616D01*
X212184Y252735D01*
X212232Y252851D01*
X212284Y252966D01*
X212340Y253079D01*
X212400Y253191D01*
X212463Y253300D01*
X212529Y253408D01*
X212598Y253513D01*
X212671Y253616D01*
X212748Y253717D01*
X212827Y253815D01*
X212909Y253911D01*
X212995Y254004D01*
X213083Y254095D01*
X213174Y254182D01*
X213268Y254267D01*
X213364Y254348D01*
X213463Y254427D01*
X213564Y254502D01*
X213668Y254574D01*
X213774Y254643D01*
X213882Y254709D01*
X213992Y254771D01*
X214104Y254829D01*
X214217Y254884D01*
X214333Y254935D01*
X214450Y254983D01*
X214568Y255027D01*
X214688Y255067D01*
X214809Y255103D01*
X214931Y255136D01*
X215054Y255165D01*
X215178Y255189D01*
X215302Y255210D01*
X215427Y255227D01*
X215553Y255240D01*
X215679Y255249D01*
X215805Y255254D01*
X215932Y255255D01*
X216058Y255252D01*
X216184Y255245D01*
X216310Y255234D01*
X216435Y255219D01*
X216560Y255200D01*
X216684Y255177D01*
X216808Y255151D01*
X216930Y255120D01*
X217052Y255086D01*
X217172Y255047D01*
X217291Y255005D01*
X217409Y254960D01*
X217525Y254910D01*
X217640Y254857D01*
X217752Y254800D01*
X217863Y254740D01*
X217972Y254676D01*
X218079Y254609D01*
X218184Y254539D01*
X218287Y254465D01*
X218387Y254388D01*
X218485Y254308D01*
X218580Y254225D01*
X218672Y254139D01*
X218762Y254050D01*
X218849Y253958D01*
X218932Y253864D01*
X219013Y253767D01*
X219091Y253667D01*
X219166Y253565D01*
X219237Y253461D01*
X219305Y253354D01*
X219369Y253246D01*
X219430Y253135D01*
X219488Y253023D01*
X219542Y252909D01*
X219592Y252793D01*
X219639Y252676D01*
X219682Y252557D01*
X219721Y252437D01*
X219757Y252316D01*
X219788Y252193D01*
X219816Y252070D01*
X219840Y251946D01*
X219860Y251821D01*
X219876Y251696D01*
X219888Y251570D01*
X219896Y251444D01*
X219900Y251318D01*
X219900Y251192D01*
X219896Y251066D01*
X219888Y250940D01*
X219876Y250814D01*
X219860Y250689D01*
X219840Y250564D01*
X219816Y250440D01*
X219788Y250317D01*
X219757Y250194D01*
X219721Y250073D01*
X219682Y249953D01*
X219639Y249834D01*
X219592Y249717D01*
X219542Y249601D01*
X219488Y249487D01*
X219430Y249375D01*
X219369Y249264D01*
X219305Y249156D01*
X219237Y249049D01*
X219166Y248945D01*
X219091Y248843D01*
X219013Y248743D01*
X218932Y248646D01*
X218849Y248552D01*
X218762Y248460D01*
X218672Y248371D01*
X218580Y248285D01*
X218485Y248202D01*
X218387Y248122D01*
X218287Y248045D01*
X218184Y247971D01*
X218079Y247901D01*
X217972Y247834D01*
X217863Y247770D01*
X217752Y247710D01*
X217640Y247653D01*
X217525Y247600D01*
X217409Y247550D01*
X217291Y247505D01*
X217172Y247463D01*
X217052Y247424D01*
X216930Y247390D01*
X216808Y247359D01*
X216684Y247333D01*
X216560Y247310D01*
X216435Y247291D01*
X216310Y247276D01*
X216184Y247265D01*
X216058Y247258D01*
X215932Y247255D01*
X215805Y247256D01*
X215679Y247261D01*
X215553Y247270D01*
X215427Y247283D01*
X215302Y247300D01*
X215178Y247321D01*
X215054Y247345D01*
X214931Y247374D01*
X214809Y247407D01*
X214688Y247443D01*
X214568Y247483D01*
X214450Y247527D01*
X214333Y247575D01*
X214217Y247626D01*
X214104Y247681D01*
X213992Y247739D01*
X213882Y247801D01*
X213774Y247867D01*
X213668Y247936D01*
X213564Y248008D01*
X213463Y248083D01*
X213364Y248162D01*
X213268Y248243D01*
X213174Y248328D01*
X213083Y248415D01*
X212995Y248506D01*
X212909Y248599D01*
X212827Y248695D01*
X212748Y248793D01*
X212671Y248894D01*
X212598Y248997D01*
X212529Y249102D01*
X212463Y249210D01*
X212400Y249319D01*
X212340Y249431D01*
X212284Y249544D01*
X212232Y249659D01*
X212184Y249775D01*
X212139Y249894D01*
X212098Y250013D01*
X212060Y250134D01*
X212027Y250255D01*
X211997Y250378D01*
X211972Y250502D01*
X211950Y250626D01*
X211932Y250751D01*
X211918Y250877D01*
X211908Y251003D01*
X211902Y251129D01*
X211900Y251255D01*
D10*
X273548Y277607D02*
X275497Y279556D01*
X273548Y277607D02*
X273548Y273709D01*
X275497Y271760D01*
X283293Y271760D01*
X285242Y273709D01*
X285242Y277607D01*
X283293Y279556D01*
X285242Y283454D02*
X285242Y291250D01*
X285242Y283454D02*
X277446Y291250D01*
X275497Y291250D01*
X273548Y289301D01*
X273548Y285403D01*
X275497Y283454D01*
D11*
X287020Y321310D02*
X287020Y334010D01*
X293370Y340360D01*
X306070Y340360D01*
X312420Y334010D01*
X287020Y295910D02*
X293370Y289560D01*
X287020Y295910D02*
X287020Y308610D01*
X293370Y314960D01*
X306070Y314960D01*
X312420Y308610D01*
X312420Y295910D01*
X306070Y289560D01*
X293370Y314960D02*
X287020Y321310D01*
X306070Y314960D02*
X312420Y321310D01*
X312420Y334010D01*
X287020Y257810D02*
X287020Y245110D01*
X287020Y257810D02*
X293370Y264160D01*
X306070Y264160D01*
X312420Y257810D01*
X293370Y264160D02*
X287020Y270510D01*
X287020Y283210D01*
X293370Y289560D01*
X306070Y289560D01*
X312420Y283210D01*
X312420Y270510D01*
X306070Y264160D01*
X306070Y238760D02*
X293370Y238760D01*
X287020Y245110D01*
X306070Y238760D02*
X312420Y245110D01*
X312420Y257810D01*
X287020Y346710D02*
X287020Y359410D01*
X293370Y365760D01*
X306070Y365760D01*
X312420Y359410D01*
X293370Y340360D02*
X287020Y346710D01*
X306070Y340360D02*
X312420Y346710D01*
X312420Y359410D01*
D12*
X280797Y238633D02*
X269357Y238633D01*
X269357Y244353D01*
X271264Y246260D01*
X275077Y246260D01*
X276984Y244353D01*
X276984Y238633D01*
X280797Y250327D02*
X269357Y250327D01*
X269357Y256047D01*
X271264Y257953D01*
X275077Y257953D01*
X276984Y256047D01*
X276984Y250327D01*
X276984Y254140D02*
X280797Y257953D01*
X269357Y263928D02*
X269357Y267741D01*
X269357Y263928D02*
X271264Y262021D01*
X278890Y262021D01*
X280797Y263928D01*
X280797Y267741D01*
X278890Y269647D01*
X271264Y269647D01*
X269357Y267741D01*
X269357Y279435D02*
X271264Y281341D01*
X269357Y279435D02*
X269357Y275622D01*
X271264Y273715D01*
X278890Y273715D01*
X280797Y275622D01*
X280797Y279435D01*
X278890Y281341D01*
X275077Y281341D01*
X275077Y277528D01*
X147320Y243840D02*
X109220Y243840D01*
X109220Y294640D02*
X147320Y294640D01*
X137160Y250190D02*
X137162Y250313D01*
X137168Y250437D01*
X137178Y250560D01*
X137192Y250682D01*
X137210Y250804D01*
X137232Y250926D01*
X137257Y251046D01*
X137287Y251166D01*
X137321Y251285D01*
X137358Y251403D01*
X137399Y251519D01*
X137444Y251634D01*
X137493Y251747D01*
X137545Y251859D01*
X137601Y251969D01*
X137660Y252077D01*
X137723Y252183D01*
X137789Y252287D01*
X137859Y252389D01*
X137932Y252489D01*
X138008Y252586D01*
X138087Y252681D01*
X138169Y252773D01*
X138254Y252862D01*
X138342Y252949D01*
X138433Y253032D01*
X138526Y253113D01*
X138622Y253191D01*
X138721Y253265D01*
X138821Y253336D01*
X138924Y253404D01*
X139029Y253469D01*
X139137Y253530D01*
X139246Y253588D01*
X139357Y253642D01*
X139469Y253692D01*
X139584Y253739D01*
X139699Y253782D01*
X139816Y253821D01*
X139934Y253857D01*
X140054Y253888D01*
X140174Y253916D01*
X140295Y253940D01*
X140417Y253960D01*
X140539Y253976D01*
X140662Y253988D01*
X140785Y253996D01*
X140908Y254000D01*
X141032Y254000D01*
X141155Y253996D01*
X141278Y253988D01*
X141401Y253976D01*
X141523Y253960D01*
X141645Y253940D01*
X141766Y253916D01*
X141886Y253888D01*
X142006Y253857D01*
X142124Y253821D01*
X142241Y253782D01*
X142356Y253739D01*
X142471Y253692D01*
X142583Y253642D01*
X142694Y253588D01*
X142803Y253530D01*
X142911Y253469D01*
X143016Y253404D01*
X143119Y253336D01*
X143219Y253265D01*
X143318Y253191D01*
X143414Y253113D01*
X143507Y253032D01*
X143598Y252949D01*
X143686Y252862D01*
X143771Y252773D01*
X143853Y252681D01*
X143932Y252586D01*
X144008Y252489D01*
X144081Y252389D01*
X144151Y252287D01*
X144217Y252183D01*
X144280Y252077D01*
X144339Y251969D01*
X144395Y251859D01*
X144447Y251747D01*
X144496Y251634D01*
X144541Y251519D01*
X144582Y251403D01*
X144619Y251285D01*
X144653Y251166D01*
X144683Y251046D01*
X144708Y250926D01*
X144730Y250804D01*
X144748Y250682D01*
X144762Y250560D01*
X144772Y250437D01*
X144778Y250313D01*
X144780Y250190D01*
X144778Y250067D01*
X144772Y249943D01*
X144762Y249820D01*
X144748Y249698D01*
X144730Y249576D01*
X144708Y249454D01*
X144683Y249334D01*
X144653Y249214D01*
X144619Y249095D01*
X144582Y248977D01*
X144541Y248861D01*
X144496Y248746D01*
X144447Y248633D01*
X144395Y248521D01*
X144339Y248411D01*
X144280Y248303D01*
X144217Y248197D01*
X144151Y248093D01*
X144081Y247991D01*
X144008Y247891D01*
X143932Y247794D01*
X143853Y247699D01*
X143771Y247607D01*
X143686Y247518D01*
X143598Y247431D01*
X143507Y247348D01*
X143414Y247267D01*
X143318Y247189D01*
X143219Y247115D01*
X143119Y247044D01*
X143016Y246976D01*
X142911Y246911D01*
X142803Y246850D01*
X142694Y246792D01*
X142583Y246738D01*
X142471Y246688D01*
X142356Y246641D01*
X142241Y246598D01*
X142124Y246559D01*
X142006Y246523D01*
X141886Y246492D01*
X141766Y246464D01*
X141645Y246440D01*
X141523Y246420D01*
X141401Y246404D01*
X141278Y246392D01*
X141155Y246384D01*
X141032Y246380D01*
X140908Y246380D01*
X140785Y246384D01*
X140662Y246392D01*
X140539Y246404D01*
X140417Y246420D01*
X140295Y246440D01*
X140174Y246464D01*
X140054Y246492D01*
X139934Y246523D01*
X139816Y246559D01*
X139699Y246598D01*
X139584Y246641D01*
X139469Y246688D01*
X139357Y246738D01*
X139246Y246792D01*
X139137Y246850D01*
X139029Y246911D01*
X138924Y246976D01*
X138821Y247044D01*
X138721Y247115D01*
X138622Y247189D01*
X138526Y247267D01*
X138433Y247348D01*
X138342Y247431D01*
X138254Y247518D01*
X138169Y247607D01*
X138087Y247699D01*
X138008Y247794D01*
X137932Y247891D01*
X137859Y247991D01*
X137789Y248093D01*
X137723Y248197D01*
X137660Y248303D01*
X137601Y248411D01*
X137545Y248521D01*
X137493Y248633D01*
X137444Y248746D01*
X137399Y248861D01*
X137358Y248977D01*
X137321Y249095D01*
X137287Y249214D01*
X137257Y249334D01*
X137232Y249454D01*
X137210Y249576D01*
X137192Y249698D01*
X137178Y249820D01*
X137168Y249943D01*
X137162Y250067D01*
X137160Y250190D01*
D13*
X126063Y211260D02*
X124835Y210031D01*
X124835Y207574D01*
X126063Y206345D01*
X127292Y206345D01*
X128521Y207574D01*
X128521Y210031D01*
X129750Y211260D01*
X130978Y211260D01*
X132207Y210031D01*
X132207Y207574D01*
X130978Y206345D01*
X132207Y213829D02*
X124835Y213829D01*
X132207Y218744D01*
X124835Y218744D01*
X126063Y223771D02*
X124835Y226228D01*
X126063Y223771D02*
X128521Y221314D01*
X130978Y221314D01*
X132207Y222542D01*
X132207Y225000D01*
X130978Y226228D01*
X129750Y226228D01*
X128521Y225000D01*
X128521Y221314D01*
X124835Y228798D02*
X124835Y233713D01*
X124835Y228798D02*
X128521Y228798D01*
X127292Y231255D01*
X127292Y232484D01*
X128521Y233713D01*
X130978Y233713D01*
X132207Y232484D01*
X132207Y230026D01*
X130978Y228798D01*
X132207Y236282D02*
X124835Y236282D01*
X128521Y236282D02*
X128521Y241197D01*
X124835Y241197D02*
X132207Y241197D01*
X129750Y243766D02*
X124835Y243766D01*
X129750Y243766D02*
X132207Y246223D01*
X129750Y248681D01*
X124835Y248681D01*
X124835Y251250D02*
X132207Y251250D01*
X132207Y254936D01*
X130978Y256165D01*
X126063Y256165D01*
X124835Y254936D01*
X124835Y251250D01*
X127292Y258734D02*
X124835Y261192D01*
X132207Y261192D01*
X132207Y263649D02*
X132207Y258734D01*
X130978Y266219D02*
X126063Y266219D01*
X124835Y267447D01*
X124835Y269905D01*
X126063Y271133D01*
X130978Y271133D01*
X132207Y269905D01*
X132207Y267447D01*
X130978Y266219D01*
X126063Y271133D01*
X124835Y277389D02*
X132207Y277389D01*
X128521Y273703D02*
X124835Y277389D01*
X128521Y278618D02*
X128521Y273703D01*
X130978Y281187D02*
X126063Y281187D01*
X124835Y282416D01*
X124835Y284873D01*
X126063Y286102D01*
X130978Y286102D01*
X132207Y284873D01*
X132207Y282416D01*
X130978Y281187D01*
X126063Y286102D01*
D14*
X123200Y165440D02*
X123200Y144440D01*
X136700Y183940D02*
X142700Y183940D01*
X156200Y165440D02*
X156200Y144440D01*
X142700Y125940D02*
X136700Y125940D01*
D15*
X141700Y134440D03*
D10*
X111843Y130048D02*
X104047Y130048D01*
X102098Y131997D01*
X102098Y135895D01*
X104047Y137844D01*
X111843Y137844D01*
X113792Y135895D01*
X113792Y131997D01*
X111843Y130048D01*
X109894Y133946D02*
X113792Y137844D01*
X105996Y141742D02*
X102098Y145640D01*
X113792Y145640D01*
X113792Y141742D02*
X113792Y149538D01*
X114798Y167117D02*
X116747Y169066D01*
X114798Y167117D02*
X114798Y163219D01*
X116747Y161270D01*
X124543Y161270D01*
X126492Y163219D01*
X126492Y167117D01*
X124543Y169066D01*
X114798Y172964D02*
X114798Y180760D01*
X114798Y172964D02*
X120645Y172964D01*
X118696Y176862D01*
X118696Y178811D01*
X120645Y180760D01*
X124543Y180760D01*
X126492Y178811D01*
X126492Y174913D01*
X124543Y172964D01*
X83727Y134034D02*
X81778Y132085D01*
X81778Y128187D01*
X83727Y126238D01*
X91523Y126238D01*
X93472Y128187D01*
X93472Y132085D01*
X91523Y134034D01*
X83727Y141830D02*
X81778Y145728D01*
X83727Y141830D02*
X87625Y137932D01*
X91523Y137932D01*
X93472Y139881D01*
X93472Y143779D01*
X91523Y145728D01*
X89574Y145728D01*
X87625Y143779D01*
X87625Y137932D01*
X285642Y364583D02*
X283693Y366532D01*
X279795Y366532D01*
X277846Y364583D01*
X277846Y356787D01*
X279795Y354838D01*
X283693Y354838D01*
X285642Y356787D01*
X289540Y362634D02*
X293438Y366532D01*
X293438Y354838D01*
X289540Y354838D02*
X297336Y354838D01*
X301234Y362634D02*
X305132Y366532D01*
X305132Y354838D01*
X301234Y354838D02*
X309030Y354838D01*
D12*
X269240Y99060D02*
X238760Y99060D01*
X269240Y99060D02*
X269240Y83820D01*
X238760Y83820D01*
X238760Y99060D01*
D11*
X50800Y238760D02*
X50428Y238765D01*
X50057Y238778D01*
X49686Y238801D01*
X49316Y238832D01*
X48947Y238873D01*
X48579Y238923D01*
X48212Y238981D01*
X47847Y239049D01*
X47483Y239125D01*
X47122Y239210D01*
X46763Y239305D01*
X46406Y239407D01*
X46051Y239519D01*
X45700Y239639D01*
X45351Y239767D01*
X45006Y239904D01*
X44664Y240050D01*
X44326Y240203D01*
X43992Y240365D01*
X43662Y240535D01*
X43336Y240713D01*
X43014Y240899D01*
X42697Y241093D01*
X42385Y241294D01*
X42078Y241503D01*
X41776Y241719D01*
X41479Y241943D01*
X41188Y242173D01*
X40903Y242411D01*
X40623Y242656D01*
X40350Y242907D01*
X40083Y243165D01*
X39822Y243429D01*
X39567Y243700D01*
X39320Y243977D01*
X39079Y244260D01*
X38845Y244548D01*
X38618Y244842D01*
X38399Y245142D01*
X50800Y238760D02*
X51172Y238765D01*
X51543Y238778D01*
X51915Y238801D01*
X52285Y238833D01*
X52655Y238873D01*
X53023Y238923D01*
X53391Y238982D01*
X53756Y239049D01*
X54120Y239126D01*
X54482Y239212D01*
X54842Y239306D01*
X55199Y239409D01*
X55554Y239520D01*
X55906Y239641D01*
X56255Y239770D01*
X56600Y239907D01*
X56942Y240053D01*
X57281Y240207D01*
X57616Y240369D01*
X57946Y240539D01*
X58272Y240718D01*
X58594Y240904D01*
X58912Y241098D01*
X59224Y241300D01*
X59531Y241509D01*
X59833Y241726D01*
X60130Y241950D01*
X60422Y242181D01*
X60707Y242419D01*
X60987Y242665D01*
X61260Y242917D01*
X61528Y243175D01*
X61788Y243440D01*
X62043Y243711D01*
X62291Y243989D01*
X62531Y244272D01*
X62765Y244561D01*
X62992Y244856D01*
X50800Y269240D02*
X50435Y269236D01*
X50070Y269223D01*
X49706Y269201D01*
X49343Y269170D01*
X48980Y269131D01*
X48618Y269083D01*
X48258Y269026D01*
X47899Y268961D01*
X47541Y268888D01*
X47186Y268805D01*
X46833Y268715D01*
X46481Y268615D01*
X46133Y268508D01*
X45787Y268392D01*
X45444Y268268D01*
X45104Y268135D01*
X44767Y267995D01*
X44434Y267847D01*
X44104Y267690D01*
X43778Y267526D01*
X43456Y267354D01*
X43139Y267174D01*
X42826Y266987D01*
X42517Y266793D01*
X42213Y266591D01*
X41914Y266381D01*
X41620Y266165D01*
X41332Y265942D01*
X41049Y265712D01*
X40771Y265475D01*
X40499Y265232D01*
X40233Y264982D01*
X39973Y264726D01*
X39720Y264463D01*
X39472Y264195D01*
X39232Y263921D01*
X38997Y263641D01*
X38770Y263356D01*
X50800Y269240D02*
X51165Y269236D01*
X51530Y269223D01*
X51894Y269201D01*
X52257Y269170D01*
X52620Y269131D01*
X52982Y269083D01*
X53342Y269026D01*
X53701Y268961D01*
X54059Y268888D01*
X54414Y268805D01*
X54767Y268715D01*
X55119Y268615D01*
X55467Y268508D01*
X55813Y268392D01*
X56156Y268268D01*
X56496Y268135D01*
X56833Y267995D01*
X57166Y267847D01*
X57496Y267690D01*
X57822Y267526D01*
X58144Y267354D01*
X58461Y267174D01*
X58774Y266987D01*
X59083Y266793D01*
X59387Y266591D01*
X59686Y266381D01*
X59980Y266165D01*
X60268Y265942D01*
X60551Y265712D01*
X60829Y265475D01*
X61101Y265232D01*
X61367Y264982D01*
X61627Y264726D01*
X61880Y264463D01*
X62128Y264195D01*
X62368Y263921D01*
X62603Y263641D01*
X62830Y263356D01*
D16*
X50800Y233680D02*
X50306Y233686D01*
X49812Y233704D01*
X49318Y233734D01*
X48825Y233776D01*
X48334Y233830D01*
X47844Y233896D01*
X47356Y233974D01*
X46869Y234064D01*
X46385Y234165D01*
X45904Y234279D01*
X45426Y234404D01*
X44950Y234540D01*
X44479Y234688D01*
X44011Y234848D01*
X43547Y235019D01*
X43087Y235201D01*
X42632Y235394D01*
X42181Y235598D01*
X41736Y235813D01*
X41296Y236039D01*
X40862Y236276D01*
X40434Y236523D01*
X40012Y236780D01*
X39596Y237048D01*
X39187Y237326D01*
X38785Y237613D01*
X38389Y237910D01*
X38002Y238217D01*
X37621Y238533D01*
X37249Y238858D01*
X36884Y239193D01*
X36528Y239536D01*
X36181Y239887D01*
X35841Y240247D01*
X35511Y240615D01*
X35190Y240991D01*
X50800Y233680D02*
X51288Y233686D01*
X51775Y233703D01*
X52262Y233733D01*
X52749Y233774D01*
X53234Y233826D01*
X53718Y233891D01*
X54200Y233967D01*
X54680Y234054D01*
X55158Y234153D01*
X55633Y234263D01*
X56106Y234385D01*
X56575Y234518D01*
X57042Y234663D01*
X57504Y234818D01*
X57963Y234985D01*
X58418Y235162D01*
X58868Y235351D01*
X59313Y235550D01*
X59754Y235760D01*
X60190Y235980D01*
X60620Y236211D01*
X61044Y236452D01*
X61462Y236703D01*
X61875Y236964D01*
X62281Y237235D01*
X62680Y237515D01*
X63073Y237805D01*
X63458Y238105D01*
X63836Y238414D01*
X64207Y238731D01*
X64569Y239058D01*
X64924Y239393D01*
X65271Y239736D01*
X65609Y240088D01*
X65939Y240447D01*
X66260Y240815D01*
X66573Y241190D01*
X66876Y241573D01*
X67170Y241962D01*
X67454Y242359D01*
X67729Y242762D01*
X67994Y243172D01*
X68249Y243588D01*
X68494Y244010D01*
X68729Y244438D01*
X50800Y274320D02*
X50310Y274314D01*
X49820Y274296D01*
X49331Y274267D01*
X48842Y274225D01*
X48355Y274172D01*
X47869Y274108D01*
X47385Y274031D01*
X46903Y273943D01*
X46423Y273843D01*
X45945Y273732D01*
X45471Y273609D01*
X44999Y273474D01*
X44531Y273329D01*
X44067Y273172D01*
X43606Y273004D01*
X43150Y272825D01*
X42698Y272635D01*
X42251Y272434D01*
X41809Y272222D01*
X41372Y272000D01*
X40940Y271768D01*
X40514Y271525D01*
X40095Y271271D01*
X39681Y271008D01*
X39274Y270735D01*
X38874Y270452D01*
X38480Y270159D01*
X38094Y269858D01*
X37715Y269546D01*
X37344Y269226D01*
X36981Y268897D01*
X36625Y268560D01*
X36278Y268213D01*
X35940Y267859D01*
X35610Y267496D01*
X35288Y267126D01*
X50800Y274320D02*
X51297Y274314D01*
X51794Y274296D01*
X52290Y274265D01*
X52785Y274223D01*
X53279Y274168D01*
X53772Y274102D01*
X54262Y274023D01*
X54751Y273932D01*
X55237Y273830D01*
X55721Y273715D01*
X56201Y273589D01*
X56679Y273451D01*
X57153Y273302D01*
X57623Y273141D01*
X58089Y272968D01*
X58551Y272784D01*
X59008Y272589D01*
X59460Y272383D01*
X59907Y272166D01*
X60348Y271937D01*
X60784Y271699D01*
X61214Y271449D01*
X61637Y271189D01*
X62055Y270919D01*
X62465Y270639D01*
X62868Y270349D01*
X63265Y270049D01*
X63653Y269739D01*
X64034Y269420D01*
X64407Y269092D01*
X64772Y268755D01*
X65129Y268409D01*
X65477Y268054D01*
X65816Y267691D01*
X66147Y267320D01*
X66468Y266940D01*
X66780Y266553D01*
X67082Y266159D01*
X67374Y265757D01*
X67657Y265348D01*
X67929Y264933D01*
X68192Y264510D01*
X68443Y264082D01*
D12*
X-14391Y249565D02*
X-14391Y238125D01*
X-6764Y238125D01*
X-2697Y249565D02*
X4930Y249565D01*
X-2697Y249565D02*
X-2697Y238125D01*
X4930Y238125D01*
X1116Y243845D02*
X-2697Y243845D01*
X8997Y249565D02*
X8997Y238125D01*
X14717Y238125D01*
X16623Y240032D01*
X16623Y247658D01*
X14717Y249565D01*
X8997Y249565D01*
X20691Y238125D02*
X28317Y238125D01*
X20691Y238125D02*
X28317Y245752D01*
X28317Y247658D01*
X26411Y249565D01*
X22598Y249565D01*
X20691Y247658D01*
D10*
X249667Y127772D02*
X251616Y125823D01*
X249667Y127772D02*
X245769Y127772D01*
X243820Y125823D01*
X243820Y118027D01*
X245769Y116078D01*
X249667Y116078D01*
X251616Y118027D01*
X261361Y116078D02*
X261361Y127772D01*
X255514Y121925D01*
X263310Y121925D01*
D12*
X673400Y393200D02*
X674021Y393806D01*
X674657Y394396D01*
X675307Y394971D01*
X675971Y395530D01*
X676648Y396072D01*
X677339Y396597D01*
X678042Y397106D01*
X678758Y397597D01*
X679485Y398070D01*
X680224Y398525D01*
X680974Y398962D01*
X681734Y399380D01*
X682504Y399780D01*
X683284Y400161D01*
X684073Y400522D01*
X684870Y400864D01*
X685676Y401186D01*
X686489Y401488D01*
X687310Y401771D01*
X688137Y402033D01*
X688970Y402274D01*
X689809Y402495D01*
X690654Y402696D01*
X691503Y402876D01*
X692356Y403034D01*
X693212Y403172D01*
X694072Y403289D01*
X694935Y403385D01*
X695799Y403459D01*
X696665Y403512D01*
X697532Y403544D01*
X698400Y403555D01*
X699268Y403544D01*
X700135Y403512D01*
X701001Y403459D01*
X701865Y403385D01*
X702728Y403289D01*
X703588Y403172D01*
X704444Y403034D01*
X705297Y402876D01*
X706146Y402696D01*
X706991Y402495D01*
X707830Y402274D01*
X708663Y402033D01*
X709490Y401771D01*
X710311Y401488D01*
X711124Y401186D01*
X711930Y400864D01*
X712727Y400522D01*
X713516Y400161D01*
X714296Y399780D01*
X715066Y399380D01*
X715826Y398962D01*
X716576Y398525D01*
X717315Y398070D01*
X718042Y397597D01*
X718758Y397106D01*
X719461Y396597D01*
X720152Y396072D01*
X720829Y395530D01*
X721493Y394971D01*
X722143Y394396D01*
X722779Y393806D01*
X723400Y393200D01*
X724006Y392579D01*
X724596Y391943D01*
X725171Y391293D01*
X725730Y390629D01*
X726272Y389952D01*
X726797Y389261D01*
X727306Y388558D01*
X727797Y387842D01*
X728270Y387115D01*
X728725Y386376D01*
X729162Y385626D01*
X729580Y384866D01*
X729980Y384096D01*
X730361Y383316D01*
X730722Y382527D01*
X731064Y381730D01*
X731386Y380924D01*
X731688Y380111D01*
X731971Y379290D01*
X732233Y378463D01*
X732474Y377630D01*
X732695Y376791D01*
X732896Y375946D01*
X733076Y375097D01*
X733234Y374244D01*
X733372Y373388D01*
X733489Y372528D01*
X733585Y371665D01*
X733659Y370801D01*
X733712Y369935D01*
X733744Y369068D01*
X733755Y368200D01*
X733744Y367332D01*
X733712Y366465D01*
X733659Y365599D01*
X733585Y364735D01*
X733489Y363872D01*
X733372Y363012D01*
X733234Y362156D01*
X733076Y361303D01*
X732896Y360454D01*
X732695Y359609D01*
X732474Y358770D01*
X732233Y357937D01*
X731971Y357110D01*
X731688Y356289D01*
X731386Y355476D01*
X731064Y354670D01*
X730722Y353873D01*
X730361Y353084D01*
X729980Y352304D01*
X729580Y351534D01*
X729162Y350774D01*
X728725Y350024D01*
X728270Y349285D01*
X727797Y348558D01*
X727306Y347842D01*
X726797Y347139D01*
X726272Y346448D01*
X725730Y345771D01*
X725171Y345107D01*
X724596Y344457D01*
X724006Y343821D01*
X723400Y343200D01*
X723400Y63200D02*
X724001Y62584D01*
X724587Y61953D01*
X725158Y61308D01*
X725713Y60650D01*
X726251Y59978D01*
X726773Y59293D01*
X727279Y58596D01*
X727767Y57887D01*
X728237Y57166D01*
X728690Y56434D01*
X729125Y55691D01*
X729542Y54937D01*
X729941Y54174D01*
X730320Y53401D01*
X730681Y52619D01*
X731022Y51829D01*
X731345Y51031D01*
X731647Y50225D01*
X731930Y49412D01*
X732193Y48592D01*
X732436Y47766D01*
X732659Y46934D01*
X732862Y46097D01*
X733044Y45256D01*
X733205Y44410D01*
X733346Y43561D01*
X733466Y42708D01*
X733566Y41853D01*
X733644Y40995D01*
X733702Y40136D01*
X733739Y39276D01*
X733754Y38415D01*
X733749Y37554D01*
X733723Y36694D01*
X733676Y35834D01*
X733608Y34976D01*
X733519Y34119D01*
X733409Y33265D01*
X733278Y32414D01*
X733127Y31567D01*
X732955Y30723D01*
X732763Y29884D01*
X732550Y29049D01*
X732317Y28221D01*
X732064Y27398D01*
X731791Y26581D01*
X731498Y25771D01*
X731186Y24969D01*
X730854Y24175D01*
X730503Y23389D01*
X730133Y22611D01*
X729744Y21843D01*
X729336Y21085D01*
X728910Y20336D01*
X728466Y19599D01*
X728004Y18872D01*
X727525Y18157D01*
X727028Y17454D01*
X726514Y16763D01*
X725984Y16084D01*
X725437Y15419D01*
X724875Y14768D01*
X724296Y14130D01*
X723702Y13507D01*
X723093Y12898D01*
X722470Y12304D01*
X721832Y11725D01*
X721181Y11163D01*
X720516Y10616D01*
X719837Y10086D01*
X719146Y9572D01*
X718443Y9075D01*
X717728Y8596D01*
X717001Y8134D01*
X716264Y7690D01*
X715515Y7264D01*
X714757Y6856D01*
X713989Y6467D01*
X713211Y6097D01*
X712425Y5746D01*
X711631Y5414D01*
X710829Y5102D01*
X710019Y4809D01*
X709202Y4536D01*
X708379Y4283D01*
X707551Y4050D01*
X706716Y3837D01*
X705877Y3645D01*
X705033Y3473D01*
X704186Y3322D01*
X703335Y3191D01*
X702481Y3081D01*
X701624Y2992D01*
X700766Y2924D01*
X699906Y2877D01*
X699046Y2851D01*
X698185Y2846D01*
X697324Y2861D01*
X696464Y2898D01*
X695605Y2956D01*
X694747Y3034D01*
X693892Y3134D01*
X693039Y3254D01*
X692190Y3395D01*
X691344Y3556D01*
X690503Y3738D01*
X689666Y3941D01*
X688834Y4164D01*
X688008Y4407D01*
X687188Y4670D01*
X686375Y4953D01*
X685569Y5255D01*
X684771Y5578D01*
X683981Y5919D01*
X683199Y6280D01*
X682426Y6659D01*
X681663Y7058D01*
X680909Y7475D01*
X680166Y7910D01*
X679434Y8363D01*
X678713Y8833D01*
X678004Y9321D01*
X677307Y9827D01*
X676622Y10349D01*
X675950Y10887D01*
X675292Y11442D01*
X674647Y12013D01*
X674016Y12599D01*
X673400Y13200D01*
X393400Y13200D02*
X392784Y12599D01*
X392153Y12013D01*
X391508Y11442D01*
X390850Y10887D01*
X390178Y10349D01*
X389493Y9827D01*
X388796Y9321D01*
X388087Y8833D01*
X387366Y8363D01*
X386634Y7910D01*
X385891Y7475D01*
X385137Y7058D01*
X384374Y6659D01*
X383601Y6280D01*
X382819Y5919D01*
X382029Y5578D01*
X381231Y5255D01*
X380425Y4953D01*
X379612Y4670D01*
X378792Y4407D01*
X377966Y4164D01*
X377134Y3941D01*
X376297Y3738D01*
X375456Y3556D01*
X374610Y3395D01*
X373761Y3254D01*
X372908Y3134D01*
X372053Y3034D01*
X371195Y2956D01*
X370336Y2898D01*
X369476Y2861D01*
X368615Y2846D01*
X367754Y2851D01*
X366894Y2877D01*
X366034Y2924D01*
X365176Y2992D01*
X364319Y3081D01*
X363465Y3191D01*
X362614Y3322D01*
X361767Y3473D01*
X360923Y3645D01*
X360084Y3837D01*
X359249Y4050D01*
X358421Y4283D01*
X357598Y4536D01*
X356781Y4809D01*
X355971Y5102D01*
X355169Y5414D01*
X354375Y5746D01*
X353589Y6097D01*
X352811Y6467D01*
X352043Y6856D01*
X351285Y7264D01*
X350536Y7690D01*
X349799Y8134D01*
X349072Y8596D01*
X348357Y9075D01*
X347654Y9572D01*
X346963Y10086D01*
X346284Y10616D01*
X345619Y11163D01*
X344968Y11725D01*
X344330Y12304D01*
X343707Y12898D01*
X343098Y13507D01*
X342504Y14130D01*
X341925Y14768D01*
X341363Y15419D01*
X340816Y16084D01*
X340286Y16763D01*
X339772Y17454D01*
X339275Y18157D01*
X338796Y18872D01*
X338334Y19599D01*
X337890Y20336D01*
X337464Y21085D01*
X337056Y21843D01*
X336667Y22611D01*
X336297Y23389D01*
X335946Y24175D01*
X335614Y24969D01*
X335302Y25771D01*
X335009Y26581D01*
X334736Y27398D01*
X334483Y28221D01*
X334250Y29049D01*
X334037Y29884D01*
X333845Y30723D01*
X333673Y31567D01*
X333522Y32414D01*
X333391Y33265D01*
X333281Y34119D01*
X333192Y34976D01*
X333124Y35834D01*
X333077Y36694D01*
X333051Y37554D01*
X333046Y38415D01*
X333061Y39276D01*
X333098Y40136D01*
X333156Y40995D01*
X333234Y41853D01*
X333334Y42708D01*
X333454Y43561D01*
X333595Y44410D01*
X333756Y45256D01*
X333938Y46097D01*
X334141Y46934D01*
X334364Y47766D01*
X334607Y48592D01*
X334870Y49412D01*
X335153Y50225D01*
X335455Y51031D01*
X335778Y51829D01*
X336119Y52619D01*
X336480Y53401D01*
X336859Y54174D01*
X337258Y54937D01*
X337675Y55691D01*
X338110Y56434D01*
X338563Y57166D01*
X339033Y57887D01*
X339521Y58596D01*
X340027Y59293D01*
X340549Y59978D01*
X341087Y60650D01*
X341642Y61308D01*
X342213Y61953D01*
X342799Y62584D01*
X343400Y63200D01*
X343400Y343200D02*
X342799Y343816D01*
X342213Y344447D01*
X341642Y345092D01*
X341087Y345750D01*
X340549Y346422D01*
X340027Y347107D01*
X339521Y347804D01*
X339033Y348513D01*
X338563Y349234D01*
X338110Y349966D01*
X337675Y350709D01*
X337258Y351463D01*
X336859Y352226D01*
X336480Y352999D01*
X336119Y353781D01*
X335778Y354571D01*
X335455Y355369D01*
X335153Y356175D01*
X334870Y356988D01*
X334607Y357808D01*
X334364Y358634D01*
X334141Y359466D01*
X333938Y360303D01*
X333756Y361144D01*
X333595Y361990D01*
X333454Y362839D01*
X333334Y363692D01*
X333234Y364547D01*
X333156Y365405D01*
X333098Y366264D01*
X333061Y367124D01*
X333046Y367985D01*
X333051Y368846D01*
X333077Y369706D01*
X333124Y370566D01*
X333192Y371424D01*
X333281Y372281D01*
X333391Y373135D01*
X333522Y373986D01*
X333673Y374833D01*
X333845Y375677D01*
X334037Y376516D01*
X334250Y377351D01*
X334483Y378179D01*
X334736Y379002D01*
X335009Y379819D01*
X335302Y380629D01*
X335614Y381431D01*
X335946Y382225D01*
X336297Y383011D01*
X336667Y383789D01*
X337056Y384557D01*
X337464Y385315D01*
X337890Y386064D01*
X338334Y386801D01*
X338796Y387528D01*
X339275Y388243D01*
X339772Y388946D01*
X340286Y389637D01*
X340816Y390316D01*
X341363Y390981D01*
X341925Y391632D01*
X342504Y392270D01*
X343098Y392893D01*
X343707Y393502D01*
X344330Y394096D01*
X344968Y394675D01*
X345619Y395237D01*
X346284Y395784D01*
X346963Y396314D01*
X347654Y396828D01*
X348357Y397325D01*
X349072Y397804D01*
X349799Y398266D01*
X350536Y398710D01*
X351285Y399136D01*
X352043Y399544D01*
X352811Y399933D01*
X353589Y400303D01*
X354375Y400654D01*
X355169Y400986D01*
X355971Y401298D01*
X356781Y401591D01*
X357598Y401864D01*
X358421Y402117D01*
X359249Y402350D01*
X360084Y402563D01*
X360923Y402755D01*
X361767Y402927D01*
X362614Y403078D01*
X363465Y403209D01*
X364319Y403319D01*
X365176Y403408D01*
X366034Y403476D01*
X366894Y403523D01*
X367754Y403549D01*
X368615Y403554D01*
X369476Y403539D01*
X370336Y403502D01*
X371195Y403444D01*
X372053Y403366D01*
X372908Y403266D01*
X373761Y403146D01*
X374610Y403005D01*
X375456Y402844D01*
X376297Y402662D01*
X377134Y402459D01*
X377966Y402236D01*
X378792Y401993D01*
X379612Y401730D01*
X380425Y401447D01*
X381231Y401145D01*
X382029Y400822D01*
X382819Y400481D01*
X383601Y400120D01*
X384374Y399741D01*
X385137Y399342D01*
X385891Y398925D01*
X386634Y398490D01*
X387366Y398037D01*
X388087Y397567D01*
X388796Y397079D01*
X389493Y396573D01*
X390178Y396051D01*
X390850Y395513D01*
X391508Y394958D01*
X392153Y394387D01*
X392784Y393801D01*
X393400Y393200D01*
X723400Y343200D02*
X723400Y263200D01*
X723400Y143200D02*
X723400Y63200D01*
X673400Y13200D02*
X593400Y13200D01*
X473400Y13200D02*
X393400Y13200D01*
X343400Y63200D02*
X343400Y143200D01*
X343400Y263200D02*
X343400Y343200D01*
X393400Y393200D02*
X473400Y393200D01*
X593400Y393200D02*
X673400Y393200D01*
X334400Y228200D02*
X273400Y228200D01*
X273400Y158200D01*
X338400Y158200D01*
X333400Y203200D02*
X333460Y208108D01*
X333641Y213014D01*
X333942Y217913D01*
X334363Y222803D01*
X334904Y227682D01*
X335565Y232546D01*
X336344Y237392D01*
X337243Y242218D01*
X338260Y247020D01*
X339394Y251796D01*
X340645Y256543D01*
X342012Y261257D01*
X343494Y265936D01*
X345091Y270578D01*
X346801Y275179D01*
X348624Y279737D01*
X350558Y284248D01*
X352602Y288711D01*
X354755Y293122D01*
X357016Y297479D01*
X359383Y301780D01*
X361854Y306021D01*
X364429Y310200D01*
X367106Y314314D01*
X369883Y318362D01*
X372758Y322340D01*
X375731Y326246D01*
X378798Y330079D01*
X381958Y333835D01*
X385210Y337512D01*
X388551Y341108D01*
X391979Y344621D01*
X395492Y348049D01*
X399088Y351390D01*
X402765Y354642D01*
X406521Y357802D01*
X410354Y360869D01*
X414260Y363842D01*
X418238Y366717D01*
X422286Y369494D01*
X426400Y372171D01*
X430579Y374746D01*
X434820Y377217D01*
X439121Y379584D01*
X443478Y381845D01*
X447889Y383998D01*
X452352Y386042D01*
X456863Y387976D01*
X461421Y389799D01*
X466022Y391509D01*
X470664Y393106D01*
X475343Y394588D01*
X480057Y395955D01*
X484804Y397206D01*
X489580Y398340D01*
X494382Y399357D01*
X499208Y400256D01*
X504054Y401035D01*
X508918Y401696D01*
X513797Y402237D01*
X518687Y402658D01*
X523586Y402959D01*
X528492Y403140D01*
X533400Y403200D01*
X538308Y403140D01*
X543214Y402959D01*
X548113Y402658D01*
X553003Y402237D01*
X557882Y401696D01*
X562746Y401035D01*
X567592Y400256D01*
X572418Y399357D01*
X577220Y398340D01*
X581996Y397206D01*
X586743Y395955D01*
X591457Y394588D01*
X596136Y393106D01*
X600778Y391509D01*
X605379Y389799D01*
X609937Y387976D01*
X614448Y386042D01*
X618911Y383998D01*
X623322Y381845D01*
X627679Y379584D01*
X631980Y377217D01*
X636221Y374746D01*
X640400Y372171D01*
X644514Y369494D01*
X648562Y366717D01*
X652540Y363842D01*
X656446Y360869D01*
X660279Y357802D01*
X664035Y354642D01*
X667712Y351390D01*
X671308Y348049D01*
X674821Y344621D01*
X678249Y341108D01*
X681590Y337512D01*
X684842Y333835D01*
X688002Y330079D01*
X691069Y326246D01*
X694042Y322340D01*
X696917Y318362D01*
X699694Y314314D01*
X702371Y310200D01*
X704946Y306021D01*
X707417Y301780D01*
X709784Y297479D01*
X712045Y293122D01*
X714198Y288711D01*
X716242Y284248D01*
X718176Y279737D01*
X719999Y275179D01*
X721709Y270578D01*
X723306Y265936D01*
X724788Y261257D01*
X726155Y256543D01*
X727406Y251796D01*
X728540Y247020D01*
X729557Y242218D01*
X730456Y237392D01*
X731235Y232546D01*
X731896Y227682D01*
X732437Y222803D01*
X732858Y217913D01*
X733159Y213014D01*
X733340Y208108D01*
X733400Y203200D01*
X733340Y198292D01*
X733159Y193386D01*
X732858Y188487D01*
X732437Y183597D01*
X731896Y178718D01*
X731235Y173854D01*
X730456Y169008D01*
X729557Y164182D01*
X728540Y159380D01*
X727406Y154604D01*
X726155Y149857D01*
X724788Y145143D01*
X723306Y140464D01*
X721709Y135822D01*
X719999Y131221D01*
X718176Y126663D01*
X716242Y122152D01*
X714198Y117689D01*
X712045Y113278D01*
X709784Y108921D01*
X707417Y104620D01*
X704946Y100379D01*
X702371Y96200D01*
X699694Y92086D01*
X696917Y88038D01*
X694042Y84060D01*
X691069Y80154D01*
X688002Y76321D01*
X684842Y72565D01*
X681590Y68888D01*
X678249Y65292D01*
X674821Y61779D01*
X671308Y58351D01*
X667712Y55010D01*
X664035Y51758D01*
X660279Y48598D01*
X656446Y45531D01*
X652540Y42558D01*
X648562Y39683D01*
X644514Y36906D01*
X640400Y34229D01*
X636221Y31654D01*
X631980Y29183D01*
X627679Y26816D01*
X623322Y24555D01*
X618911Y22402D01*
X614448Y20358D01*
X609937Y18424D01*
X605379Y16601D01*
X600778Y14891D01*
X596136Y13294D01*
X591457Y11812D01*
X586743Y10445D01*
X581996Y9194D01*
X577220Y8060D01*
X572418Y7043D01*
X567592Y6144D01*
X562746Y5365D01*
X557882Y4704D01*
X553003Y4163D01*
X548113Y3742D01*
X543214Y3441D01*
X538308Y3260D01*
X533400Y3200D01*
X528492Y3260D01*
X523586Y3441D01*
X518687Y3742D01*
X513797Y4163D01*
X508918Y4704D01*
X504054Y5365D01*
X499208Y6144D01*
X494382Y7043D01*
X489580Y8060D01*
X484804Y9194D01*
X480057Y10445D01*
X475343Y11812D01*
X470664Y13294D01*
X466022Y14891D01*
X461421Y16601D01*
X456863Y18424D01*
X452352Y20358D01*
X447889Y22402D01*
X443478Y24555D01*
X439121Y26816D01*
X434820Y29183D01*
X430579Y31654D01*
X426400Y34229D01*
X422286Y36906D01*
X418238Y39683D01*
X414260Y42558D01*
X410354Y45531D01*
X406521Y48598D01*
X402765Y51758D01*
X399088Y55010D01*
X395492Y58351D01*
X391979Y61779D01*
X388551Y65292D01*
X385210Y68888D01*
X381958Y72565D01*
X378798Y76321D01*
X375731Y80154D01*
X372758Y84060D01*
X369883Y88038D01*
X367106Y92086D01*
X364429Y96200D01*
X361854Y100379D01*
X359383Y104620D01*
X357016Y108921D01*
X354755Y113278D01*
X352602Y117689D01*
X350558Y122152D01*
X348624Y126663D01*
X346801Y131221D01*
X345091Y135822D01*
X343494Y140464D01*
X342012Y145143D01*
X340645Y149857D01*
X339394Y154604D01*
X338260Y159380D01*
X337243Y164182D01*
X336344Y169008D01*
X335565Y173854D01*
X334904Y178718D01*
X334363Y183597D01*
X333942Y188487D01*
X333641Y193386D01*
X333460Y198292D01*
X333400Y203200D01*
X423400Y203200D02*
X423433Y205900D01*
X423532Y208597D01*
X423698Y211292D01*
X423930Y213982D01*
X424227Y216665D01*
X424591Y219340D01*
X425019Y222006D01*
X425514Y224660D01*
X426073Y227301D01*
X426697Y229928D01*
X427385Y232538D01*
X428137Y235131D01*
X428952Y237705D01*
X429830Y240258D01*
X430771Y242788D01*
X431773Y245295D01*
X432837Y247777D01*
X433961Y250231D01*
X435145Y252657D01*
X436389Y255054D01*
X437690Y257419D01*
X439050Y259751D01*
X440466Y262050D01*
X441938Y264313D01*
X443466Y266539D01*
X445047Y268727D01*
X446682Y270875D01*
X448369Y272983D01*
X450107Y275049D01*
X451895Y277071D01*
X453733Y279049D01*
X455618Y280982D01*
X457551Y282867D01*
X459529Y284705D01*
X461551Y286493D01*
X463617Y288231D01*
X465725Y289918D01*
X467873Y291553D01*
X470061Y293134D01*
X472287Y294662D01*
X474550Y296134D01*
X476849Y297550D01*
X479181Y298910D01*
X481546Y300211D01*
X483943Y301455D01*
X486369Y302639D01*
X488823Y303763D01*
X491305Y304827D01*
X493812Y305829D01*
X496342Y306770D01*
X498895Y307648D01*
X501469Y308463D01*
X504062Y309215D01*
X506672Y309903D01*
X509299Y310527D01*
X511940Y311086D01*
X514594Y311581D01*
X517260Y312009D01*
X519935Y312373D01*
X522618Y312670D01*
X525308Y312902D01*
X528003Y313068D01*
X530700Y313167D01*
X533400Y313200D01*
X536100Y313167D01*
X538797Y313068D01*
X541492Y312902D01*
X544182Y312670D01*
X546865Y312373D01*
X549540Y312009D01*
X552206Y311581D01*
X554860Y311086D01*
X557501Y310527D01*
X560128Y309903D01*
X562738Y309215D01*
X565331Y308463D01*
X567905Y307648D01*
X570458Y306770D01*
X572988Y305829D01*
X575495Y304827D01*
X577977Y303763D01*
X580431Y302639D01*
X582857Y301455D01*
X585254Y300211D01*
X587619Y298910D01*
X589951Y297550D01*
X592250Y296134D01*
X594513Y294662D01*
X596739Y293134D01*
X598927Y291553D01*
X601075Y289918D01*
X603183Y288231D01*
X605249Y286493D01*
X607271Y284705D01*
X609249Y282867D01*
X611182Y280982D01*
X613067Y279049D01*
X614905Y277071D01*
X616693Y275049D01*
X618431Y272983D01*
X620118Y270875D01*
X621753Y268727D01*
X623334Y266539D01*
X624862Y264313D01*
X626334Y262050D01*
X627750Y259751D01*
X629110Y257419D01*
X630411Y255054D01*
X631655Y252657D01*
X632839Y250231D01*
X633963Y247777D01*
X635027Y245295D01*
X636029Y242788D01*
X636970Y240258D01*
X637848Y237705D01*
X638663Y235131D01*
X639415Y232538D01*
X640103Y229928D01*
X640727Y227301D01*
X641286Y224660D01*
X641781Y222006D01*
X642209Y219340D01*
X642573Y216665D01*
X642870Y213982D01*
X643102Y211292D01*
X643268Y208597D01*
X643367Y205900D01*
X643400Y203200D01*
X643367Y200500D01*
X643268Y197803D01*
X643102Y195108D01*
X642870Y192418D01*
X642573Y189735D01*
X642209Y187060D01*
X641781Y184394D01*
X641286Y181740D01*
X640727Y179099D01*
X640103Y176472D01*
X639415Y173862D01*
X638663Y171269D01*
X637848Y168695D01*
X636970Y166142D01*
X636029Y163612D01*
X635027Y161105D01*
X633963Y158623D01*
X632839Y156169D01*
X631655Y153743D01*
X630411Y151346D01*
X629110Y148981D01*
X627750Y146649D01*
X626334Y144350D01*
X624862Y142087D01*
X623334Y139861D01*
X621753Y137673D01*
X620118Y135525D01*
X618431Y133417D01*
X616693Y131351D01*
X614905Y129329D01*
X613067Y127351D01*
X611182Y125418D01*
X609249Y123533D01*
X607271Y121695D01*
X605249Y119907D01*
X603183Y118169D01*
X601075Y116482D01*
X598927Y114847D01*
X596739Y113266D01*
X594513Y111738D01*
X592250Y110266D01*
X589951Y108850D01*
X587619Y107490D01*
X585254Y106189D01*
X582857Y104945D01*
X580431Y103761D01*
X577977Y102637D01*
X575495Y101573D01*
X572988Y100571D01*
X570458Y99630D01*
X567905Y98752D01*
X565331Y97937D01*
X562738Y97185D01*
X560128Y96497D01*
X557501Y95873D01*
X554860Y95314D01*
X552206Y94819D01*
X549540Y94391D01*
X546865Y94027D01*
X544182Y93730D01*
X541492Y93498D01*
X538797Y93332D01*
X536100Y93233D01*
X533400Y93200D01*
X530700Y93233D01*
X528003Y93332D01*
X525308Y93498D01*
X522618Y93730D01*
X519935Y94027D01*
X517260Y94391D01*
X514594Y94819D01*
X511940Y95314D01*
X509299Y95873D01*
X506672Y96497D01*
X504062Y97185D01*
X501469Y97937D01*
X498895Y98752D01*
X496342Y99630D01*
X493812Y100571D01*
X491305Y101573D01*
X488823Y102637D01*
X486369Y103761D01*
X483943Y104945D01*
X481546Y106189D01*
X479181Y107490D01*
X476849Y108850D01*
X474550Y110266D01*
X472287Y111738D01*
X470061Y113266D01*
X467873Y114847D01*
X465725Y116482D01*
X463617Y118169D01*
X461551Y119907D01*
X459529Y121695D01*
X457551Y123533D01*
X455618Y125418D01*
X453733Y127351D01*
X451895Y129329D01*
X450107Y131351D01*
X448369Y133417D01*
X446682Y135525D01*
X445047Y137673D01*
X443466Y139861D01*
X441938Y142087D01*
X440466Y144350D01*
X439050Y146649D01*
X437690Y148981D01*
X436389Y151346D01*
X435145Y153743D01*
X433961Y156169D01*
X432837Y158623D01*
X431773Y161105D01*
X430771Y163612D01*
X429830Y166142D01*
X428952Y168695D01*
X428137Y171269D01*
X427385Y173862D01*
X426697Y176472D01*
X426073Y179099D01*
X425514Y181740D01*
X425019Y184394D01*
X424591Y187060D01*
X424227Y189735D01*
X423930Y192418D01*
X423698Y195108D01*
X423532Y197803D01*
X423433Y200500D01*
X423400Y203200D01*
D10*
X292847Y13472D02*
X294796Y11523D01*
X292847Y13472D02*
X288949Y13472D01*
X287000Y11523D01*
X287000Y3727D01*
X288949Y1778D01*
X292847Y1778D01*
X294796Y3727D01*
X298694Y13472D02*
X306490Y13472D01*
X306490Y11523D01*
X298694Y3727D01*
X298694Y1778D01*
X291338Y151638D02*
X291338Y163332D01*
X297185Y163332D01*
X299134Y161383D01*
X299134Y157485D01*
X297185Y155536D01*
X291338Y155536D01*
X295236Y155536D02*
X299134Y151638D01*
X303032Y161383D02*
X304981Y163332D01*
X308879Y163332D01*
X310828Y161383D01*
X310828Y159434D01*
X308879Y157485D01*
X306930Y157485D01*
X308879Y157485D02*
X310828Y155536D01*
X310828Y153587D01*
X308879Y151638D01*
X304981Y151638D01*
X303032Y153587D01*
X291338Y137932D02*
X291338Y126238D01*
X291338Y137932D02*
X297185Y137932D01*
X299134Y135983D01*
X299134Y132085D01*
X297185Y130136D01*
X291338Y130136D01*
X295236Y130136D02*
X299134Y126238D01*
X308879Y126238D02*
X308879Y137932D01*
X303032Y132085D01*
X310828Y132085D01*
X251616Y100423D02*
X249667Y102372D01*
X245769Y102372D01*
X243820Y100423D01*
X243820Y92627D01*
X245769Y90678D01*
X249667Y90678D01*
X251616Y92627D01*
X255514Y100423D02*
X257463Y102372D01*
X261361Y102372D01*
X263310Y100423D01*
X263310Y98474D01*
X261361Y96525D01*
X263310Y94576D01*
X263310Y92627D01*
X261361Y90678D01*
X257463Y90678D01*
X255514Y92627D01*
X255514Y94576D01*
X257463Y96525D01*
X255514Y98474D01*
X255514Y100423D01*
X257463Y96525D02*
X261361Y96525D01*
D12*
X80800Y182400D02*
X20800Y182400D01*
X80800Y182400D02*
X80800Y122400D01*
X20800Y122400D01*
X20800Y182400D01*
X32800Y152400D02*
X32805Y152842D01*
X32822Y153283D01*
X32849Y153724D01*
X32887Y154164D01*
X32935Y154603D01*
X32995Y155041D01*
X33065Y155477D01*
X33146Y155912D01*
X33237Y156344D01*
X33339Y156774D01*
X33452Y157201D01*
X33575Y157625D01*
X33708Y158046D01*
X33852Y158464D01*
X34006Y158878D01*
X34170Y159288D01*
X34344Y159694D01*
X34528Y160096D01*
X34722Y160493D01*
X34925Y160885D01*
X35138Y161272D01*
X35361Y161654D01*
X35593Y162030D01*
X35834Y162400D01*
X36083Y162765D01*
X36342Y163123D01*
X36610Y163474D01*
X36886Y163819D01*
X37170Y164157D01*
X37463Y164488D01*
X37764Y164812D01*
X38072Y165128D01*
X38388Y165436D01*
X38712Y165737D01*
X39043Y166030D01*
X39381Y166314D01*
X39726Y166590D01*
X40077Y166858D01*
X40435Y167117D01*
X40800Y167366D01*
X41170Y167607D01*
X41546Y167839D01*
X41928Y168062D01*
X42315Y168275D01*
X42707Y168478D01*
X43104Y168672D01*
X43506Y168856D01*
X43912Y169030D01*
X44322Y169194D01*
X44736Y169348D01*
X45154Y169492D01*
X45575Y169625D01*
X45999Y169748D01*
X46426Y169861D01*
X46856Y169963D01*
X47288Y170054D01*
X47723Y170135D01*
X48159Y170205D01*
X48597Y170265D01*
X49036Y170313D01*
X49476Y170351D01*
X49917Y170378D01*
X50358Y170395D01*
X50800Y170400D01*
X51242Y170395D01*
X51683Y170378D01*
X52124Y170351D01*
X52564Y170313D01*
X53003Y170265D01*
X53441Y170205D01*
X53877Y170135D01*
X54312Y170054D01*
X54744Y169963D01*
X55174Y169861D01*
X55601Y169748D01*
X56025Y169625D01*
X56446Y169492D01*
X56864Y169348D01*
X57278Y169194D01*
X57688Y169030D01*
X58094Y168856D01*
X58496Y168672D01*
X58893Y168478D01*
X59285Y168275D01*
X59672Y168062D01*
X60054Y167839D01*
X60430Y167607D01*
X60800Y167366D01*
X61165Y167117D01*
X61523Y166858D01*
X61874Y166590D01*
X62219Y166314D01*
X62557Y166030D01*
X62888Y165737D01*
X63212Y165436D01*
X63528Y165128D01*
X63836Y164812D01*
X64137Y164488D01*
X64430Y164157D01*
X64714Y163819D01*
X64990Y163474D01*
X65258Y163123D01*
X65517Y162765D01*
X65766Y162400D01*
X66007Y162030D01*
X66239Y161654D01*
X66462Y161272D01*
X66675Y160885D01*
X66878Y160493D01*
X67072Y160096D01*
X67256Y159694D01*
X67430Y159288D01*
X67594Y158878D01*
X67748Y158464D01*
X67892Y158046D01*
X68025Y157625D01*
X68148Y157201D01*
X68261Y156774D01*
X68363Y156344D01*
X68454Y155912D01*
X68535Y155477D01*
X68605Y155041D01*
X68665Y154603D01*
X68713Y154164D01*
X68751Y153724D01*
X68778Y153283D01*
X68795Y152842D01*
X68800Y152400D01*
X68795Y151958D01*
X68778Y151517D01*
X68751Y151076D01*
X68713Y150636D01*
X68665Y150197D01*
X68605Y149759D01*
X68535Y149323D01*
X68454Y148888D01*
X68363Y148456D01*
X68261Y148026D01*
X68148Y147599D01*
X68025Y147175D01*
X67892Y146754D01*
X67748Y146336D01*
X67594Y145922D01*
X67430Y145512D01*
X67256Y145106D01*
X67072Y144704D01*
X66878Y144307D01*
X66675Y143915D01*
X66462Y143528D01*
X66239Y143146D01*
X66007Y142770D01*
X65766Y142400D01*
X65517Y142035D01*
X65258Y141677D01*
X64990Y141326D01*
X64714Y140981D01*
X64430Y140643D01*
X64137Y140312D01*
X63836Y139988D01*
X63528Y139672D01*
X63212Y139364D01*
X62888Y139063D01*
X62557Y138770D01*
X62219Y138486D01*
X61874Y138210D01*
X61523Y137942D01*
X61165Y137683D01*
X60800Y137434D01*
X60430Y137193D01*
X60054Y136961D01*
X59672Y136738D01*
X59285Y136525D01*
X58893Y136322D01*
X58496Y136128D01*
X58094Y135944D01*
X57688Y135770D01*
X57278Y135606D01*
X56864Y135452D01*
X56446Y135308D01*
X56025Y135175D01*
X55601Y135052D01*
X55174Y134939D01*
X54744Y134837D01*
X54312Y134746D01*
X53877Y134665D01*
X53441Y134595D01*
X53003Y134535D01*
X52564Y134487D01*
X52124Y134449D01*
X51683Y134422D01*
X51242Y134405D01*
X50800Y134400D01*
X50358Y134405D01*
X49917Y134422D01*
X49476Y134449D01*
X49036Y134487D01*
X48597Y134535D01*
X48159Y134595D01*
X47723Y134665D01*
X47288Y134746D01*
X46856Y134837D01*
X46426Y134939D01*
X45999Y135052D01*
X45575Y135175D01*
X45154Y135308D01*
X44736Y135452D01*
X44322Y135606D01*
X43912Y135770D01*
X43506Y135944D01*
X43104Y136128D01*
X42707Y136322D01*
X42315Y136525D01*
X41928Y136738D01*
X41546Y136961D01*
X41170Y137193D01*
X40800Y137434D01*
X40435Y137683D01*
X40077Y137942D01*
X39726Y138210D01*
X39381Y138486D01*
X39043Y138770D01*
X38712Y139063D01*
X38388Y139364D01*
X38072Y139672D01*
X37764Y139988D01*
X37463Y140312D01*
X37170Y140643D01*
X36886Y140981D01*
X36610Y141326D01*
X36342Y141677D01*
X36083Y142035D01*
X35834Y142400D01*
X35593Y142770D01*
X35361Y143146D01*
X35138Y143528D01*
X34925Y143915D01*
X34722Y144307D01*
X34528Y144704D01*
X34344Y145106D01*
X34170Y145512D01*
X34006Y145922D01*
X33852Y146336D01*
X33708Y146754D01*
X33575Y147175D01*
X33452Y147599D01*
X33339Y148026D01*
X33237Y148456D01*
X33146Y148888D01*
X33065Y149323D01*
X32995Y149759D01*
X32935Y150197D01*
X32887Y150636D01*
X32849Y151076D01*
X32822Y151517D01*
X32805Y151958D01*
X32800Y152400D01*
D10*
X191247Y282712D02*
X193196Y280763D01*
X191247Y282712D02*
X187349Y282712D01*
X185400Y280763D01*
X185400Y272967D01*
X187349Y271018D01*
X191247Y271018D01*
X193196Y272967D01*
X197094Y278814D02*
X200992Y282712D01*
X200992Y271018D01*
X197094Y271018D02*
X204890Y271018D01*
X118090Y201432D02*
X118090Y189738D01*
X118090Y201432D02*
X123937Y201432D01*
X125886Y199483D01*
X125886Y195585D01*
X123937Y193636D01*
X118090Y193636D01*
X121988Y193636D02*
X125886Y189738D01*
X129784Y197534D02*
X133682Y201432D01*
X133682Y189738D01*
X129784Y189738D02*
X137580Y189738D01*
D12*
X70100Y435600D02*
X260100Y435600D01*
X260100Y343600D01*
X70100Y343600D01*
X70100Y435600D01*
X70100Y-29200D02*
X260100Y-29200D01*
X70100Y-29200D02*
X70100Y62800D01*
X260100Y62800D01*
X260100Y-29200D01*
M02*
